<ttFont>
<head>
    <!-- Most of this table will be recalculated by the compiler -->
    <tableVersion value="1.0"/>
    <fontRevision value="1.0"/>
    <checkSumAdjustment value="0xb49df31e"/>
    <magicNumber value="0x5f0f3cf5"/>
    <flags value="00000000 00011011"/>
    <unitsPerEm value="1000"/>
    <created value="Tue Jan  8 12:46:00 2013"/>
    <modified value="Thu Nov  6 12:32:54 2014"/>
    <xMin value="-114"/>
    <yMin value="-243"/>
    <xMax value="1131"/>
    <yMax value="999"/>
    <macStyle value="00000000 00000010"/>
    <lowestRecPPEM value="9"/>
    <fontDirectionHint value="2"/>
    <indexToLocFormat value="0"/>
    <glyphDataFormat value="0"/>
  </head>
    <TTGlyph name=".notdef" xMin="76" yMin="0" xMax="540" yMax="650">
      <contour>
        <pt x="76" y="650" on="1"/>
        <pt x="540" y="650" on="1"/>
        <pt x="540" y="0" on="1"/>
        <pt x="76" y="0" on="1"/>
      </contour>
      <contour>
        <pt x="466" y="604" on="1"/>
        <pt x="150" y="604" on="1"/>
        <pt x="309" y="367" on="1"/>
      </contour>
      <contour>
        <pt x="494" y="88" on="1"/>
        <pt x="494" y="562" on="1"/>
        <pt x="336" y="325" on="1"/>
      </contour>
      <contour>
        <pt x="466" y="47" on="1"/>
        <pt x="309" y="283" on="1"/>
        <pt x="150" y="47" on="1"/>
      </contour>
      <contour>
        <pt x="123" y="88" on="1"/>
        <pt x="280" y="325" on="1"/>
        <pt x="123" y="562" on="1"/>
      </contour>
    </TTGlyph>
    <TTGlyph name="A" xMin="6" yMin="0" xMax="587" yMax="663">
      <contour>
        <pt x="557" y="0" on="1"/>
        <pt x="547" y="0" on="0"/>
        <pt x="545" y="7" on="1"/>
        <pt x="494" y="182" on="1"/>
        <pt x="142" y="182" on="1"/>
        <pt x="50" y="7" on="1"/>
        <pt x="48" y="2" on="0"/>
        <pt x="43" y="0" on="0"/>
        <pt x="36" y="0" on="1"/>
        <pt x="6" y="0" on="1"/>
        <pt x="354" y="663" on="1"/>
        <pt x="380" y="663" on="1"/>
        <pt x="386" y="663" on="0"/>
        <pt x="389" y="661" on="0"/>
        <pt x="391" y="656" on="1"/>
        <pt x="587" y="0" on="1"/>
      </contour>
      <contour>
        <pt x="159" y="214" on="1"/>
        <pt x="484" y="214" on="1"/>
        <pt x="366" y="615" on="1"/>
      </contour>
    </TTGlyph>
    <TTGlyph name="AE" xMin="-2" yMin="0" xMax="858" yMax="663">
      <contour>
        <pt x="476" y="663" on="1"/>
        <pt x="858" y="663" on="1"/>
        <pt x="854" y="630" on="1"/>
        <pt x="527" y="630" on="1"/>
        <pt x="495" y="364" on="1"/>
        <pt x="793" y="364" on="1"/>
        <pt x="789" y="331" on="1"/>
        <pt x="491" y="331" on="1"/>
        <pt x="455" y="33" on="1"/>
        <pt x="796" y="33" on="1"/>
        <pt x="792" y="0" on="1"/>
        <pt x="411" y="0" on="1"/>
        <pt x="433" y="181" on="1"/>
        <pt x="172" y="181" on="1"/>
        <pt x="51" y="10" on="1"/>
        <pt x="46" y="2" on="0"/>
        <pt x="41" y="0" on="0"/>
        <pt x="34" y="0" on="1"/>
        <pt x="-2" y="0" on="1"/>
      </contour>
      <contour>
        <pt x="486" y="620" on="1"/>
        <pt x="195" y="214" on="1"/>
        <pt x="436" y="214" on="1"/>
      </contour>
    </TTGlyph>
    <TTGlyph name="AEacute" xMin="-2" yMin="0" xMax="858" yMax="883">
      <component glyphName="AE" x="0" y="0" flags="0x204"/>
      <component glyphName="acute.cap" x="382" y="0" flags="0x4"/>
    </TTGlyph>
    <TTGlyph name="Aacute" xMin="6" yMin="0" xMax="587" yMax="883">
      <component glyphName="A" x="0" y="0" flags="0x204"/>
      <component glyphName="acute.cap" x="154" y="0" flags="0x4"/>
    </TTGlyph>
    <TTGlyph name="Abreve" xMin="6" yMin="0" xMax="587" yMax="841">
      <component glyphName="A" x="0" y="0" flags="0x204"/>
      <component glyphName="breve.cap" x="141" y="0" flags="0x4"/>
    </TTGlyph>
    <TTGlyph name="Acaron" xMin="6" yMin="0" xMax="587" yMax="870">
      <component glyphName="A" x="0" y="0" flags="0x204"/>
      <component glyphName="caron.cap" x="138" y="0" flags="0x4"/>
    </TTGlyph>
    <TTGlyph name="Acircumflex" xMin="6" yMin="0" xMax="587" yMax="859">
      <component glyphName="A" x="0" y="0" flags="0x204"/>
      <component glyphName="circumflex.cap" x="149" y="0" flags="0x4"/>
    </TTGlyph>
    <TTGlyph name="Adieresis" xMin="6" yMin="0" xMax="587" yMax="816">
      <component glyphName="A" x="0" y="0" flags="0x204"/>
      <component glyphName="dieresis.cap" x="146" y="0" flags="0x4"/>
    </TTGlyph>
    <TTGlyph name="Agrave" xMin="6" yMin="0" xMax="587" yMax="882">
      <component glyphName="A" x="0" y="0" flags="0x204"/>
      <component glyphName="grave.cap" x="125" y="0" flags="0x4"/>
    </TTGlyph>
    <TTGlyph name="Amacron" xMin="6" yMin="0" xMax="587" yMax="774">
      <component glyphName="A" x="0" y="0" flags="0x204"/>
      <component glyphName="macron.cap" x="152" y="0" flags="0x4"/>
    </TTGlyph>
    <TTGlyph name="Aogonek" xMin="6" yMin="-173" xMax="587" yMax="663">
      <contour>
        <pt x="584" y="0" on="1"/>
        <pt x="566" y="0" on="0"/>
        <pt x="524" y="-15" on="0"/>
        <pt x="489" y="-41" on="0"/>
        <pt x="465" y="-77" on="0"/>
        <pt x="465" y="-98" on="1"/>
        <pt x="465" y="-117" on="0"/>
        <pt x="488" y="-143" on="0"/>
        <pt x="515" y="-143" on="1"/>
        <pt x="520" y="-143" on="0"/>
        <pt x="535" y="-142" on="0"/>
        <pt x="542" y="-141" on="1"/>
        <pt x="573" y="-137" on="1"/>
        <pt x="577" y="-156" on="1"/>
        <pt x="566" y="-164" on="0"/>
        <pt x="525" y="-173" on="0"/>
        <pt x="507" y="-173" on="1"/>
        <pt x="465" y="-173" on="0"/>
        <pt x="425" y="-131" on="0"/>
        <pt x="425" y="-103" on="1"/>
        <pt x="425" y="-83" on="0"/>
        <pt x="444" y="-47" on="0"/>
        <pt x="477" y="-17" on="0"/>
        <pt x="520" y="6" on="0"/>
        <pt x="544" y="12" on="1"/>
        <pt x="494" y="182" on="1"/>
        <pt x="142" y="182" on="1"/>
        <pt x="50" y="7" on="1"/>
        <pt x="48" y="2" on="0"/>
        <pt x="43" y="0" on="0"/>
        <pt x="36" y="0" on="1"/>
        <pt x="6" y="0" on="1"/>
        <pt x="354" y="663" on="1"/>
        <pt x="380" y="663" on="1"/>
        <pt x="386" y="663" on="0"/>
        <pt x="389" y="661" on="0"/>
        <pt x="391" y="656" on="1"/>
        <pt x="587" y="0" on="1"/>
      </contour>
      <contour>
        <pt x="159" y="214" on="1"/>
        <pt x="484" y="214" on="1"/>
        <pt x="366" y="615" on="1"/>
      </contour>
    </TTGlyph>
    <TTGlyph name="Aring" xMin="6" yMin="0" xMax="587" yMax="825">
      <contour>
        <pt x="557" y="0" on="1"/>
        <pt x="547" y="0" on="0"/>
        <pt x="545" y="7" on="1"/>
        <pt x="494" y="182" on="1"/>
        <pt x="142" y="182" on="1"/>
        <pt x="50" y="7" on="1"/>
        <pt x="48" y="2" on="0"/>
        <pt x="43" y="0" on="0"/>
        <pt x="36" y="0" on="1"/>
        <pt x="6" y="0" on="1"/>
        <pt x="346" y="648" on="1"/>
        <pt x="320" y="657" on="0"/>
        <pt x="288" y="701" on="0"/>
        <pt x="288" y="729" on="1"/>
        <pt x="288" y="748" on="0"/>
        <pt x="303" y="783" on="0"/>
        <pt x="328" y="810" on="0"/>
        <pt x="363" y="825" on="0"/>
        <pt x="383" y="825" on="1"/>
        <pt x="422" y="825" on="0"/>
        <pt x="470" y="774" on="0"/>
        <pt x="470" y="739" on="1"/>
        <pt x="470" y="705" on="0"/>
        <pt x="428" y="652" on="0"/>
        <pt x="394" y="644" on="1"/>
        <pt x="587" y="0" on="1"/>
      </contour>
      <contour>
        <pt x="159" y="214" on="1"/>
        <pt x="484" y="214" on="1"/>
        <pt x="366" y="615" on="1"/>
      </contour>
      <contour>
        <pt x="436" y="737" on="1"/>
        <pt x="436" y="757" on="0"/>
        <pt x="408" y="793" on="0"/>
        <pt x="382" y="793" on="1"/>
        <pt x="358" y="793" on="0"/>
        <pt x="322" y="760" on="0"/>
        <pt x="322" y="731" on="1"/>
        <pt x="322" y="711" on="0"/>
        <pt x="350" y="675" on="0"/>
        <pt x="376" y="675" on="1"/>
        <pt x="400" y="675" on="0"/>
        <pt x="436" y="708" on="0"/>
      </contour>
    </TTGlyph>
    <TTGlyph name="Aringacute" xMin="6" yMin="0" xMax="587" yMax="999">
      <component glyphName="acute" x="186" y="306" flags="0x4"/>
      <component glyphName="Aring" x="0" y="0" flags="0x4"/>
    </TTGlyph>
    <TTGlyph name="Atilde" xMin="6" yMin="0" xMax="587" yMax="820">
      <component glyphName="A" x="0" y="0" flags="0x204"/>
      <component glyphName="tilde.cap" x="144" y="0" flags="0x4"/>
    </TTGlyph>
    <TTGlyph name="B" xMin="55" yMin="0" xMax="517" yMax="663">
      <contour>
        <pt x="135" y="663" on="1"/>
        <pt x="337" y="663" on="1"/>
        <pt x="385" y="663" on="0"/>
        <pt x="451" y="645" on="0"/>
        <pt x="472" y="625" on="1"/>
        <pt x="505" y="592" on="0"/>
        <pt x="505" y="536" on="1"/>
        <pt x="505" y="514" on="0"/>
        <pt x="491" y="465" on="0"/>
        <pt x="466" y="417" on="0"/>
        <pt x="432" y="371" on="0"/>
        <pt x="413" y="352" on="1"/>
        <pt x="413" y="351" on="1"/>
        <pt x="461" y="337" on="0"/>
        <pt x="517" y="266" on="0"/>
        <pt x="517" y="212" on="1"/>
        <pt x="517" y="167" on="0"/>
        <pt x="486" y="91" on="0"/>
        <pt x="457" y="63" on="1"/>
        <pt x="425" y="32" on="0"/>
        <pt x="331" y="0" on="0"/>
        <pt x="266" y="0" on="1"/>
        <pt x="55" y="0" on="1"/>
      </contour>
      <contour>
        <pt x="99" y="33" on="1"/>
        <pt x="259" y="33" on="1"/>
        <pt x="377" y="33" on="0"/>
        <pt x="428" y="83" on="1"/>
        <pt x="452" y="106" on="0"/>
        <pt x="477" y="173" on="0"/>
        <pt x="477" y="212" on="1"/>
        <pt x="477" y="269" on="0"/>
        <pt x="444" y="298" on="1"/>
        <pt x="406" y="330" on="0"/>
        <pt x="317" y="330" on="1"/>
        <pt x="135" y="330" on="1"/>
      </contour>
      <contour>
        <pt x="139" y="362" on="1"/>
        <pt x="358" y="362" on="1"/>
        <pt x="373" y="362" on="0"/>
        <pt x="391" y="369" on="0"/>
        <pt x="400" y="380" on="1"/>
        <pt x="431" y="418" on="0"/>
        <pt x="467" y="497" on="0"/>
        <pt x="467" y="535" on="1"/>
        <pt x="467" y="582" on="0"/>
        <pt x="440" y="605" on="1"/>
        <pt x="424" y="619" on="0"/>
        <pt x="373" y="630" on="0"/>
        <pt x="335" y="630" on="1"/>
        <pt x="171" y="630" on="1"/>
      </contour>
    </TTGlyph>
    <TTGlyph name="C" xMin="52" yMin="-10" xMax="617" yMax="673">
      <contour>
        <pt x="585" y="77" on="1"/>
        <pt x="527" y="39" on="0"/>
        <pt x="392" y="-10" on="0"/>
        <pt x="325" y="-10" on="1"/>
        <pt x="271" y="-10" on="0"/>
        <pt x="174" y="24" on="0"/>
        <pt x="140" y="56" on="1"/>
        <pt x="98" y="94" on="0"/>
        <pt x="52" y="210" on="0"/>
        <pt x="52" y="283" on="1"/>
        <pt x="52" y="358" on="0"/>
        <pt x="101" y="498" on="0"/>
        <pt x="188" y="607" on="0"/>
        <pt x="308" y="673" on="0"/>
        <pt x="379" y="673" on="1"/>
        <pt x="459" y="673" on="0"/>
        <pt x="585" y="583" on="0"/>
        <pt x="617" y="505" on="1"/>
        <pt x="591" y="494" on="1"/>
        <pt x="551" y="546" on="1"/>
        <pt x="515" y="593" on="0"/>
        <pt x="431" y="638" on="0"/>
        <pt x="377" y="638" on="1"/>
        <pt x="316" y="638" on="0"/>
        <pt x="212" y="581" on="0"/>
        <pt x="135" y="484" on="0"/>
        <pt x="92" y="355" on="0"/>
        <pt x="92" y="283" on="1"/>
        <pt x="92" y="222" on="0"/>
        <pt x="128" y="120" on="0"/>
        <pt x="163" y="86" on="1"/>
        <pt x="192" y="57" on="0"/>
        <pt x="274" y="26" on="0"/>
        <pt x="325" y="26" on="1"/>
        <pt x="370" y="26" on="0"/>
        <pt x="460" y="49" on="0"/>
        <pt x="508" y="70" on="1"/>
        <pt x="571" y="98" on="1"/>
      </contour>
    </TTGlyph>
    <TTGlyph name="Cacute" xMin="52" yMin="-10" xMax="617" yMax="883">
      <component glyphName="C" x="0" y="0" flags="0x204"/>
      <component glyphName="acute.cap" x="159" y="0" flags="0x4"/>
    </TTGlyph>
    <TTGlyph name="Ccaron" xMin="52" yMin="-10" xMax="617" yMax="870">
      <component glyphName="C" x="0" y="0" flags="0x204"/>
      <component glyphName="caron.cap" x="157" y="0" flags="0x4"/>
    </TTGlyph>
    <TTGlyph name="Ccedilla" xMin="52" yMin="-202" xMax="617" yMax="673">
      <contour>
        <pt x="585" y="77" on="1"/>
        <pt x="527" y="39" on="0"/>
        <pt x="392" y="-10" on="0"/>
        <pt x="325" y="-10" on="1"/>
        <pt x="320" y="-20" on="0"/>
        <pt x="320" y="-28" on="1"/>
        <pt x="320" y="-39" on="0"/>
        <pt x="350" y="-56" on="0"/>
        <pt x="387" y="-76" on="0"/>
        <pt x="417" y="-103" on="0"/>
        <pt x="417" y="-125" on="1"/>
        <pt x="417" y="-160" on="0"/>
        <pt x="336" y="-197" on="0"/>
        <pt x="258" y="-202" on="1"/>
        <pt x="253" y="-181" on="1"/>
        <pt x="326" y="-163" on="1"/>
        <pt x="353" y="-156" on="0"/>
        <pt x="382" y="-142" on="0"/>
        <pt x="382" y="-129" on="1"/>
        <pt x="382" y="-116" on="0"/>
        <pt x="352" y="-95" on="0"/>
        <pt x="315" y="-76" on="0"/>
        <pt x="285" y="-54" on="0"/>
        <pt x="285" y="-39" on="1"/>
        <pt x="285" y="-25" on="0"/>
        <pt x="296" y="-9" on="1"/>
        <pt x="250" y="-4" on="0"/>
        <pt x="169" y="28" on="0"/>
        <pt x="140" y="56" on="1"/>
        <pt x="98" y="94" on="0"/>
        <pt x="52" y="210" on="0"/>
        <pt x="52" y="283" on="1"/>
        <pt x="52" y="358" on="0"/>
        <pt x="101" y="498" on="0"/>
        <pt x="188" y="607" on="0"/>
        <pt x="308" y="673" on="0"/>
        <pt x="379" y="673" on="1"/>
        <pt x="459" y="673" on="0"/>
        <pt x="585" y="583" on="0"/>
        <pt x="617" y="505" on="1"/>
        <pt x="591" y="494" on="1"/>
        <pt x="551" y="546" on="1"/>
        <pt x="515" y="593" on="0"/>
        <pt x="431" y="638" on="0"/>
        <pt x="377" y="638" on="1"/>
        <pt x="316" y="638" on="0"/>
        <pt x="212" y="581" on="0"/>
        <pt x="135" y="484" on="0"/>
        <pt x="92" y="355" on="0"/>
        <pt x="92" y="283" on="1"/>
        <pt x="92" y="222" on="0"/>
        <pt x="128" y="120" on="0"/>
        <pt x="163" y="86" on="1"/>
        <pt x="192" y="57" on="0"/>
        <pt x="274" y="26" on="0"/>
        <pt x="325" y="26" on="1"/>
        <pt x="370" y="26" on="0"/>
        <pt x="460" y="49" on="0"/>
        <pt x="508" y="70" on="1"/>
        <pt x="571" y="98" on="1"/>
      </contour>
    </TTGlyph>
    <TTGlyph name="Ccircumflex" xMin="52" yMin="-10" xMax="617" yMax="859">
      <component glyphName="C" x="0" y="0" flags="0x204"/>
      <component glyphName="circumflex.cap" x="156" y="0" flags="0x4"/>
    </TTGlyph>
    <TTGlyph name="Cdotaccent" xMin="52" yMin="-10" xMax="617" yMax="811">
      <component glyphName="C" x="0" y="0" flags="0x204"/>
      <component glyphName="dotaccent.cap" x="160" y="0" flags="0x4"/>
    </TTGlyph>
    <TTGlyph name="D" xMin="55" yMin="0" xMax="632" yMax="663">
      <contour>
        <pt x="135" y="663" on="1"/>
        <pt x="322" y="663" on="1"/>
        <pt x="403" y="663" on="0"/>
        <pt x="525" y="629" on="0"/>
        <pt x="565" y="589" on="1"/>
        <pt x="597" y="556" on="0"/>
        <pt x="632" y="457" on="0"/>
        <pt x="632" y="393" on="1"/>
        <pt x="632" y="304" on="0"/>
        <pt x="574" y="156" on="0"/>
        <pt x="520" y="103" on="1"/>
        <pt x="469" y="54" on="0"/>
        <pt x="328" y="0" on="0"/>
        <pt x="228" y="0" on="1"/>
        <pt x="55" y="0" on="1"/>
      </contour>
      <contour>
        <pt x="212" y="34" on="1"/>
        <pt x="317" y="34" on="0"/>
        <pt x="447" y="81" on="0"/>
        <pt x="492" y="126" on="1"/>
        <pt x="540" y="174" on="0"/>
        <pt x="592" y="314" on="0"/>
        <pt x="592" y="393" on="1"/>
        <pt x="592" y="510" on="0"/>
        <pt x="535" y="567" on="1"/>
        <pt x="502" y="600" on="0"/>
        <pt x="395" y="629" on="0"/>
        <pt x="317" y="629" on="1"/>
        <pt x="171" y="629" on="1"/>
        <pt x="99" y="34" on="1"/>
      </contour>
    </TTGlyph>
    <TTGlyph name="Dcaron" xMin="55" yMin="0" xMax="632" yMax="870">
      <component glyphName="D" x="0" y="0" flags="0x204"/>
      <component glyphName="caron.cap" x="155" y="0" flags="0x4"/>
    </TTGlyph>
    <TTGlyph name="Dcroat" xMin="6" yMin="0" xMax="632" yMax="663">
      <contour>
        <pt x="6" y="326" on="1"/>
        <pt x="9" y="356" on="1"/>
        <pt x="98" y="356" on="1"/>
        <pt x="135" y="663" on="1"/>
        <pt x="322" y="663" on="1"/>
        <pt x="403" y="663" on="0"/>
        <pt x="525" y="629" on="0"/>
        <pt x="565" y="589" on="1"/>
        <pt x="597" y="556" on="0"/>
        <pt x="632" y="457" on="0"/>
        <pt x="632" y="393" on="1"/>
        <pt x="632" y="304" on="0"/>
        <pt x="574" y="156" on="0"/>
        <pt x="520" y="103" on="1"/>
        <pt x="469" y="54" on="0"/>
        <pt x="328" y="0" on="0"/>
        <pt x="228" y="0" on="1"/>
        <pt x="55" y="0" on="1"/>
        <pt x="94" y="326" on="1"/>
      </contour>
      <contour>
        <pt x="212" y="33" on="1"/>
        <pt x="317" y="33" on="0"/>
        <pt x="447" y="81" on="0"/>
        <pt x="492" y="126" on="1"/>
        <pt x="540" y="174" on="0"/>
        <pt x="592" y="314" on="0"/>
        <pt x="592" y="393" on="1"/>
        <pt x="592" y="510" on="0"/>
        <pt x="535" y="567" on="1"/>
        <pt x="502" y="600" on="0"/>
        <pt x="395" y="630" on="0"/>
        <pt x="317" y="630" on="1"/>
        <pt x="171" y="630" on="1"/>
        <pt x="138" y="356" on="1"/>
        <pt x="316" y="356" on="1"/>
        <pt x="313" y="326" on="1"/>
        <pt x="134" y="326" on="1"/>
        <pt x="99" y="33" on="1"/>
      </contour>
    </TTGlyph>
    <TTGlyph name="Delta" xMin="-3" yMin="0" xMax="548" yMax="663">
      <contour>
        <pt x="543" y="59" on="1"/>
        <pt x="547" y="46" on="0"/>
        <pt x="548" y="33" on="0"/>
        <pt x="547" y="24" on="1"/>
        <pt x="544" y="0" on="1"/>
        <pt x="-3" y="0" on="1"/>
        <pt x="0" y="25" on="1"/>
        <pt x="1" y="33" on="0"/>
        <pt x="5" y="44" on="0"/>
        <pt x="12" y="58" on="1"/>
        <pt x="327" y="663" on="1"/>
        <pt x="358" y="663" on="1"/>
        <pt x="365" y="663" on="0"/>
        <pt x="368" y="660" on="0"/>
        <pt x="370" y="655" on="1"/>
      </contour>
      <contour>
        <pt x="42" y="34" on="1"/>
        <pt x="510" y="34" on="1"/>
        <pt x="341" y="616" on="1"/>
      </contour>
    </TTGlyph>
    <TTGlyph name="E" xMin="55" yMin="0" xMax="502" yMax="663">
      <contour>
        <pt x="502" y="663" on="1"/>
        <pt x="498" y="630" on="1"/>
        <pt x="171" y="630" on="1"/>
        <pt x="139" y="364" on="1"/>
        <pt x="437" y="364" on="1"/>
        <pt x="433" y="331" on="1"/>
        <pt x="135" y="331" on="1"/>
        <pt x="99" y="33" on="1"/>
        <pt x="440" y="33" on="1"/>
        <pt x="436" y="0" on="1"/>
        <pt x="55" y="0" on="1"/>
        <pt x="135" y="663" on="1"/>
      </contour>
    </TTGlyph>
    <TTGlyph name="Eacute" xMin="55" yMin="0" xMax="502" yMax="883">
      <component glyphName="E" x="0" y="0" flags="0x204"/>
      <component glyphName="acute.cap" x="98" y="0" flags="0x4"/>
    </TTGlyph>
    <TTGlyph name="Ebreve" xMin="55" yMin="0" xMax="502" yMax="841">
      <component glyphName="E" x="0" y="0" flags="0x204"/>
      <component glyphName="breve.cap" x="91" y="0" flags="0x4"/>
    </TTGlyph>
    <TTGlyph name="Ecaron" xMin="55" yMin="0" xMax="502" yMax="870">
      <component glyphName="E" x="0" y="0" flags="0x204"/>
      <component glyphName="caron.cap" x="85" y="0" flags="0x4"/>
    </TTGlyph>
    <TTGlyph name="Ecircumflex" xMin="55" yMin="0" xMax="502" yMax="859">
      <component glyphName="E" x="0" y="0" flags="0x204"/>
      <component glyphName="circumflex.cap" x="92" y="0" flags="0x4"/>
    </TTGlyph>
    <TTGlyph name="Edieresis" xMin="55" yMin="0" xMax="502" yMax="816">
      <component glyphName="E" x="0" y="0" flags="0x204"/>
      <component glyphName="dieresis.cap" x="86" y="0" flags="0x4"/>
    </TTGlyph>
    <TTGlyph name="Edotaccent" xMin="55" yMin="0" xMax="502" yMax="811">
      <component glyphName="E" x="0" y="0" flags="0x204"/>
      <component glyphName="dotaccent.cap" x="101" y="0" flags="0x4"/>
    </TTGlyph>
    <TTGlyph name="Egrave" xMin="55" yMin="0" xMax="502" yMax="882">
      <component glyphName="E" x="0" y="0" flags="0x204"/>
      <component glyphName="grave.cap" x="84" y="0" flags="0x4"/>
    </TTGlyph>
    <TTGlyph name="Emacron" xMin="55" yMin="0" xMax="502" yMax="774">
      <component glyphName="E" x="0" y="0" flags="0x204"/>
      <component glyphName="macron.cap" x="96" y="0" flags="0x4"/>
    </TTGlyph>
    <TTGlyph name="Eng" xMin="55" yMin="-190" xMax="667" yMax="663">
      <contour>
        <pt x="402" y="-159" on="1"/>
        <pt x="436" y="-159" on="0"/>
        <pt x="486" y="-144" on="0"/>
        <pt x="520" y="-110" on="0"/>
        <pt x="541" y="-56" on="0"/>
        <pt x="546" y="-16" on="1"/>
        <pt x="549" y="8" on="1"/>
        <pt x="208" y="533" on="1"/>
        <pt x="194" y="555" on="0"/>
        <pt x="171" y="591" on="0"/>
        <pt x="163" y="605" on="1"/>
        <pt x="163" y="593" on="0"/>
        <pt x="159" y="546" on="0"/>
        <pt x="156" y="521" on="1"/>
        <pt x="93" y="0" on="1"/>
        <pt x="55" y="0" on="1"/>
        <pt x="135" y="663" on="1"/>
        <pt x="157" y="663" on="1"/>
        <pt x="163" y="663" on="0"/>
        <pt x="168" y="660" on="0"/>
        <pt x="172" y="655" on="1"/>
        <pt x="514" y="128" on="1"/>
        <pt x="528" y="106" on="0"/>
        <pt x="551" y="70" on="0"/>
        <pt x="559" y="56" on="1"/>
        <pt x="559" y="68" on="0"/>
        <pt x="563" y="114" on="0"/>
        <pt x="566" y="139" on="1"/>
        <pt x="629" y="663" on="1"/>
        <pt x="667" y="663" on="1"/>
        <pt x="584" y="-23" on="1"/>
        <pt x="579" y="-63" on="0"/>
        <pt x="555" y="-127" on="0"/>
        <pt x="531" y="-150" on="1"/>
        <pt x="511" y="-169" on="0"/>
        <pt x="451" y="-190" on="0"/>
        <pt x="410" y="-190" on="1"/>
        <pt x="390" y="-190" on="0"/>
        <pt x="343" y="-183" on="0"/>
        <pt x="327" y="-177" on="1"/>
        <pt x="334" y="-154" on="1"/>
        <pt x="351" y="-156" on="0"/>
        <pt x="389" y="-159" on="0"/>
      </contour>
    </TTGlyph>
    <TTGlyph name="Eogonek" xMin="55" yMin="-173" xMax="502" yMax="663">
      <contour>
        <pt x="267" y="-103" on="1"/>
        <pt x="267" y="-70" on="0"/>
        <pt x="315" y="-16" on="0"/>
        <pt x="350" y="0" on="1"/>
        <pt x="55" y="0" on="1"/>
        <pt x="135" y="663" on="1"/>
        <pt x="502" y="663" on="1"/>
        <pt x="498" y="630" on="1"/>
        <pt x="171" y="630" on="1"/>
        <pt x="139" y="364" on="1"/>
        <pt x="437" y="364" on="1"/>
        <pt x="433" y="331" on="1"/>
        <pt x="135" y="331" on="1"/>
        <pt x="99" y="33" on="1"/>
        <pt x="440" y="33" on="1"/>
        <pt x="436" y="0" on="1"/>
        <pt x="426" y="0" on="1"/>
        <pt x="408" y="0" on="0"/>
        <pt x="366" y="-15" on="0"/>
        <pt x="331" y="-41" on="0"/>
        <pt x="307" y="-77" on="0"/>
        <pt x="307" y="-98" on="1"/>
        <pt x="307" y="-117" on="0"/>
        <pt x="330" y="-143" on="0"/>
        <pt x="357" y="-143" on="1"/>
        <pt x="362" y="-143" on="0"/>
        <pt x="377" y="-142" on="0"/>
        <pt x="384" y="-141" on="1"/>
        <pt x="415" y="-137" on="1"/>
        <pt x="419" y="-156" on="1"/>
        <pt x="408" y="-164" on="0"/>
        <pt x="367" y="-173" on="0"/>
        <pt x="349" y="-173" on="1"/>
        <pt x="307" y="-173" on="0"/>
        <pt x="267" y="-131" on="0"/>
      </contour>
    </TTGlyph>
    <TTGlyph name="Eth" xMin="6" yMin="0" xMax="632" yMax="663">
      <contour>
        <pt x="6" y="326" on="1"/>
        <pt x="9" y="356" on="1"/>
        <pt x="98" y="356" on="1"/>
        <pt x="135" y="663" on="1"/>
        <pt x="322" y="663" on="1"/>
        <pt x="403" y="663" on="0"/>
        <pt x="525" y="629" on="0"/>
        <pt x="565" y="589" on="1"/>
        <pt x="597" y="556" on="0"/>
        <pt x="632" y="457" on="0"/>
        <pt x="632" y="393" on="1"/>
        <pt x="632" y="304" on="0"/>
        <pt x="574" y="156" on="0"/>
        <pt x="520" y="103" on="1"/>
        <pt x="469" y="54" on="0"/>
        <pt x="328" y="0" on="0"/>
        <pt x="228" y="0" on="1"/>
        <pt x="55" y="0" on="1"/>
        <pt x="94" y="326" on="1"/>
      </contour>
      <contour>
        <pt x="212" y="33" on="1"/>
        <pt x="317" y="33" on="0"/>
        <pt x="447" y="81" on="0"/>
        <pt x="492" y="126" on="1"/>
        <pt x="540" y="174" on="0"/>
        <pt x="592" y="314" on="0"/>
        <pt x="592" y="393" on="1"/>
        <pt x="592" y="510" on="0"/>
        <pt x="535" y="567" on="1"/>
        <pt x="502" y="600" on="0"/>
        <pt x="395" y="630" on="0"/>
        <pt x="317" y="630" on="1"/>
        <pt x="171" y="630" on="1"/>
        <pt x="138" y="356" on="1"/>
        <pt x="316" y="356" on="1"/>
        <pt x="313" y="326" on="1"/>
        <pt x="134" y="326" on="1"/>
        <pt x="99" y="33" on="1"/>
      </contour>
    </TTGlyph>
    <TTGlyph name="Euro" xMin="36" yMin="-10" xMax="565" yMax="673">
      <contour>
        <pt x="48" y="391" on="1"/>
        <pt x="132" y="399" on="1"/>
        <pt x="147" y="462" on="0"/>
        <pt x="199" y="564" on="0"/>
        <pt x="267" y="635" on="0"/>
        <pt x="348" y="673" on="0"/>
        <pt x="390" y="673" on="1"/>
        <pt x="446" y="673" on="0"/>
        <pt x="534" y="614" on="0"/>
        <pt x="565" y="557" on="1"/>
        <pt x="545" y="546" on="1"/>
        <pt x="498" y="589" on="1"/>
        <pt x="470" y="614" on="0"/>
        <pt x="421" y="640" on="0"/>
        <pt x="388" y="640" on="1"/>
        <pt x="350" y="640" on="0"/>
        <pt x="282" y="606" on="0"/>
        <pt x="227" y="543" on="0"/>
        <pt x="185" y="454" on="0"/>
        <pt x="172" y="400" on="1"/>
        <pt x="384" y="400" on="1"/>
        <pt x="380" y="369" on="1"/>
        <pt x="166" y="369" on="1"/>
        <pt x="162" y="349" on="0"/>
        <pt x="157" y="303" on="0"/>
        <pt x="156" y="284" on="1"/>
        <pt x="370" y="284" on="1"/>
        <pt x="366" y="253" on="1"/>
        <pt x="155" y="253" on="1"/>
        <pt x="156" y="145" on="0"/>
        <pt x="248" y="23" on="0"/>
        <pt x="329" y="23" on="1"/>
        <pt x="357" y="23" on="0"/>
        <pt x="425" y="41" on="0"/>
        <pt x="460" y="54" on="1"/>
        <pt x="502" y="69" on="1"/>
        <pt x="513" y="48" on="1"/>
        <pt x="467" y="22" on="0"/>
        <pt x="371" y="-10" on="0"/>
        <pt x="326" y="-10" on="1"/>
        <pt x="279" y="-10" on="0"/>
        <pt x="202" y="27" on="0"/>
        <pt x="147" y="95" on="0"/>
        <pt x="116" y="193" on="0"/>
        <pt x="116" y="253" on="1"/>
        <pt x="36" y="253" on="1"/>
        <pt x="38" y="275" on="1"/>
        <pt x="116" y="282" on="1"/>
        <pt x="117" y="296" on="0"/>
        <pt x="122" y="346" on="0"/>
        <pt x="126" y="369" on="1"/>
        <pt x="46" y="369" on="1"/>
      </contour>
    </TTGlyph>
    <TTGlyph name="Euro.lprop" xMin="35" yMin="-10" xMax="564" yMax="673">
      <contour>
        <pt x="47" y="391" on="1"/>
        <pt x="131" y="399" on="1"/>
        <pt x="146" y="462" on="0"/>
        <pt x="198" y="564" on="0"/>
        <pt x="266" y="635" on="0"/>
        <pt x="347" y="673" on="0"/>
        <pt x="389" y="673" on="1"/>
        <pt x="445" y="673" on="0"/>
        <pt x="533" y="614" on="0"/>
        <pt x="564" y="557" on="1"/>
        <pt x="544" y="546" on="1"/>
        <pt x="497" y="589" on="1"/>
        <pt x="469" y="614" on="0"/>
        <pt x="420" y="640" on="0"/>
        <pt x="387" y="640" on="1"/>
        <pt x="349" y="640" on="0"/>
        <pt x="281" y="606" on="0"/>
        <pt x="226" y="543" on="0"/>
        <pt x="184" y="454" on="0"/>
        <pt x="171" y="400" on="1"/>
        <pt x="383" y="400" on="1"/>
        <pt x="379" y="369" on="1"/>
        <pt x="165" y="369" on="1"/>
        <pt x="161" y="349" on="0"/>
        <pt x="156" y="303" on="0"/>
        <pt x="155" y="284" on="1"/>
        <pt x="369" y="284" on="1"/>
        <pt x="365" y="253" on="1"/>
        <pt x="154" y="253" on="1"/>
        <pt x="155" y="145" on="0"/>
        <pt x="247" y="23" on="0"/>
        <pt x="328" y="23" on="1"/>
        <pt x="356" y="23" on="0"/>
        <pt x="424" y="41" on="0"/>
        <pt x="459" y="54" on="1"/>
        <pt x="501" y="69" on="1"/>
        <pt x="512" y="48" on="1"/>
        <pt x="466" y="22" on="0"/>
        <pt x="370" y="-10" on="0"/>
        <pt x="325" y="-10" on="1"/>
        <pt x="278" y="-10" on="0"/>
        <pt x="201" y="27" on="0"/>
        <pt x="146" y="95" on="0"/>
        <pt x="115" y="193" on="0"/>
        <pt x="115" y="253" on="1"/>
        <pt x="35" y="253" on="1"/>
        <pt x="37" y="275" on="1"/>
        <pt x="115" y="282" on="1"/>
        <pt x="116" y="296" on="0"/>
        <pt x="121" y="346" on="0"/>
        <pt x="125" y="369" on="1"/>
        <pt x="45" y="369" on="1"/>
      </contour>
    </TTGlyph>
    <TTGlyph name="Euro.oprop" xMin="28" yMin="-8" xMax="506" yMax="496">
      <component glyphName="Euro.otab" x="-10" y="0" flags="0x4"/>
    </TTGlyph>
    <TTGlyph name="Euro.otab" xMin="38" yMin="-8" xMax="516" yMax="496">
      <contour>
        <pt x="486" y="78" on="1"/>
        <pt x="498" y="59" on="1"/>
        <pt x="450" y="29" on="0"/>
        <pt x="349" y="-8" on="0"/>
        <pt x="299" y="-8" on="1"/>
        <pt x="255" y="-8" on="0"/>
        <pt x="186" y="21" on="0"/>
        <pt x="137" y="73" on="0"/>
        <pt x="109" y="143" on="0"/>
        <pt x="106" y="185" on="1"/>
        <pt x="38" y="185" on="1"/>
        <pt x="42" y="205" on="1"/>
        <pt x="105" y="211" on="1"/>
        <pt x="105" y="225" on="0"/>
        <pt x="108" y="253" on="0"/>
        <pt x="110" y="267" on="1"/>
        <pt x="48" y="267" on="1"/>
        <pt x="52" y="287" on="1"/>
        <pt x="115" y="293" on="1"/>
        <pt x="126" y="335" on="0"/>
        <pt x="167" y="408" on="0"/>
        <pt x="226" y="464" on="0"/>
        <pt x="299" y="496" on="0"/>
        <pt x="341" y="496" on="1"/>
        <pt x="404" y="496" on="0"/>
        <pt x="491" y="425" on="0"/>
        <pt x="516" y="371" on="1"/>
        <pt x="493" y="359" on="1"/>
        <pt x="471" y="385" on="1"/>
        <pt x="454" y="406" on="0"/>
        <pt x="424" y="435" on="0"/>
        <pt x="393" y="454" on="0"/>
        <pt x="358" y="463" on="0"/>
        <pt x="337" y="463" on="1"/>
        <pt x="307" y="463" on="0"/>
        <pt x="250" y="440" on="0"/>
        <pt x="202" y="396" on="0"/>
        <pt x="165" y="335" on="0"/>
        <pt x="155" y="296" on="1"/>
        <pt x="373" y="296" on="1"/>
        <pt x="370" y="267" on="1"/>
        <pt x="150" y="267" on="1"/>
        <pt x="145" y="239" on="0"/>
        <pt x="145" y="214" on="1"/>
        <pt x="363" y="214" on="1"/>
        <pt x="360" y="185" on="1"/>
        <pt x="146" y="185" on="1"/>
        <pt x="151" y="113" on="0"/>
        <pt x="229" y="25" on="0"/>
        <pt x="301" y="25" on="1"/>
        <pt x="330" y="25" on="0"/>
        <pt x="389" y="41" on="0"/>
        <pt x="429" y="56" on="1"/>
      </contour>
    </TTGlyph>
    <TTGlyph name="F" xMin="55" yMin="0" xMax="502" yMax="663">
      <contour>
        <pt x="502" y="663" on="1"/>
        <pt x="498" y="630" on="1"/>
        <pt x="171" y="630" on="1"/>
        <pt x="139" y="364" on="1"/>
        <pt x="437" y="364" on="1"/>
        <pt x="433" y="331" on="1"/>
        <pt x="135" y="331" on="1"/>
        <pt x="95" y="0" on="1"/>
        <pt x="55" y="0" on="1"/>
        <pt x="135" y="663" on="1"/>
      </contour>
    </TTGlyph>
    <TTGlyph name="G" xMin="52" yMin="-10" xMax="642" yMax="673">
      <contour>
        <pt x="459" y="277" on="1"/>
        <pt x="463" y="309" on="1"/>
        <pt x="620" y="309" on="1"/>
        <pt x="628" y="309" on="0"/>
        <pt x="632" y="304" on="0"/>
        <pt x="631" y="298" on="1"/>
        <pt x="595" y="0" on="1"/>
        <pt x="570" y="0" on="1"/>
        <pt x="565" y="63" on="1"/>
        <pt x="536" y="48" on="1"/>
        <pt x="482" y="20" on="0"/>
        <pt x="381" y="-10" on="0"/>
        <pt x="327" y="-10" on="1"/>
        <pt x="271" y="-10" on="0"/>
        <pt x="175" y="27" on="0"/>
        <pt x="142" y="58" on="1"/>
        <pt x="97" y="100" on="0"/>
        <pt x="52" y="220" on="0"/>
        <pt x="52" y="289" on="1"/>
        <pt x="52" y="366" on="0"/>
        <pt x="102" y="506" on="0"/>
        <pt x="192" y="611" on="0"/>
        <pt x="317" y="673" on="0"/>
        <pt x="392" y="673" on="1"/>
        <pt x="474" y="673" on="0"/>
        <pt x="600" y="587" on="0"/>
        <pt x="642" y="506" on="1"/>
        <pt x="617" y="493" on="1"/>
        <pt x="569" y="550" on="1"/>
        <pt x="531" y="595" on="0"/>
        <pt x="448" y="638" on="0"/>
        <pt x="388" y="638" on="1"/>
        <pt x="325" y="638" on="0"/>
        <pt x="217" y="586" on="0"/>
        <pt x="138" y="493" on="0"/>
        <pt x="92" y="364" on="0"/>
        <pt x="92" y="287" on="1"/>
        <pt x="92" y="224" on="0"/>
        <pt x="129" y="124" on="0"/>
        <pt x="164" y="89" on="1"/>
        <pt x="194" y="59" on="0"/>
        <pt x="280" y="25" on="0"/>
        <pt x="334" y="25" on="1"/>
        <pt x="359" y="25" on="0"/>
        <pt x="417" y="35" on="0"/>
        <pt x="475" y="53" on="0"/>
        <pt x="531" y="77" on="0"/>
        <pt x="555" y="91" on="1"/>
        <pt x="563" y="96" on="0"/>
        <pt x="568" y="102" on="0"/>
        <pt x="569" y="108" on="1"/>
        <pt x="589" y="277" on="1"/>
      </contour>
    </TTGlyph>
    <TTGlyph name="Gbreve" xMin="52" yMin="-10" xMax="642" yMax="841">
      <component glyphName="G" x="0" y="0" flags="0x204"/>
      <component glyphName="breve.cap" x="169" y="0" flags="0x4"/>
    </TTGlyph>
    <TTGlyph name="Gcircumflex" xMin="52" yMin="-10" xMax="642" yMax="859">
      <component glyphName="G" x="0" y="0" flags="0x204"/>
      <component glyphName="circumflex.cap" x="172" y="0" flags="0x4"/>
    </TTGlyph>
    <TTGlyph name="Gcommaaccent" xMin="52" yMin="-243" xMax="642" yMax="673">
      <component glyphName="G" x="0" y="0" flags="0x204"/>
      <component glyphName="commaaccent" x="177" y="0" flags="0x4"/>
    </TTGlyph>
    <TTGlyph name="Gdotaccent" xMin="52" yMin="-10" xMax="642" yMax="811">
      <component glyphName="G" x="0" y="0" flags="0x204"/>
      <component glyphName="dotaccent.cap" x="176" y="0" flags="0x4"/>
    </TTGlyph>
    <TTGlyph name="H" xMin="55" yMin="0" xMax="626" yMax="663">
      <contour>
        <pt x="55" y="0" on="1"/>
        <pt x="135" y="663" on="1"/>
        <pt x="175" y="663" on="1"/>
        <pt x="139" y="364" on="1"/>
        <pt x="550" y="364" on="1"/>
        <pt x="586" y="663" on="1"/>
        <pt x="626" y="663" on="1"/>
        <pt x="546" y="0" on="1"/>
        <pt x="506" y="0" on="1"/>
        <pt x="546" y="330" on="1"/>
        <pt x="135" y="330" on="1"/>
        <pt x="95" y="0" on="1"/>
      </contour>
    </TTGlyph>
    <TTGlyph name="Hbar" xMin="60" yMin="0" xMax="695" yMax="663">
      <contour>
        <pt x="67" y="0" on="1"/>
        <pt x="130" y="526" on="1"/>
        <pt x="60" y="526" on="1"/>
        <pt x="63" y="556" on="1"/>
        <pt x="134" y="556" on="1"/>
        <pt x="147" y="663" on="1"/>
        <pt x="187" y="663" on="1"/>
        <pt x="174" y="556" on="1"/>
        <pt x="585" y="556" on="1"/>
        <pt x="598" y="663" on="1"/>
        <pt x="638" y="663" on="1"/>
        <pt x="625" y="556" on="1"/>
        <pt x="695" y="556" on="1"/>
        <pt x="692" y="526" on="1"/>
        <pt x="621" y="526" on="1"/>
        <pt x="558" y="0" on="1"/>
        <pt x="518" y="0" on="1"/>
        <pt x="557" y="330" on="1"/>
        <pt x="146" y="330" on="1"/>
        <pt x="107" y="0" on="1"/>
      </contour>
      <contour>
        <pt x="562" y="364" on="1"/>
        <pt x="581" y="526" on="1"/>
        <pt x="170" y="526" on="1"/>
        <pt x="151" y="364" on="1"/>
      </contour>
    </TTGlyph>
    <TTGlyph name="Hcircumflex" xMin="55" yMin="0" xMax="626" yMax="859">
      <component glyphName="H" x="0" y="0" flags="0x204"/>
      <component glyphName="circumflex.cap" x="152" y="0" flags="0x4"/>
    </TTGlyph>
    <TTGlyph name="I" xMin="57" yMin="0" xMax="177" yMax="663">
      <contour>
        <pt x="97" y="0" on="1"/>
        <pt x="57" y="0" on="1"/>
        <pt x="137" y="663" on="1"/>
        <pt x="177" y="663" on="1"/>
      </contour>
    </TTGlyph>
    <TTGlyph name="IJ" xMin="57" yMin="-10" xMax="616" yMax="663">
      <component glyphName="I" x="0" y="0" flags="0x4"/>
      <component glyphName="J" x="203" y="0" flags="0x4"/>
    </TTGlyph>
    <TTGlyph name="Iacute" xMin="57" yMin="0" xMax="314" yMax="883">
      <component glyphName="I" x="0" y="0" flags="0x204"/>
      <component glyphName="acute.cap" x="-53" y="0" flags="0x4"/>
    </TTGlyph>
    <TTGlyph name="Ibreve" xMin="42" yMin="0" xMax="312" yMax="841">
      <component glyphName="I" x="0" y="0" flags="0x204"/>
      <component glyphName="breve.cap" x="-75" y="0" flags="0x4"/>
    </TTGlyph>
    <TTGlyph name="Icircumflex" xMin="18" yMin="0" xMax="306" yMax="859">
      <component glyphName="I" x="-2" y="0" flags="0x4"/>
      <component glyphName="circumflex.cap" x="-70" y="0" flags="0x4"/>
    </TTGlyph>
    <TTGlyph name="Idieresis" xMin="55" yMin="0" xMax="287" yMax="816">
      <component glyphName="I" x="0" y="0" flags="0x204"/>
      <component glyphName="dieresis.cap" x="-71" y="0" flags="0x4"/>
    </TTGlyph>
    <TTGlyph name="Idotaccent" xMin="57" yMin="0" xMax="209" yMax="811">
      <component glyphName="I" x="0" y="0" flags="0x204"/>
      <component glyphName="dotaccent.cap" x="-62" y="0" flags="0x4"/>
    </TTGlyph>
    <TTGlyph name="Igrave" xMin="49" yMin="0" xMax="256" yMax="882">
      <component glyphName="I" x="0" y="0" flags="0x204"/>
      <component glyphName="grave.cap" x="-89" y="0" flags="0x4"/>
    </TTGlyph>
    <TTGlyph name="Imacron" xMin="32" yMin="0" xMax="303" yMax="774">
      <component glyphName="I" x="-1" y="0" flags="0x4"/>
      <component glyphName="macron.cap" x="-64" y="0" flags="0x4"/>
    </TTGlyph>
    <TTGlyph name="Iogonek" xMin="-23" yMin="-173" xMax="177" yMax="663">
      <contour>
        <pt x="97" y="0" on="1"/>
        <pt x="82" y="-6" on="0"/>
        <pt x="53" y="-27" on="0"/>
        <pt x="30" y="-53" on="0"/>
        <pt x="17" y="-83" on="0"/>
        <pt x="17" y="-98" on="1"/>
        <pt x="17" y="-117" on="0"/>
        <pt x="40" y="-143" on="0"/>
        <pt x="67" y="-143" on="1"/>
        <pt x="72" y="-143" on="0"/>
        <pt x="87" y="-142" on="0"/>
        <pt x="94" y="-141" on="1"/>
        <pt x="125" y="-137" on="1"/>
        <pt x="129" y="-156" on="1"/>
        <pt x="118" y="-164" on="0"/>
        <pt x="77" y="-173" on="0"/>
        <pt x="59" y="-173" on="1"/>
        <pt x="17" y="-173" on="0"/>
        <pt x="-23" y="-131" on="0"/>
        <pt x="-23" y="-103" on="1"/>
        <pt x="-23" y="-70" on="0"/>
        <pt x="24" y="-15" on="0"/>
        <pt x="57" y="2" on="1"/>
        <pt x="137" y="663" on="1"/>
        <pt x="177" y="663" on="1"/>
      </contour>
    </TTGlyph>
    <TTGlyph name="Itilde" xMin="22" yMin="0" xMax="315" yMax="820">
      <component glyphName="I" x="-1" y="0" flags="0x4"/>
      <component glyphName="tilde.cap" x="-73" y="0" flags="0x4"/>
    </TTGlyph>
    <TTGlyph name="J" xMin="-6" yMin="-10" xMax="413" yMax="663">
      <contour>
        <pt x="4" y="50" on="1"/>
        <pt x="43" y="41" on="1"/>
        <pt x="76" y="33" on="0"/>
        <pt x="137" y="24" on="0"/>
        <pt x="162" y="24" on="1"/>
        <pt x="231" y="24" on="0"/>
        <pt x="267" y="62" on="1"/>
        <pt x="306" y="104" on="0"/>
        <pt x="318" y="202" on="1"/>
        <pt x="373" y="663" on="1"/>
        <pt x="413" y="663" on="1"/>
        <pt x="357" y="199" on="1"/>
        <pt x="350" y="144" on="0"/>
        <pt x="322" y="66" on="0"/>
        <pt x="295" y="39" on="1"/>
        <pt x="272" y="16" on="0"/>
        <pt x="206" y="-10" on="0"/>
        <pt x="163" y="-10" on="1"/>
        <pt x="125" y="-10" on="0"/>
        <pt x="34" y="11" on="0"/>
        <pt x="-6" y="27" on="1"/>
      </contour>
    </TTGlyph>
    <TTGlyph name="Jcircumflex" xMin="-6" yMin="-10" xMax="543" yMax="859">
      <component glyphName="J" x="0" y="0" flags="0x4"/>
      <component glyphName="circumflex.cap" x="167" y="0" flags="0x4"/>
    </TTGlyph>
    <TTGlyph name="K" xMin="55" yMin="0" xMax="591" yMax="665">
      <contour>
        <pt x="316" y="400" on="1"/>
        <pt x="546" y="0" on="1"/>
        <pt x="515" y="0" on="1"/>
        <pt x="507" y="0" on="0"/>
        <pt x="501" y="4" on="0"/>
        <pt x="498" y="9" on="1"/>
        <pt x="288" y="376" on="1"/>
        <pt x="267" y="358" on="0"/>
        <pt x="217" y="317" on="0"/>
        <pt x="171" y="280" on="0"/>
        <pt x="134" y="250" on="0"/>
        <pt x="124" y="243" on="1"/>
        <pt x="95" y="0" on="1"/>
        <pt x="55" y="0" on="1"/>
        <pt x="135" y="663" on="1"/>
        <pt x="175" y="663" on="1"/>
        <pt x="129" y="282" on="1"/>
        <pt x="569" y="665" on="1"/>
        <pt x="591" y="641" on="1"/>
      </contour>
    </TTGlyph>
    <TTGlyph name="Kcommaaccent" xMin="55" yMin="-243" xMax="591" yMax="665">
      <component glyphName="K" x="0" y="0" flags="0x204"/>
      <component glyphName="commaaccent" x="117" y="0" flags="0x4"/>
    </TTGlyph>
    <TTGlyph name="L" xMin="55" yMin="0" xMax="427" yMax="663">
      <contour>
        <pt x="99" y="33" on="1"/>
        <pt x="427" y="33" on="1"/>
        <pt x="423" y="0" on="1"/>
        <pt x="55" y="0" on="1"/>
        <pt x="135" y="663" on="1"/>
        <pt x="175" y="663" on="1"/>
      </contour>
    </TTGlyph>
    <TTGlyph name="Lacute" xMin="55" yMin="0" xMax="427" yMax="883">
      <component glyphName="L" x="0" y="0" flags="0x204"/>
      <component glyphName="acute.cap" x="-45" y="0" flags="0x4"/>
    </TTGlyph>
    <TTGlyph name="Lcaron" xMin="55" yMin="0" xMax="427" yMax="663">
      <component glyphName="L" x="0" y="0" flags="0x204"/>
      <component glyphName="commaaccent" x="196" y="721" flags="0x4"/>
    </TTGlyph>
    <TTGlyph name="Lcommaaccent" xMin="55" yMin="-243" xMax="427" yMax="663">
      <component glyphName="L" x="0" y="0" flags="0x204"/>
      <component glyphName="commaaccent" x="79" y="0" flags="0x4"/>
    </TTGlyph>
    <TTGlyph name="Ldot" xMin="55" yMin="0" xMax="427" yMax="663">
      <component glyphName="L" x="0" y="0" flags="0x204"/>
      <component glyphName="dotaccent" x="120" y="-259" flags="0x4"/>
    </TTGlyph>
    <TTGlyph name="Lslash" xMin="9" yMin="0" xMax="457" yMax="663">
      <contour>
        <pt x="26" y="231" on="1"/>
        <pt x="9" y="258" on="1"/>
        <pt x="125" y="333" on="1"/>
        <pt x="165" y="663" on="1"/>
        <pt x="205" y="663" on="1"/>
        <pt x="169" y="361" on="1"/>
        <pt x="357" y="482" on="1"/>
        <pt x="374" y="455" on="1"/>
        <pt x="163" y="319" on="1"/>
        <pt x="129" y="33" on="1"/>
        <pt x="457" y="33" on="1"/>
        <pt x="453" y="0" on="1"/>
        <pt x="85" y="0" on="1"/>
        <pt x="120" y="292" on="1"/>
      </contour>
    </TTGlyph>
    <TTGlyph name="M" xMin="55" yMin="0" xMax="754" yMax="663">
      <contour>
        <pt x="386" y="227" on="1"/>
        <pt x="378" y="227" on="0"/>
        <pt x="372" y="231" on="0"/>
        <pt x="369" y="236" on="1"/>
        <pt x="216" y="511" on="1"/>
        <pt x="202" y="537" on="0"/>
        <pt x="170" y="595" on="0"/>
        <pt x="165" y="609" on="1"/>
        <pt x="164" y="597" on="0"/>
        <pt x="159" y="543" on="0"/>
        <pt x="155" y="514" on="1"/>
        <pt x="93" y="0" on="1"/>
        <pt x="55" y="0" on="1"/>
        <pt x="135" y="663" on="1"/>
        <pt x="162" y="663" on="1"/>
        <pt x="169" y="663" on="0"/>
        <pt x="174" y="661" on="0"/>
        <pt x="177" y="656" on="1"/>
        <pt x="394" y="263" on="1"/>
        <pt x="711" y="656" on="1"/>
        <pt x="717" y="663" on="0"/>
        <pt x="728" y="663" on="1"/>
        <pt x="754" y="663" on="1"/>
        <pt x="674" y="0" on="1"/>
        <pt x="636" y="0" on="1"/>
        <pt x="698" y="513" on="1"/>
        <pt x="701" y="536" on="0"/>
        <pt x="709" y="594" on="0"/>
        <pt x="712" y="609" on="1"/>
        <pt x="707" y="603" on="0"/>
        <pt x="689" y="579" on="0"/>
        <pt x="666" y="551" on="0"/>
        <pt x="644" y="522" on="0"/>
        <pt x="635" y="511" on="1"/>
        <pt x="406" y="227" on="1"/>
      </contour>
    </TTGlyph>
    <TTGlyph name="N" xMin="55" yMin="0" xMax="667" yMax="663">
      <contour>
        <pt x="559" y="54" on="1"/>
        <pt x="559" y="66" on="0"/>
        <pt x="563" y="111" on="0"/>
        <pt x="566" y="139" on="1"/>
        <pt x="629" y="663" on="1"/>
        <pt x="667" y="663" on="1"/>
        <pt x="587" y="0" on="1"/>
        <pt x="563" y="0" on="1"/>
        <pt x="555" y="0" on="0"/>
        <pt x="550" y="8" on="1"/>
        <pt x="222" y="513" on="1"/>
        <pt x="205" y="539" on="0"/>
        <pt x="173" y="591" on="0"/>
        <pt x="163" y="609" on="1"/>
        <pt x="163" y="603" on="0"/>
        <pt x="162" y="582" on="0"/>
        <pt x="160" y="557" on="0"/>
        <pt x="157" y="531" on="0"/>
        <pt x="156" y="521" on="1"/>
        <pt x="93" y="0" on="1"/>
        <pt x="55" y="0" on="1"/>
        <pt x="135" y="663" on="1"/>
        <pt x="156" y="663" on="1"/>
        <pt x="162" y="663" on="0"/>
        <pt x="167" y="660" on="0"/>
        <pt x="171" y="655" on="1"/>
        <pt x="500" y="150" on="1"/>
        <pt x="517" y="123" on="0"/>
        <pt x="549" y="72" on="0"/>
      </contour>
    </TTGlyph>
    <TTGlyph name="Nacute" xMin="55" yMin="0" xMax="667" yMax="883">
      <component glyphName="N" x="0" y="0" flags="0x204"/>
      <component glyphName="acute.cap" x="175" y="0" flags="0x4"/>
    </TTGlyph>
    <TTGlyph name="Ncaron" xMin="55" yMin="0" xMax="667" yMax="870">
      <component glyphName="N" x="0" y="0" flags="0x204"/>
      <component glyphName="caron.cap" x="165" y="0" flags="0x4"/>
    </TTGlyph>
    <TTGlyph name="Ncommaaccent" xMin="55" yMin="-243" xMax="667" yMax="663">
      <component glyphName="N" x="0" y="0" flags="0x204"/>
      <component glyphName="commaaccent" x="171" y="0" flags="0x4"/>
    </TTGlyph>
    <TTGlyph name="Ntilde" xMin="55" yMin="0" xMax="667" yMax="820">
      <component glyphName="N" x="0" y="0" flags="0x204"/>
      <component glyphName="tilde.cap" x="168" y="0" flags="0x4"/>
    </TTGlyph>
    <TTGlyph name="O" xMin="52" yMin="-10" xMax="666" yMax="673">
      <contour>
        <pt x="666" y="368" on="1"/>
        <pt x="666" y="296" on="0"/>
        <pt x="617" y="159" on="0"/>
        <pt x="529" y="54" on="0"/>
        <pt x="403" y="-10" on="0"/>
        <pt x="327" y="-10" on="1"/>
        <pt x="268" y="-10" on="0"/>
        <pt x="167" y="37" on="0"/>
        <pt x="93" y="119" on="0"/>
        <pt x="52" y="230" on="0"/>
        <pt x="52" y="295" on="1"/>
        <pt x="52" y="367" on="0"/>
        <pt x="101" y="504" on="0"/>
        <pt x="189" y="609" on="0"/>
        <pt x="314" y="673" on="0"/>
        <pt x="391" y="673" on="1"/>
        <pt x="450" y="673" on="0"/>
        <pt x="551" y="626" on="0"/>
        <pt x="624" y="544" on="0"/>
        <pt x="666" y="432" on="0"/>
      </contour>
      <contour>
        <pt x="626" y="365" on="1"/>
        <pt x="626" y="425" on="0"/>
        <pt x="591" y="524" on="0"/>
        <pt x="528" y="596" on="0"/>
        <pt x="440" y="636" on="0"/>
        <pt x="386" y="636" on="1"/>
        <pt x="318" y="636" on="0"/>
        <pt x="210" y="580" on="0"/>
        <pt x="133" y="486" on="0"/>
        <pt x="92" y="364" on="0"/>
        <pt x="92" y="298" on="1"/>
        <pt x="92" y="238" on="0"/>
        <pt x="126" y="139" on="0"/>
        <pt x="189" y="67" on="0"/>
        <pt x="278" y="27" on="0"/>
        <pt x="332" y="27" on="1"/>
        <pt x="399" y="27" on="0"/>
        <pt x="508" y="83" on="0"/>
        <pt x="585" y="177" on="0"/>
        <pt x="626" y="299" on="0"/>
      </contour>
    </TTGlyph>
    <TTGlyph name="OE" xMin="52" yMin="-10" xMax="1031" yMax="673">
      <contour>
        <pt x="1031" y="663" on="1"/>
        <pt x="1027" y="630" on="1"/>
        <pt x="700" y="630" on="1"/>
        <pt x="668" y="364" on="1"/>
        <pt x="966" y="364" on="1"/>
        <pt x="962" y="331" on="1"/>
        <pt x="664" y="331" on="1"/>
        <pt x="628" y="33" on="1"/>
        <pt x="969" y="33" on="1"/>
        <pt x="965" y="0" on="1"/>
        <pt x="584" y="0" on="1"/>
        <pt x="601" y="146" on="1"/>
        <pt x="556" y="77" on="0"/>
        <pt x="417" y="-10" on="0"/>
        <pt x="327" y="-10" on="1"/>
        <pt x="268" y="-10" on="0"/>
        <pt x="167" y="37" on="0"/>
        <pt x="93" y="119" on="0"/>
        <pt x="52" y="230" on="0"/>
        <pt x="52" y="295" on="1"/>
        <pt x="52" y="367" on="0"/>
        <pt x="101" y="504" on="0"/>
        <pt x="189" y="609" on="0"/>
        <pt x="314" y="673" on="0"/>
        <pt x="391" y="673" on="1"/>
        <pt x="434" y="673" on="0"/>
        <pt x="513" y="647" on="0"/>
        <pt x="578" y="599" on="0"/>
        <pt x="628" y="532" on="0"/>
        <pt x="643" y="492" on="1"/>
        <pt x="664" y="663" on="1"/>
      </contour>
      <contour>
        <pt x="624" y="365" on="1"/>
        <pt x="624" y="425" on="0"/>
        <pt x="590" y="524" on="0"/>
        <pt x="528" y="596" on="0"/>
        <pt x="440" y="636" on="0"/>
        <pt x="386" y="636" on="1"/>
        <pt x="318" y="636" on="0"/>
        <pt x="210" y="580" on="0"/>
        <pt x="133" y="486" on="0"/>
        <pt x="92" y="364" on="0"/>
        <pt x="92" y="298" on="1"/>
        <pt x="92" y="238" on="0"/>
        <pt x="126" y="139" on="0"/>
        <pt x="189" y="67" on="0"/>
        <pt x="278" y="27" on="0"/>
        <pt x="332" y="27" on="1"/>
        <pt x="399" y="27" on="0"/>
        <pt x="508" y="83" on="0"/>
        <pt x="583" y="177" on="0"/>
        <pt x="624" y="299" on="0"/>
      </contour>
    </TTGlyph>
    <TTGlyph name="Oacute" xMin="52" yMin="-10" xMax="666" yMax="883">
      <component glyphName="O" x="0" y="0" flags="0x204"/>
      <component glyphName="acute.cap" x="162" y="0" flags="0x4"/>
    </TTGlyph>
    <TTGlyph name="Obreve" xMin="52" yMin="-10" xMax="666" yMax="841">
      <component glyphName="O" x="0" y="0" flags="0x204"/>
      <component glyphName="breve.cap" x="159" y="0" flags="0x4"/>
    </TTGlyph>
    <TTGlyph name="Ocircumflex" xMin="52" yMin="-10" xMax="666" yMax="859">
      <component glyphName="O" x="0" y="0" flags="0x204"/>
      <component glyphName="circumflex.cap" x="167" y="0" flags="0x4"/>
    </TTGlyph>
    <TTGlyph name="Odieresis" xMin="52" yMin="-10" xMax="666" yMax="816">
      <component glyphName="O" x="0" y="0" flags="0x204"/>
      <component glyphName="dieresis.cap" x="161" y="0" flags="0x4"/>
    </TTGlyph>
    <TTGlyph name="Ograve" xMin="52" yMin="-10" xMax="666" yMax="882">
      <component glyphName="O" x="0" y="0" flags="0x204"/>
      <component glyphName="grave.cap" x="167" y="0" flags="0x4"/>
    </TTGlyph>
    <TTGlyph name="Ohungarumlaut" xMin="52" yMin="-10" xMax="666" yMax="904">
      <component glyphName="O" x="0" y="0" flags="0x204"/>
      <component glyphName="hungarumlaut.cap" x="159" y="0" flags="0x4"/>
    </TTGlyph>
    <TTGlyph name="Omacron" xMin="52" yMin="-10" xMax="666" yMax="774">
      <component glyphName="O" x="0" y="0" flags="0x204"/>
      <component glyphName="macron.cap" x="169" y="0" flags="0x4"/>
    </TTGlyph>
    <TTGlyph name="Omega" xMin="60" yMin="0" xMax="632" yMax="673">
      <contour>
        <pt x="360" y="0" on="1"/>
        <pt x="362" y="16" on="1"/>
        <pt x="364" y="26" on="0"/>
        <pt x="367" y="34" on="0"/>
        <pt x="375" y="43" on="1"/>
        <pt x="452" y="134" on="1"/>
        <pt x="518" y="212" on="0"/>
        <pt x="593" y="349" on="0"/>
        <pt x="593" y="425" on="1"/>
        <pt x="593" y="474" on="0"/>
        <pt x="561" y="553" on="0"/>
        <pt x="503" y="609" on="0"/>
        <pt x="423" y="638" on="0"/>
        <pt x="376" y="638" on="1"/>
        <pt x="321" y="638" on="0"/>
        <pt x="227" y="596" on="0"/>
        <pt x="158" y="523" on="0"/>
        <pt x="119" y="425" on="0"/>
        <pt x="119" y="368" on="1"/>
        <pt x="119" y="336" on="0"/>
        <pt x="128" y="280" on="0"/>
        <pt x="148" y="221" on="0"/>
        <pt x="181" y="154" on="0"/>
        <pt x="206" y="112" on="1"/>
        <pt x="249" y="39" on="1"/>
        <pt x="254" y="31" on="0"/>
        <pt x="255" y="25" on="0"/>
        <pt x="254" y="17" on="1"/>
        <pt x="252" y="0" on="1"/>
        <pt x="60" y="0" on="1"/>
        <pt x="65" y="32" on="1"/>
        <pt x="218" y="32" on="1"/>
        <pt x="176" y="98" on="1"/>
        <pt x="129" y="171" on="0"/>
        <pt x="80" y="298" on="0"/>
        <pt x="80" y="367" on="1"/>
        <pt x="80" y="428" on="0"/>
        <pt x="124" y="539" on="0"/>
        <pt x="203" y="623" on="0"/>
        <pt x="313" y="673" on="0"/>
        <pt x="378" y="673" on="1"/>
        <pt x="438" y="673" on="0"/>
        <pt x="532" y="633" on="0"/>
        <pt x="597" y="565" on="0"/>
        <pt x="632" y="475" on="0"/>
        <pt x="632" y="425" on="1"/>
        <pt x="632" y="384" on="0"/>
        <pt x="611" y="307" on="0"/>
        <pt x="569" y="228" on="0"/>
        <pt x="504" y="144" on="0"/>
        <pt x="461" y="95" on="1"/>
        <pt x="405" y="32" on="1"/>
        <pt x="553" y="32" on="1"/>
        <pt x="548" y="0" on="1"/>
      </contour>
    </TTGlyph>
    <TTGlyph name="Oslash" xMin="52" yMin="-43" xMax="666" yMax="701">
      <contour>
        <pt x="666" y="368" on="1"/>
        <pt x="666" y="296" on="0"/>
        <pt x="617" y="159" on="0"/>
        <pt x="529" y="54" on="0"/>
        <pt x="403" y="-10" on="0"/>
        <pt x="327" y="-10" on="1"/>
        <pt x="277" y="-10" on="0"/>
        <pt x="192" y="23" on="0"/>
        <pt x="157" y="52" on="1"/>
        <pt x="81" y="-43" on="1"/>
        <pt x="54" y="-22" on="1"/>
        <pt x="132" y="75" on="1"/>
        <pt x="94" y="117" on="0"/>
        <pt x="52" y="229" on="0"/>
        <pt x="52" y="295" on="1"/>
        <pt x="52" y="367" on="0"/>
        <pt x="101" y="504" on="0"/>
        <pt x="189" y="609" on="0"/>
        <pt x="314" y="673" on="0"/>
        <pt x="391" y="673" on="1"/>
        <pt x="441" y="673" on="0"/>
        <pt x="528" y="639" on="0"/>
        <pt x="563" y="609" on="1"/>
        <pt x="637" y="701" on="1"/>
        <pt x="664" y="680" on="1"/>
        <pt x="587" y="585" on="1"/>
        <pt x="625" y="543" on="0"/>
        <pt x="666" y="433" on="0"/>
      </contour>
      <contour>
        <pt x="92" y="298" on="1"/>
        <pt x="92" y="239" on="0"/>
        <pt x="127" y="141" on="0"/>
        <pt x="157" y="106" on="1"/>
        <pt x="539" y="579" on="1"/>
        <pt x="509" y="606" on="0"/>
        <pt x="432" y="636" on="0"/>
        <pt x="386" y="636" on="1"/>
        <pt x="318" y="636" on="0"/>
        <pt x="210" y="580" on="0"/>
        <pt x="133" y="486" on="0"/>
        <pt x="92" y="364" on="0"/>
      </contour>
      <contour>
        <pt x="626" y="365" on="1"/>
        <pt x="626" y="423" on="0"/>
        <pt x="592" y="519" on="0"/>
        <pt x="563" y="555" on="1"/>
        <pt x="181" y="81" on="1"/>
        <pt x="210" y="55" on="0"/>
        <pt x="287" y="27" on="0"/>
        <pt x="332" y="27" on="1"/>
        <pt x="399" y="27" on="0"/>
        <pt x="508" y="83" on="0"/>
        <pt x="585" y="177" on="0"/>
        <pt x="626" y="299" on="0"/>
      </contour>
    </TTGlyph>
    <TTGlyph name="Oslashacute" xMin="52" yMin="-43" xMax="666" yMax="883">
      <component glyphName="Oslash" x="0" y="0" flags="0x204"/>
      <component glyphName="acute.cap" x="184" y="0" flags="0x4"/>
    </TTGlyph>
    <TTGlyph name="Otilde" xMin="52" yMin="-10" xMax="666" yMax="820">
      <component glyphName="O" x="0" y="0" flags="0x204"/>
      <component glyphName="tilde.cap" x="163" y="0" flags="0x4"/>
    </TTGlyph>
    <TTGlyph name="P" xMin="55" yMin="0" xMax="545" yMax="663">
      <contour>
        <pt x="95" y="0" on="1"/>
        <pt x="55" y="0" on="1"/>
        <pt x="135" y="663" on="1"/>
        <pt x="343" y="663" on="1"/>
        <pt x="398" y="663" on="0"/>
        <pt x="476" y="641" on="0"/>
        <pt x="500" y="617" on="1"/>
        <pt x="545" y="572" on="0"/>
        <pt x="545" y="491" on="1"/>
        <pt x="545" y="442" on="0"/>
        <pt x="515" y="344" on="0"/>
        <pt x="490" y="309" on="1"/>
        <pt x="464" y="273" on="0"/>
        <pt x="408" y="249" on="0"/>
        <pt x="361" y="249" on="1"/>
        <pt x="125" y="249" on="1"/>
      </contour>
      <contour>
        <pt x="129" y="281" on="1"/>
        <pt x="359" y="281" on="1"/>
        <pt x="395" y="281" on="0"/>
        <pt x="439" y="298" on="0"/>
        <pt x="457" y="323" on="1"/>
        <pt x="481" y="356" on="0"/>
        <pt x="506" y="441" on="0"/>
        <pt x="506" y="488" on="1"/>
        <pt x="506" y="559" on="0"/>
        <pt x="473" y="592" on="1"/>
        <pt x="453" y="612" on="0"/>
        <pt x="386" y="630" on="0"/>
        <pt x="337" y="630" on="1"/>
        <pt x="171" y="630" on="1"/>
      </contour>
    </TTGlyph>
    <TTGlyph name="Q" xMin="52" yMin="-160" xMax="666" yMax="673">
      <contour>
        <pt x="666" y="368" on="1"/>
        <pt x="666" y="316" on="0"/>
        <pt x="641" y="216" on="0"/>
        <pt x="594" y="128" on="0"/>
        <pt x="526" y="55" on="0"/>
        <pt x="483" y="31" on="1"/>
        <pt x="589" y="-141" on="1"/>
        <pt x="556" y="-160" on="1"/>
        <pt x="451" y="14" on="1"/>
        <pt x="423" y="3" on="0"/>
        <pt x="360" y="-10" on="0"/>
        <pt x="327" y="-10" on="1"/>
        <pt x="268" y="-10" on="0"/>
        <pt x="167" y="37" on="0"/>
        <pt x="93" y="119" on="0"/>
        <pt x="52" y="230" on="0"/>
        <pt x="52" y="295" on="1"/>
        <pt x="52" y="367" on="0"/>
        <pt x="101" y="504" on="0"/>
        <pt x="189" y="609" on="0"/>
        <pt x="314" y="673" on="0"/>
        <pt x="391" y="673" on="1"/>
        <pt x="450" y="673" on="0"/>
        <pt x="551" y="626" on="0"/>
        <pt x="624" y="544" on="0"/>
        <pt x="666" y="432" on="0"/>
      </contour>
      <contour>
        <pt x="626" y="365" on="1"/>
        <pt x="626" y="425" on="0"/>
        <pt x="591" y="524" on="0"/>
        <pt x="528" y="596" on="0"/>
        <pt x="440" y="636" on="0"/>
        <pt x="386" y="636" on="1"/>
        <pt x="318" y="636" on="0"/>
        <pt x="210" y="580" on="0"/>
        <pt x="133" y="486" on="0"/>
        <pt x="92" y="364" on="0"/>
        <pt x="92" y="298" on="1"/>
        <pt x="92" y="238" on="0"/>
        <pt x="126" y="139" on="0"/>
        <pt x="189" y="67" on="0"/>
        <pt x="278" y="27" on="0"/>
        <pt x="332" y="27" on="1"/>
        <pt x="399" y="27" on="0"/>
        <pt x="508" y="83" on="0"/>
        <pt x="585" y="177" on="0"/>
        <pt x="626" y="299" on="0"/>
      </contour>
    </TTGlyph>
    <TTGlyph name="R" xMin="55" yMin="0" xMax="543" yMax="663">
      <contour>
        <pt x="488" y="0" on="1"/>
        <pt x="478" y="0" on="0"/>
        <pt x="475" y="7" on="1"/>
        <pt x="369" y="258" on="1"/>
        <pt x="366" y="265" on="0"/>
        <pt x="360" y="268" on="0"/>
        <pt x="351" y="268" on="1"/>
        <pt x="127" y="268" on="1"/>
        <pt x="95" y="0" on="1"/>
        <pt x="55" y="0" on="1"/>
        <pt x="135" y="663" on="1"/>
        <pt x="349" y="663" on="1"/>
        <pt x="400" y="663" on="0"/>
        <pt x="472" y="644" on="0"/>
        <pt x="497" y="622" on="1"/>
        <pt x="520" y="602" on="0"/>
        <pt x="543" y="538" on="0"/>
        <pt x="543" y="498" on="1"/>
        <pt x="543" y="457" on="0"/>
        <pt x="524" y="383" on="0"/>
        <pt x="487" y="323" on="0"/>
        <pt x="435" y="280" on="0"/>
        <pt x="402" y="270" on="1"/>
        <pt x="519" y="0" on="1"/>
      </contour>
      <contour>
        <pt x="355" y="300" on="1"/>
        <pt x="387" y="300" on="0"/>
        <pt x="435" y="318" on="0"/>
        <pt x="453" y="339" on="1"/>
        <pt x="479" y="368" on="0"/>
        <pt x="504" y="449" on="0"/>
        <pt x="504" y="497" on="1"/>
        <pt x="504" y="568" on="0"/>
        <pt x="468" y="600" on="1"/>
        <pt x="449" y="617" on="0"/>
        <pt x="386" y="630" on="0"/>
        <pt x="340" y="630" on="1"/>
        <pt x="171" y="630" on="1"/>
        <pt x="131" y="300" on="1"/>
      </contour>
    </TTGlyph>
    <TTGlyph name="Racute" xMin="55" yMin="0" xMax="543" yMax="883">
      <component glyphName="R" x="0" y="0" flags="0x204"/>
      <component glyphName="acute.cap" x="116" y="0" flags="0x4"/>
    </TTGlyph>
    <TTGlyph name="Rcaron" xMin="55" yMin="0" xMax="543" yMax="870">
      <component glyphName="R" x="0" y="0" flags="0x204"/>
      <component glyphName="caron.cap" x="105" y="0" flags="0x4"/>
    </TTGlyph>
    <TTGlyph name="Rcommaaccent" xMin="55" yMin="-243" xMax="543" yMax="663">
      <component glyphName="R" x="0" y="0" flags="0x204"/>
      <component glyphName="commaaccent" x="122" y="0" flags="0x4"/>
    </TTGlyph>
    <TTGlyph name="S" xMin="16" yMin="-10" xMax="486" yMax="673">
      <contour>
        <pt x="27" y="66" on="1"/>
        <pt x="90" y="48" on="1"/>
        <pt x="127" y="37" on="0"/>
        <pt x="197" y="25" on="0"/>
        <pt x="229" y="25" on="1"/>
        <pt x="276" y="25" on="0"/>
        <pt x="355" y="52" on="0"/>
        <pt x="381" y="78" on="1"/>
        <pt x="401" y="98" on="0"/>
        <pt x="424" y="153" on="0"/>
        <pt x="424" y="185" on="1"/>
        <pt x="424" y="230" on="0"/>
        <pt x="365" y="295" on="0"/>
        <pt x="296" y="330" on="1"/>
        <pt x="229" y="365" on="1"/>
        <pt x="161" y="400" on="0"/>
        <pt x="93" y="470" on="0"/>
        <pt x="93" y="522" on="1"/>
        <pt x="93" y="581" on="0"/>
        <pt x="139" y="622" on="1"/>
        <pt x="198" y="673" on="0"/>
        <pt x="312" y="673" on="1"/>
        <pt x="331" y="673" on="0"/>
        <pt x="376" y="669" on="0"/>
        <pt x="422" y="662" on="0"/>
        <pt x="467" y="652" on="0"/>
        <pt x="486" y="646" on="1"/>
        <pt x="480" y="622" on="1"/>
        <pt x="438" y="628" on="1"/>
        <pt x="400" y="633" on="0"/>
        <pt x="338" y="639" on="0"/>
        <pt x="308" y="639" on="1"/>
        <pt x="260" y="639" on="0"/>
        <pt x="185" y="618" on="0"/>
        <pt x="162" y="596" on="1"/>
        <pt x="148" y="582" on="0"/>
        <pt x="131" y="546" on="0"/>
        <pt x="131" y="523" on="1"/>
        <pt x="131" y="503" on="0"/>
        <pt x="144" y="471" on="0"/>
        <pt x="173" y="442" on="0"/>
        <pt x="219" y="412" on="0"/>
        <pt x="252" y="395" on="1"/>
        <pt x="310" y="365" on="1"/>
        <pt x="388" y="325" on="0"/>
        <pt x="463" y="245" on="0"/>
        <pt x="463" y="189" on="1"/>
        <pt x="463" y="154" on="0"/>
        <pt x="437" y="81" on="0"/>
        <pt x="407" y="52" on="1"/>
        <pt x="375" y="22" on="0"/>
        <pt x="283" y="-10" on="0"/>
        <pt x="226" y="-10" on="1"/>
        <pt x="202" y="-10" on="0"/>
        <pt x="148" y="-2" on="0"/>
        <pt x="92" y="13" on="0"/>
        <pt x="39" y="33" on="0"/>
        <pt x="16" y="45" on="1"/>
      </contour>
    </TTGlyph>
    <TTGlyph name="Sacute" xMin="16" yMin="-10" xMax="486" yMax="883">
      <component glyphName="S" x="0" y="0" flags="0x204"/>
      <component glyphName="acute.cap" x="77" y="0" flags="0x4"/>
    </TTGlyph>
    <TTGlyph name="Scaron" xMin="16" yMin="-10" xMax="486" yMax="870">
      <component glyphName="S" x="0" y="0" flags="0x204"/>
      <component glyphName="caron.cap" x="74" y="0" flags="0x4"/>
    </TTGlyph>
    <TTGlyph name="Scedilla" xMin="16" yMin="-202" xMax="486" yMax="673">
      <contour>
        <pt x="27" y="66" on="1"/>
        <pt x="90" y="48" on="1"/>
        <pt x="127" y="37" on="0"/>
        <pt x="197" y="25" on="0"/>
        <pt x="229" y="25" on="1"/>
        <pt x="276" y="25" on="0"/>
        <pt x="355" y="52" on="0"/>
        <pt x="381" y="78" on="1"/>
        <pt x="401" y="98" on="0"/>
        <pt x="424" y="153" on="0"/>
        <pt x="424" y="185" on="1"/>
        <pt x="424" y="230" on="0"/>
        <pt x="365" y="295" on="0"/>
        <pt x="296" y="330" on="1"/>
        <pt x="229" y="365" on="1"/>
        <pt x="161" y="400" on="0"/>
        <pt x="93" y="470" on="0"/>
        <pt x="93" y="522" on="1"/>
        <pt x="93" y="581" on="0"/>
        <pt x="139" y="622" on="1"/>
        <pt x="198" y="673" on="0"/>
        <pt x="312" y="673" on="1"/>
        <pt x="331" y="673" on="0"/>
        <pt x="376" y="669" on="0"/>
        <pt x="422" y="662" on="0"/>
        <pt x="467" y="652" on="0"/>
        <pt x="486" y="646" on="1"/>
        <pt x="480" y="622" on="1"/>
        <pt x="438" y="628" on="1"/>
        <pt x="400" y="633" on="0"/>
        <pt x="338" y="639" on="0"/>
        <pt x="308" y="639" on="1"/>
        <pt x="260" y="639" on="0"/>
        <pt x="185" y="618" on="0"/>
        <pt x="162" y="596" on="1"/>
        <pt x="148" y="582" on="0"/>
        <pt x="131" y="546" on="0"/>
        <pt x="131" y="523" on="1"/>
        <pt x="131" y="503" on="0"/>
        <pt x="144" y="471" on="0"/>
        <pt x="173" y="442" on="0"/>
        <pt x="219" y="412" on="0"/>
        <pt x="252" y="395" on="1"/>
        <pt x="310" y="365" on="1"/>
        <pt x="388" y="325" on="0"/>
        <pt x="463" y="245" on="0"/>
        <pt x="463" y="189" on="1"/>
        <pt x="463" y="154" on="0"/>
        <pt x="437" y="81" on="0"/>
        <pt x="407" y="52" on="1"/>
        <pt x="375" y="22" on="0"/>
        <pt x="284" y="-10" on="0"/>
        <pt x="227" y="-10" on="1"/>
        <pt x="222" y="-20" on="0"/>
        <pt x="222" y="-28" on="1"/>
        <pt x="222" y="-39" on="0"/>
        <pt x="252" y="-56" on="0"/>
        <pt x="289" y="-76" on="0"/>
        <pt x="319" y="-103" on="0"/>
        <pt x="319" y="-125" on="1"/>
        <pt x="319" y="-160" on="0"/>
        <pt x="238" y="-197" on="0"/>
        <pt x="160" y="-202" on="1"/>
        <pt x="155" y="-181" on="1"/>
        <pt x="228" y="-163" on="1"/>
        <pt x="255" y="-156" on="0"/>
        <pt x="284" y="-142" on="0"/>
        <pt x="284" y="-129" on="1"/>
        <pt x="284" y="-116" on="0"/>
        <pt x="254" y="-95" on="0"/>
        <pt x="217" y="-76" on="0"/>
        <pt x="187" y="-54" on="0"/>
        <pt x="187" y="-39" on="1"/>
        <pt x="187" y="-24" on="0"/>
        <pt x="199" y="-9" on="1"/>
        <pt x="154" y="-5" on="0"/>
        <pt x="55" y="24" on="0"/>
        <pt x="16" y="45" on="1"/>
      </contour>
    </TTGlyph>
    <TTGlyph name="Scircumflex" xMin="16" yMin="-10" xMax="486" yMax="859">
      <component glyphName="S" x="0" y="0" flags="0x204"/>
      <component glyphName="circumflex.cap" x="75" y="0" flags="0x4"/>
    </TTGlyph>
    <TTGlyph name="Scommaaccent" xMin="16" yMin="-243" xMax="486" yMax="673">
      <component glyphName="S" x="0" y="0" flags="0x204"/>
      <component glyphName="commaaccent" x="69" y="0" flags="0x4"/>
    </TTGlyph>
    <TTGlyph name="T" xMin="77" yMin="0" xMax="561" yMax="663">
      <contour>
        <pt x="81" y="663" on="1"/>
        <pt x="561" y="663" on="1"/>
        <pt x="557" y="630" on="1"/>
        <pt x="335" y="630" on="1"/>
        <pt x="259" y="0" on="1"/>
        <pt x="219" y="0" on="1"/>
        <pt x="295" y="630" on="1"/>
        <pt x="77" y="630" on="1"/>
      </contour>
    </TTGlyph>
    <TTGlyph name="Tbar" xMin="77" yMin="0" xMax="561" yMax="663">
      <contour>
        <pt x="81" y="663" on="1"/>
        <pt x="561" y="663" on="1"/>
        <pt x="557" y="630" on="1"/>
        <pt x="335" y="630" on="1"/>
        <pt x="301" y="349" on="1"/>
        <pt x="449" y="349" on="1"/>
        <pt x="446" y="319" on="1"/>
        <pt x="298" y="319" on="1"/>
        <pt x="260" y="0" on="1"/>
        <pt x="220" y="0" on="1"/>
        <pt x="258" y="319" on="1"/>
        <pt x="111" y="319" on="1"/>
        <pt x="114" y="349" on="1"/>
        <pt x="261" y="349" on="1"/>
        <pt x="295" y="630" on="1"/>
        <pt x="77" y="630" on="1"/>
      </contour>
    </TTGlyph>
    <TTGlyph name="Tcaron" xMin="77" yMin="0" xMax="561" yMax="870">
      <component glyphName="T" x="0" y="0" flags="0x204"/>
      <component glyphName="caron.cap" x="83" y="0" flags="0x4"/>
    </TTGlyph>
    <TTGlyph name="Tcommaaccent" xMin="77" yMin="-243" xMax="561" yMax="663">
      <component glyphName="T" x="0" y="0" flags="0x204"/>
      <component glyphName="commaaccent" x="73" y="0" flags="0x4"/>
    </TTGlyph>
    <TTGlyph name="Thorn" xMin="55" yMin="0" xMax="531" yMax="663">
      <contour>
        <pt x="161" y="545" on="1"/>
        <pt x="329" y="545" on="1"/>
        <pt x="439" y="545" on="0"/>
        <pt x="486" y="498" on="1"/>
        <pt x="531" y="453" on="0"/>
        <pt x="531" y="373" on="1"/>
        <pt x="531" y="324" on="0"/>
        <pt x="500" y="227" on="0"/>
        <pt x="475" y="192" on="1"/>
        <pt x="462" y="174" on="0"/>
        <pt x="437" y="150" on="0"/>
        <pt x="407" y="137" on="0"/>
        <pt x="371" y="131" on="0"/>
        <pt x="347" y="131" on="1"/>
        <pt x="110" y="131" on="1"/>
        <pt x="95" y="0" on="1"/>
        <pt x="55" y="0" on="1"/>
        <pt x="135" y="663" on="1"/>
        <pt x="175" y="663" on="1"/>
      </contour>
      <contour>
        <pt x="115" y="164" on="1"/>
        <pt x="346" y="164" on="1"/>
        <pt x="381" y="164" on="0"/>
        <pt x="425" y="179" on="0"/>
        <pt x="443" y="205" on="1"/>
        <pt x="466" y="239" on="0"/>
        <pt x="492" y="323" on="0"/>
        <pt x="492" y="370" on="1"/>
        <pt x="492" y="441" on="0"/>
        <pt x="459" y="474" on="1"/>
        <pt x="439" y="494" on="0"/>
        <pt x="372" y="511" on="0"/>
        <pt x="323" y="511" on="1"/>
        <pt x="157" y="511" on="1"/>
      </contour>
    </TTGlyph>
    <TTGlyph name="U" xMin="81" yMin="-10" xMax="619" yMax="663">
      <contour>
        <pt x="582" y="663" on="1"/>
        <pt x="619" y="663" on="1"/>
        <pt x="571" y="261" on="1"/>
        <pt x="562" y="187" on="0"/>
        <pt x="523" y="97" on="0"/>
        <pt x="491" y="64" on="1"/>
        <pt x="457" y="28" on="0"/>
        <pt x="359" y="-10" on="0"/>
        <pt x="300" y="-10" on="1"/>
        <pt x="251" y="-10" on="0"/>
        <pt x="170" y="20" on="0"/>
        <pt x="113" y="76" on="0"/>
        <pt x="81" y="155" on="0"/>
        <pt x="81" y="203" on="1"/>
        <pt x="81" y="224" on="0"/>
        <pt x="86" y="283" on="0"/>
        <pt x="90" y="314" on="1"/>
        <pt x="131" y="663" on="1"/>
        <pt x="171" y="663" on="1"/>
        <pt x="128" y="306" on="1"/>
        <pt x="124" y="276" on="0"/>
        <pt x="120" y="223" on="0"/>
        <pt x="120" y="206" on="1"/>
        <pt x="120" y="166" on="0"/>
        <pt x="144" y="100" on="0"/>
        <pt x="191" y="52" on="0"/>
        <pt x="260" y="26" on="0"/>
        <pt x="305" y="26" on="1"/>
        <pt x="356" y="26" on="0"/>
        <pt x="444" y="63" on="0"/>
        <pt x="473" y="98" on="1"/>
        <pt x="496" y="127" on="0"/>
        <pt x="526" y="208" on="0"/>
        <pt x="534" y="269" on="1"/>
      </contour>
    </TTGlyph>
    <TTGlyph name="Uacute" xMin="81" yMin="-10" xMax="619" yMax="883">
      <component glyphName="U" x="0" y="0" flags="0x204"/>
      <component glyphName="acute.cap" x="171" y="0" flags="0x4"/>
    </TTGlyph>
    <TTGlyph name="Ubreve" xMin="81" yMin="-10" xMax="619" yMax="841">
      <component glyphName="U" x="0" y="0" flags="0x204"/>
      <component glyphName="breve.cap" x="143" y="0" flags="0x4"/>
    </TTGlyph>
    <TTGlyph name="Ucircumflex" xMin="81" yMin="-10" xMax="619" yMax="859">
      <component glyphName="U" x="0" y="0" flags="0x204"/>
      <component glyphName="circumflex.cap" x="149" y="0" flags="0x4"/>
    </TTGlyph>
    <TTGlyph name="Udieresis" xMin="81" yMin="-10" xMax="619" yMax="816">
      <component glyphName="U" x="0" y="0" flags="0x204"/>
      <component glyphName="dieresis.cap" x="144" y="0" flags="0x4"/>
    </TTGlyph>
    <TTGlyph name="Ugrave" xMin="81" yMin="-10" xMax="619" yMax="882">
      <component glyphName="U" x="0" y="0" flags="0x204"/>
      <component glyphName="grave.cap" x="119" y="0" flags="0x4"/>
    </TTGlyph>
    <TTGlyph name="Uhungarumlaut" xMin="81" yMin="-10" xMax="619" yMax="904">
      <component glyphName="U" x="0" y="0" flags="0x204"/>
      <component glyphName="hungarumlaut.cap" x="151" y="0" flags="0x4"/>
    </TTGlyph>
    <TTGlyph name="Umacron" xMin="81" yMin="-10" xMax="619" yMax="774">
      <component glyphName="U" x="0" y="0" flags="0x204"/>
      <component glyphName="macron.cap" x="157" y="0" flags="0x4"/>
    </TTGlyph>
    <TTGlyph name="Uogonek" xMin="81" yMin="-173" xMax="619" yMax="663">
      <contour>
        <pt x="582" y="663" on="1"/>
        <pt x="619" y="663" on="1"/>
        <pt x="571" y="261" on="1"/>
        <pt x="562" y="187" on="0"/>
        <pt x="523" y="97" on="0"/>
        <pt x="491" y="64" on="1"/>
        <pt x="469" y="40" on="0"/>
        <pt x="401" y="4" on="0"/>
        <pt x="336" y="-31" on="0"/>
        <pt x="289" y="-71" on="0"/>
        <pt x="289" y="-100" on="1"/>
        <pt x="289" y="-118" on="0"/>
        <pt x="313" y="-143" on="0"/>
        <pt x="339" y="-143" on="1"/>
        <pt x="344" y="-143" on="0"/>
        <pt x="359" y="-142" on="0"/>
        <pt x="366" y="-141" on="1"/>
        <pt x="397" y="-137" on="1"/>
        <pt x="401" y="-156" on="1"/>
        <pt x="390" y="-163" on="0"/>
        <pt x="349" y="-173" on="0"/>
        <pt x="331" y="-173" on="1"/>
        <pt x="289" y="-173" on="0"/>
        <pt x="249" y="-133" on="0"/>
        <pt x="249" y="-105" on="1"/>
        <pt x="249" y="-77" on="0"/>
        <pt x="294" y="-25" on="0"/>
        <pt x="325" y="-9" on="1"/>
        <pt x="319" y="-9" on="0"/>
        <pt x="306" y="-10" on="0"/>
        <pt x="300" y="-10" on="1"/>
        <pt x="251" y="-10" on="0"/>
        <pt x="170" y="20" on="0"/>
        <pt x="113" y="76" on="0"/>
        <pt x="81" y="155" on="0"/>
        <pt x="81" y="203" on="1"/>
        <pt x="81" y="224" on="0"/>
        <pt x="86" y="283" on="0"/>
        <pt x="90" y="314" on="1"/>
        <pt x="131" y="663" on="1"/>
        <pt x="171" y="663" on="1"/>
        <pt x="128" y="306" on="1"/>
        <pt x="124" y="276" on="0"/>
        <pt x="120" y="223" on="0"/>
        <pt x="120" y="206" on="1"/>
        <pt x="120" y="166" on="0"/>
        <pt x="144" y="100" on="0"/>
        <pt x="191" y="52" on="0"/>
        <pt x="260" y="26" on="0"/>
        <pt x="305" y="26" on="1"/>
        <pt x="356" y="26" on="0"/>
        <pt x="444" y="63" on="0"/>
        <pt x="473" y="98" on="1"/>
        <pt x="496" y="127" on="0"/>
        <pt x="526" y="208" on="0"/>
        <pt x="534" y="269" on="1"/>
      </contour>
    </TTGlyph>
    <TTGlyph name="Uring" xMin="81" yMin="-10" xMax="619" yMax="916">
      <component glyphName="U" x="0" y="0" flags="0x204"/>
      <component glyphName="ring.cap" x="152" y="0" flags="0x4"/>
    </TTGlyph>
    <TTGlyph name="Utilde" xMin="81" yMin="-10" xMax="619" yMax="820">
      <component glyphName="U" x="0" y="0" flags="0x204"/>
      <component glyphName="tilde.cap" x="144" y="0" flags="0x4"/>
    </TTGlyph>
    <TTGlyph name="V" xMin="72" yMin="0" xMax="640" yMax="663">
      <contour>
        <pt x="594" y="656" on="1"/>
        <pt x="597" y="663" on="0"/>
        <pt x="608" y="663" on="1"/>
        <pt x="640" y="663" on="1"/>
        <pt x="296" y="0" on="1"/>
        <pt x="271" y="0" on="1"/>
        <pt x="262" y="0" on="0"/>
        <pt x="260" y="7" on="1"/>
        <pt x="72" y="663" on="1"/>
        <pt x="102" y="663" on="1"/>
        <pt x="112" y="663" on="0"/>
        <pt x="114" y="656" on="1"/>
        <pt x="284" y="51" on="1"/>
      </contour>
    </TTGlyph>
    <TTGlyph name="W" xMin="79" yMin="0" xMax="936" yMax="663">
      <contour>
        <pt x="534" y="448" on="1"/>
        <pt x="529" y="470" on="0"/>
        <pt x="519" y="520" on="0"/>
        <pt x="510" y="565" on="0"/>
        <pt x="502" y="601" on="0"/>
        <pt x="501" y="610" on="1"/>
        <pt x="500" y="610" on="1"/>
        <pt x="497" y="602" on="0"/>
        <pt x="483" y="566" on="0"/>
        <pt x="465" y="518" on="0"/>
        <pt x="444" y="466" on="0"/>
        <pt x="435" y="444" on="1"/>
        <pt x="257" y="0" on="1"/>
        <pt x="228" y="0" on="1"/>
        <pt x="219" y="0" on="0"/>
        <pt x="218" y="7" on="1"/>
        <pt x="79" y="663" on="1"/>
        <pt x="109" y="663" on="1"/>
        <pt x="119" y="663" on="0"/>
        <pt x="120" y="656" on="1"/>
        <pt x="243" y="58" on="1"/>
        <pt x="486" y="663" on="1"/>
        <pt x="516" y="663" on="1"/>
        <pt x="526" y="663" on="0"/>
        <pt x="527" y="656" on="1"/>
        <pt x="653" y="58" on="1"/>
        <pt x="893" y="656" on="1"/>
        <pt x="895" y="661" on="0"/>
        <pt x="899" y="663" on="0"/>
        <pt x="906" y="663" on="1"/>
        <pt x="936" y="663" on="1"/>
        <pt x="667" y="0" on="1"/>
        <pt x="636" y="0" on="1"/>
        <pt x="627" y="0" on="0"/>
        <pt x="626" y="7" on="1"/>
      </contour>
    </TTGlyph>
    <TTGlyph name="Wacute" xMin="79" yMin="0" xMax="936" yMax="883">
      <component glyphName="W" x="0" y="0" flags="0x204"/>
      <component glyphName="acute.cap" x="275" y="0" flags="0x4"/>
    </TTGlyph>
    <TTGlyph name="Wcircumflex" xMin="79" yMin="0" xMax="936" yMax="859">
      <component glyphName="W" x="0" y="0" flags="0x204"/>
      <component glyphName="circumflex.cap" x="282" y="0" flags="0x4"/>
    </TTGlyph>
    <TTGlyph name="Wdieresis" xMin="79" yMin="0" xMax="936" yMax="816">
      <component glyphName="W" x="0" y="0" flags="0x204"/>
      <component glyphName="dieresis.cap" x="276" y="0" flags="0x4"/>
    </TTGlyph>
    <TTGlyph name="Wgrave" xMin="79" yMin="0" xMax="936" yMax="882">
      <component glyphName="W" x="0" y="0" flags="0x204"/>
      <component glyphName="grave.cap" x="265" y="0" flags="0x4"/>
    </TTGlyph>
    <TTGlyph name="X" xMin="5" yMin="0" xMax="570" yMax="663">
      <contour>
        <pt x="5" y="0" on="1"/>
        <pt x="282" y="356" on="1"/>
        <pt x="90" y="663" on="1"/>
        <pt x="122" y="663" on="1"/>
        <pt x="129" y="663" on="0"/>
        <pt x="134" y="661" on="0"/>
        <pt x="137" y="656" on="1"/>
        <pt x="308" y="382" on="1"/>
        <pt x="521" y="654" on="1"/>
        <pt x="526" y="660" on="0"/>
        <pt x="531" y="663" on="0"/>
        <pt x="538" y="663" on="1"/>
        <pt x="570" y="663" on="1"/>
        <pt x="328" y="351" on="1"/>
        <pt x="548" y="0" on="1"/>
        <pt x="519" y="0" on="1"/>
        <pt x="511" y="0" on="0"/>
        <pt x="503" y="5" on="0"/>
        <pt x="499" y="11" on="1"/>
        <pt x="302" y="327" on="1"/>
        <pt x="56" y="9" on="1"/>
        <pt x="51" y="3" on="0"/>
        <pt x="44" y="0" on="0"/>
        <pt x="37" y="0" on="1"/>
      </contour>
    </TTGlyph>
    <TTGlyph name="Y" xMin="65" yMin="0" xMax="599" yMax="663">
      <contour>
        <pt x="599" y="663" on="1"/>
        <pt x="299" y="221" on="1"/>
        <pt x="272" y="0" on="1"/>
        <pt x="232" y="0" on="1"/>
        <pt x="259" y="223" on="1"/>
        <pt x="65" y="663" on="1"/>
        <pt x="95" y="663" on="1"/>
        <pt x="102" y="663" on="0"/>
        <pt x="107" y="660" on="0"/>
        <pt x="109" y="655" on="1"/>
        <pt x="282" y="255" on="1"/>
        <pt x="551" y="654" on="1"/>
        <pt x="556" y="660" on="0"/>
        <pt x="561" y="663" on="0"/>
        <pt x="568" y="663" on="1"/>
      </contour>
    </TTGlyph>
    <TTGlyph name="Yacute" xMin="65" yMin="0" xMax="599" yMax="883">
      <component glyphName="Y" x="0" y="0" flags="0x204"/>
      <component glyphName="acute.cap" x="125" y="0" flags="0x4"/>
    </TTGlyph>
    <TTGlyph name="Ycircumflex" xMin="65" yMin="0" xMax="599" yMax="859">
      <component glyphName="Y" x="0" y="0" flags="0x204"/>
      <component glyphName="circumflex.cap" x="105" y="0" flags="0x4"/>
    </TTGlyph>
    <TTGlyph name="Ydieresis" xMin="65" yMin="0" xMax="599" yMax="816">
      <component glyphName="Y" x="0" y="0" flags="0x204"/>
      <component glyphName="dieresis.cap" x="97" y="0" flags="0x4"/>
    </TTGlyph>
    <TTGlyph name="Ygrave" xMin="65" yMin="0" xMax="599" yMax="882">
      <component glyphName="Y" x="0" y="0" flags="0x204"/>
      <component glyphName="grave.cap" x="61" y="0" flags="0x4"/>
    </TTGlyph>
    <TTGlyph name="Z" xMin="8" yMin="0" xMax="529" yMax="663">
      <contour>
        <pt x="474" y="630" on="1"/>
        <pt x="90" y="630" on="1"/>
        <pt x="94" y="663" on="1"/>
        <pt x="529" y="663" on="1"/>
        <pt x="527" y="647" on="1"/>
        <pt x="526" y="639" on="0"/>
        <pt x="521" y="633" on="1"/>
        <pt x="63" y="33" on="1"/>
        <pt x="452" y="33" on="1"/>
        <pt x="448" y="0" on="1"/>
        <pt x="8" y="0" on="1"/>
        <pt x="10" y="16" on="1"/>
        <pt x="11" y="24" on="0"/>
        <pt x="16" y="30" on="1"/>
      </contour>
    </TTGlyph>
    <TTGlyph name="Zacute" xMin="8" yMin="0" xMax="529" yMax="883">
      <component glyphName="Z" x="0" y="0" flags="0x204"/>
      <component glyphName="acute.cap" x="79" y="0" flags="0x4"/>
    </TTGlyph>
    <TTGlyph name="Zcaron" xMin="8" yMin="0" xMax="529" yMax="870">
      <component glyphName="Z" x="0" y="0" flags="0x204"/>
      <component glyphName="caron.cap" x="71" y="0" flags="0x4"/>
    </TTGlyph>
    <TTGlyph name="Zdotaccent" xMin="8" yMin="0" xMax="529" yMax="811">
      <component glyphName="Z" x="0" y="0" flags="0x204"/>
      <component glyphName="dotaccent.cap" x="90" y="0" flags="0x4"/>
    </TTGlyph>
    <TTGlyph name="a" xMin="39" yMin="-8" xMax="496" yMax="496">
      <contour>
        <pt x="379" y="59" on="1"/>
        <pt x="360" y="46" on="1"/>
        <pt x="322" y="20" on="0"/>
        <pt x="250" y="-8" on="0"/>
        <pt x="211" y="-8" on="1"/>
        <pt x="168" y="-8" on="0"/>
        <pt x="104" y="25" on="0"/>
        <pt x="61" y="82" on="0"/>
        <pt x="39" y="158" on="0"/>
        <pt x="39" y="200" on="1"/>
        <pt x="39" y="259" on="0"/>
        <pt x="75" y="366" on="0"/>
        <pt x="139" y="448" on="0"/>
        <pt x="227" y="496" on="0"/>
        <pt x="279" y="496" on="1"/>
        <pt x="314" y="496" on="0"/>
        <pt x="376" y="472" on="0"/>
        <pt x="410" y="448" on="1"/>
        <pt x="428" y="435" on="1"/>
        <pt x="443" y="488" on="1"/>
        <pt x="471" y="485" on="1"/>
        <pt x="416" y="35" on="1"/>
        <pt x="496" y="26" on="1"/>
        <pt x="494" y="13" on="1"/>
        <pt x="480" y="7" on="0"/>
        <pt x="442" y="-2" on="0"/>
        <pt x="430" y="-2" on="1"/>
        <pt x="406" y="-2" on="0"/>
        <pt x="379" y="23" on="0"/>
        <pt x="379" y="43" on="1"/>
      </contour>
      <contour>
        <pt x="371" y="86" on="1"/>
        <pt x="379" y="92" on="0"/>
        <pt x="383" y="99" on="0"/>
        <pt x="384" y="104" on="1"/>
        <pt x="420" y="393" on="1"/>
        <pt x="421" y="402" on="0"/>
        <pt x="417" y="409" on="0"/>
        <pt x="410" y="414" on="1"/>
        <pt x="380" y="437" on="0"/>
        <pt x="318" y="462" on="0"/>
        <pt x="282" y="462" on="1"/>
        <pt x="240" y="462" on="0"/>
        <pt x="166" y="425" on="0"/>
        <pt x="111" y="357" on="0"/>
        <pt x="79" y="261" on="0"/>
        <pt x="79" y="203" on="1"/>
        <pt x="79" y="167" on="0"/>
        <pt x="94" y="103" on="0"/>
        <pt x="127" y="54" on="0"/>
        <pt x="180" y="26" on="0"/>
        <pt x="218" y="26" on="1"/>
        <pt x="259" y="26" on="0"/>
        <pt x="338" y="62" on="0"/>
      </contour>
    </TTGlyph>
    <TTGlyph name="aacute" xMin="39" yMin="-8" xMax="496" yMax="693">
      <component glyphName="a" x="0" y="0" flags="0x204"/>
      <component glyphName="acute" x="90" y="0" flags="0x4"/>
    </TTGlyph>
    <TTGlyph name="abreve" xMin="39" yMin="-8" xMax="496" yMax="676">
      <component glyphName="a" x="0" y="0" flags="0x204"/>
      <component glyphName="breve" x="71" y="0" flags="0x4"/>
    </TTGlyph>
    <TTGlyph name="acaron" xMin="39" yMin="-8" xMax="496" yMax="689">
      <component glyphName="a" x="0" y="0" flags="0x204"/>
      <component glyphName="caron" x="64" y="0" flags="0x4"/>
    </TTGlyph>
    <TTGlyph name="acircumflex" xMin="39" yMin="-8" xMax="496" yMax="694">
      <component glyphName="a" x="0" y="0" flags="0x204"/>
      <component glyphName="circumflex" x="76" y="0" flags="0x4"/>
    </TTGlyph>
    <TTGlyph name="acute" xMin="106" yMin="537" xMax="337" yMax="693">
      <contour>
        <pt x="115" y="537" on="1"/>
        <pt x="106" y="552" on="1"/>
        <pt x="305" y="687" on="1"/>
        <pt x="315" y="693" on="0"/>
        <pt x="320" y="685" on="1"/>
        <pt x="337" y="653" on="1"/>
      </contour>
    </TTGlyph>
    <TTGlyph name="acute.cap" xMin="136" yMin="727" xMax="367" yMax="883">
      <contour>
        <pt x="145" y="727" on="1"/>
        <pt x="136" y="742" on="1"/>
        <pt x="335" y="877" on="1"/>
        <pt x="345" y="883" on="0"/>
        <pt x="350" y="875" on="1"/>
        <pt x="367" y="843" on="1"/>
      </contour>
    </TTGlyph>
    <TTGlyph name="adieresis" xMin="39" yMin="-8" xMax="496" yMax="641">
      <component glyphName="a" x="0" y="0" flags="0x204"/>
      <component glyphName="dieresis" x="77" y="0" flags="0x4"/>
    </TTGlyph>
    <TTGlyph name="ae" xMin="27" yMin="-8" xMax="809" yMax="496">
      <contour>
        <pt x="778" y="83" on="1"/>
        <pt x="790" y="64" on="1"/>
        <pt x="742" y="33" on="0"/>
        <pt x="637" y="-8" on="0"/>
        <pt x="586" y="-8" on="1"/>
        <pt x="527" y="-8" on="0"/>
        <pt x="442" y="41" on="0"/>
        <pt x="416" y="81" on="1"/>
        <pt x="383" y="60" on="1"/>
        <pt x="335" y="30" on="0"/>
        <pt x="244" y="-8" on="0"/>
        <pt x="196" y="-8" on="1"/>
        <pt x="156" y="-8" on="0"/>
        <pt x="93" y="17" on="0"/>
        <pt x="50" y="58" on="0"/>
        <pt x="27" y="112" on="0"/>
        <pt x="27" y="142" on="1"/>
        <pt x="27" y="202" on="0"/>
        <pt x="66" y="236" on="1"/>
        <pt x="109" y="273" on="0"/>
        <pt x="192" y="273" on="1"/>
        <pt x="206" y="273" on="0"/>
        <pt x="250" y="272" on="0"/>
        <pt x="272" y="271" on="1"/>
        <pt x="383" y="267" on="1"/>
        <pt x="388" y="292" on="0"/>
        <pt x="396" y="337" on="0"/>
        <pt x="396" y="354" on="1"/>
        <pt x="396" y="405" on="0"/>
        <pt x="338" y="464" on="0"/>
        <pt x="281" y="464" on="1"/>
        <pt x="250" y="464" on="0"/>
        <pt x="189" y="454" on="0"/>
        <pt x="160" y="446" on="1"/>
        <pt x="100" y="430" on="1"/>
        <pt x="92" y="451" on="1"/>
        <pt x="143" y="471" on="0"/>
        <pt x="235" y="496" on="0"/>
        <pt x="280" y="496" on="1"/>
        <pt x="311" y="496" on="0"/>
        <pt x="364" y="479" on="0"/>
        <pt x="403" y="448" on="0"/>
        <pt x="426" y="405" on="0"/>
        <pt x="428" y="380" on="1"/>
        <pt x="461" y="432" on="0"/>
        <pt x="563" y="496" on="0"/>
        <pt x="624" y="496" on="1"/>
        <pt x="666" y="496" on="0"/>
        <pt x="734" y="463" on="0"/>
        <pt x="783" y="408" on="0"/>
        <pt x="809" y="334" on="0"/>
        <pt x="809" y="293" on="1"/>
        <pt x="809" y="259" on="0"/>
        <pt x="800" y="241" on="0"/>
        <pt x="789" y="241" on="1"/>
        <pt x="420" y="241" on="1"/>
        <pt x="419" y="236" on="0"/>
        <pt x="419" y="223" on="0"/>
        <pt x="419" y="218" on="1"/>
        <pt x="419" y="175" on="0"/>
        <pt x="442" y="105" on="0"/>
        <pt x="485" y="54" on="0"/>
        <pt x="547" y="26" on="0"/>
        <pt x="587" y="26" on="1"/>
        <pt x="622" y="26" on="0"/>
        <pt x="686" y="43" on="0"/>
        <pt x="722" y="59" on="1"/>
      </contour>
      <contour>
        <pt x="379" y="213" on="1"/>
        <pt x="379" y="220" on="0"/>
        <pt x="379" y="234" on="0"/>
        <pt x="380" y="241" on="1"/>
        <pt x="196" y="241" on="1"/>
        <pt x="118" y="241" on="0"/>
        <pt x="88" y="211" on="1"/>
        <pt x="64" y="187" on="0"/>
        <pt x="64" y="142" on="1"/>
        <pt x="64" y="88" on="0"/>
        <pt x="139" y="24" on="0"/>
        <pt x="198" y="24" on="1"/>
        <pt x="224" y="24" on="0"/>
        <pt x="280" y="39" on="0"/>
        <pt x="334" y="62" on="0"/>
        <pt x="383" y="91" on="0"/>
        <pt x="402" y="105" on="1"/>
        <pt x="379" y="154" on="0"/>
      </contour>
      <contour>
        <pt x="773" y="271" on="1"/>
        <pt x="773" y="285" on="1"/>
        <pt x="774" y="369" on="0"/>
        <pt x="691" y="462" on="0"/>
        <pt x="621" y="462" on="1"/>
        <pt x="583" y="462" on="0"/>
        <pt x="516" y="431" on="0"/>
        <pt x="464" y="378" on="0"/>
        <pt x="430" y="309" on="0"/>
        <pt x="425" y="271" on="1"/>
      </contour>
    </TTGlyph>
    <TTGlyph name="aeacute" xMin="27" yMin="-8" xMax="809" yMax="693">
      <component glyphName="ae" x="0" y="0" flags="0x204"/>
      <component glyphName="acute" x="288" y="0" flags="0x4"/>
    </TTGlyph>
    <TTGlyph name="agrave" xMin="39" yMin="-8" xMax="496" yMax="692">
      <component glyphName="a" x="0" y="0" flags="0x204"/>
      <component glyphName="grave" x="81" y="0" flags="0x4"/>
    </TTGlyph>
    <TTGlyph name="amacron" xMin="39" yMin="-8" xMax="496" yMax="606">
      <component glyphName="a" x="0" y="0" flags="0x204"/>
      <component glyphName="macron" x="75" y="0" flags="0x4"/>
    </TTGlyph>
    <TTGlyph name="ampersand" xMin="27" yMin="-10" xMax="635" yMax="673">
      <contour>
        <pt x="610" y="389" on="1"/>
        <pt x="635" y="383" on="1"/>
        <pt x="574" y="206" on="0"/>
        <pt x="487" y="105" on="1"/>
        <pt x="542" y="33" on="1"/>
        <pt x="633" y="23" on="1"/>
        <pt x="631" y="9" on="1"/>
        <pt x="616" y="4" on="0"/>
        <pt x="583" y="-5" on="0"/>
        <pt x="572" y="-5" on="1"/>
        <pt x="546" y="-5" on="0"/>
        <pt x="512" y="17" on="0"/>
        <pt x="494" y="41" on="1"/>
        <pt x="463" y="81" on="1"/>
        <pt x="371" y="-10" on="0"/>
        <pt x="245" y="-10" on="1"/>
        <pt x="197" y="-10" on="0"/>
        <pt x="116" y="21" on="0"/>
        <pt x="59" y="74" on="0"/>
        <pt x="27" y="146" on="0"/>
        <pt x="27" y="187" on="1"/>
        <pt x="27" y="253" on="0"/>
        <pt x="124" y="367" on="0"/>
        <pt x="212" y="415" on="1"/>
        <pt x="195" y="439" on="0"/>
        <pt x="174" y="494" on="0"/>
        <pt x="174" y="522" on="1"/>
        <pt x="174" y="552" on="0"/>
        <pt x="200" y="607" on="0"/>
        <pt x="245" y="649" on="0"/>
        <pt x="306" y="673" on="0"/>
        <pt x="340" y="673" on="1"/>
        <pt x="369" y="673" on="0"/>
        <pt x="421" y="655" on="0"/>
        <pt x="460" y="621" on="0"/>
        <pt x="483" y="574" on="0"/>
        <pt x="483" y="545" on="1"/>
        <pt x="483" y="515" on="0"/>
        <pt x="458" y="459" on="0"/>
        <pt x="414" y="405" on="0"/>
        <pt x="354" y="354" on="0"/>
        <pt x="318" y="328" on="1"/>
        <pt x="467" y="131" on="1"/>
        <pt x="495" y="163" on="0"/>
        <pt x="543" y="242" on="0"/>
        <pt x="563" y="286" on="1"/>
      </contour>
      <contour>
        <pt x="66" y="188" on="1"/>
        <pt x="66" y="154" on="0"/>
        <pt x="92" y="94" on="0"/>
        <pt x="139" y="49" on="0"/>
        <pt x="206" y="23" on="0"/>
        <pt x="247" y="23" on="1"/>
        <pt x="307" y="23" on="0"/>
        <pt x="404" y="68" on="0"/>
        <pt x="444" y="106" on="1"/>
        <pt x="227" y="393" on="1"/>
        <pt x="216" y="386" on="1"/>
        <pt x="181" y="363" on="0"/>
        <pt x="126" y="319" on="0"/>
        <pt x="87" y="271" on="0"/>
        <pt x="66" y="219" on="0"/>
      </contour>
      <contour>
        <pt x="349" y="388" on="1"/>
        <pt x="405" y="437" on="0"/>
        <pt x="449" y="508" on="0"/>
        <pt x="449" y="542" on="1"/>
        <pt x="449" y="586" on="0"/>
        <pt x="390" y="640" on="0"/>
        <pt x="340" y="640" on="1"/>
        <pt x="312" y="640" on="0"/>
        <pt x="264" y="622" on="0"/>
        <pt x="229" y="591" on="0"/>
        <pt x="209" y="549" on="0"/>
        <pt x="209" y="524" on="1"/>
        <pt x="209" y="509" on="0"/>
        <pt x="215" y="482" on="0"/>
        <pt x="229" y="451" on="0"/>
        <pt x="254" y="413" on="0"/>
        <pt x="273" y="388" on="1"/>
        <pt x="303" y="348" on="1"/>
      </contour>
    </TTGlyph>
    <TTGlyph name="aogonek" xMin="39" yMin="-173" xMax="496" yMax="496">
      <contour>
        <pt x="460" y="2" on="1"/>
        <pt x="411" y="-14" on="0"/>
        <pt x="358" y="-72" on="0"/>
        <pt x="358" y="-100" on="1"/>
        <pt x="358" y="-119" on="0"/>
        <pt x="383" y="-143" on="0"/>
        <pt x="409" y="-143" on="1"/>
        <pt x="414" y="-143" on="0"/>
        <pt x="429" y="-142" on="0"/>
        <pt x="436" y="-141" on="1"/>
        <pt x="467" y="-137" on="1"/>
        <pt x="471" y="-156" on="1"/>
        <pt x="460" y="-164" on="0"/>
        <pt x="419" y="-173" on="0"/>
        <pt x="401" y="-173" on="1"/>
        <pt x="359" y="-173" on="0"/>
        <pt x="319" y="-133" on="0"/>
        <pt x="319" y="-105" on="1"/>
        <pt x="319" y="-89" on="0"/>
        <pt x="334" y="-57" on="0"/>
        <pt x="358" y="-29" on="0"/>
        <pt x="390" y="-6" on="0"/>
        <pt x="407" y="2" on="1"/>
        <pt x="394" y="7" on="0"/>
        <pt x="379" y="27" on="0"/>
        <pt x="379" y="43" on="1"/>
        <pt x="379" y="59" on="1"/>
        <pt x="360" y="46" on="1"/>
        <pt x="322" y="20" on="0"/>
        <pt x="250" y="-8" on="0"/>
        <pt x="211" y="-8" on="1"/>
        <pt x="168" y="-8" on="0"/>
        <pt x="104" y="25" on="0"/>
        <pt x="61" y="82" on="0"/>
        <pt x="39" y="158" on="0"/>
        <pt x="39" y="200" on="1"/>
        <pt x="39" y="259" on="0"/>
        <pt x="75" y="366" on="0"/>
        <pt x="139" y="448" on="0"/>
        <pt x="227" y="496" on="0"/>
        <pt x="279" y="496" on="1"/>
        <pt x="314" y="496" on="0"/>
        <pt x="376" y="472" on="0"/>
        <pt x="410" y="448" on="1"/>
        <pt x="428" y="435" on="1"/>
        <pt x="443" y="488" on="1"/>
        <pt x="471" y="485" on="1"/>
        <pt x="416" y="35" on="1"/>
        <pt x="496" y="26" on="1"/>
        <pt x="494" y="13" on="1"/>
      </contour>
      <contour>
        <pt x="371" y="86" on="1"/>
        <pt x="379" y="92" on="0"/>
        <pt x="383" y="99" on="0"/>
        <pt x="384" y="104" on="1"/>
        <pt x="420" y="393" on="1"/>
        <pt x="421" y="402" on="0"/>
        <pt x="417" y="409" on="0"/>
        <pt x="410" y="414" on="1"/>
        <pt x="380" y="437" on="0"/>
        <pt x="318" y="462" on="0"/>
        <pt x="282" y="462" on="1"/>
        <pt x="240" y="462" on="0"/>
        <pt x="166" y="425" on="0"/>
        <pt x="111" y="357" on="0"/>
        <pt x="79" y="261" on="0"/>
        <pt x="79" y="203" on="1"/>
        <pt x="79" y="167" on="0"/>
        <pt x="94" y="103" on="0"/>
        <pt x="127" y="54" on="0"/>
        <pt x="180" y="26" on="0"/>
        <pt x="218" y="26" on="1"/>
        <pt x="259" y="26" on="0"/>
        <pt x="338" y="62" on="0"/>
      </contour>
    </TTGlyph>
    <TTGlyph name="apple" xMin="78" yMin="0" xMax="466" yMax="650">
      <contour>
        <pt x="208" y="357" on="1"/>
        <pt x="208" y="370" on="0"/>
        <pt x="227" y="388" on="0"/>
        <pt x="239" y="388" on="1"/>
        <pt x="252" y="388" on="0"/>
        <pt x="269" y="370" on="0"/>
        <pt x="269" y="357" on="1"/>
        <pt x="269" y="344" on="0"/>
        <pt x="252" y="327" on="0"/>
        <pt x="239" y="327" on="1"/>
        <pt x="227" y="327" on="0"/>
        <pt x="208" y="344" on="0"/>
      </contour>
      <contour>
        <pt x="405" y="357" on="1"/>
        <pt x="405" y="370" on="0"/>
        <pt x="424" y="388" on="0"/>
        <pt x="436" y="388" on="1"/>
        <pt x="449" y="388" on="0"/>
        <pt x="466" y="370" on="0"/>
        <pt x="466" y="357" on="1"/>
        <pt x="466" y="344" on="0"/>
        <pt x="449" y="327" on="0"/>
        <pt x="436" y="327" on="1"/>
        <pt x="424" y="327" on="0"/>
        <pt x="405" y="344" on="0"/>
      </contour>
      <contour>
        <pt x="78" y="161" on="1"/>
        <pt x="78" y="174" on="0"/>
        <pt x="95" y="191" on="0"/>
        <pt x="108" y="191" on="1"/>
        <pt x="120" y="191" on="0"/>
        <pt x="139" y="174" on="0"/>
        <pt x="139" y="161" on="1"/>
        <pt x="139" y="148" on="0"/>
        <pt x="120" y="130" on="0"/>
        <pt x="108" y="130" on="1"/>
        <pt x="95" y="130" on="0"/>
        <pt x="78" y="148" on="0"/>
      </contour>
      <contour>
        <pt x="78" y="357" on="1"/>
        <pt x="78" y="370" on="0"/>
        <pt x="95" y="388" on="0"/>
        <pt x="108" y="388" on="1"/>
        <pt x="120" y="388" on="0"/>
        <pt x="139" y="370" on="0"/>
        <pt x="139" y="357" on="1"/>
        <pt x="139" y="344" on="0"/>
        <pt x="120" y="327" on="0"/>
        <pt x="108" y="327" on="1"/>
        <pt x="95" y="327" on="0"/>
        <pt x="78" y="344" on="0"/>
      </contour>
      <contour>
        <pt x="275" y="357" on="1"/>
        <pt x="275" y="370" on="0"/>
        <pt x="292" y="388" on="0"/>
        <pt x="305" y="388" on="1"/>
        <pt x="317" y="388" on="0"/>
        <pt x="336" y="370" on="0"/>
        <pt x="336" y="357" on="1"/>
        <pt x="336" y="344" on="0"/>
        <pt x="317" y="327" on="0"/>
        <pt x="305" y="327" on="1"/>
        <pt x="292" y="327" on="0"/>
        <pt x="275" y="344" on="0"/>
      </contour>
      <contour>
        <pt x="340" y="620" on="1"/>
        <pt x="340" y="632" on="0"/>
        <pt x="357" y="650" on="0"/>
        <pt x="371" y="650" on="1"/>
        <pt x="382" y="650" on="0"/>
        <pt x="401" y="632" on="0"/>
        <pt x="401" y="620" on="1"/>
        <pt x="401" y="606" on="0"/>
        <pt x="382" y="589" on="0"/>
        <pt x="371" y="589" on="1"/>
        <pt x="357" y="589" on="0"/>
        <pt x="340" y="606" on="0"/>
      </contour>
      <contour>
        <pt x="78" y="620" on="1"/>
        <pt x="78" y="632" on="0"/>
        <pt x="95" y="650" on="0"/>
        <pt x="108" y="650" on="1"/>
        <pt x="120" y="650" on="0"/>
        <pt x="139" y="632" on="0"/>
        <pt x="139" y="620" on="1"/>
        <pt x="139" y="606" on="0"/>
        <pt x="120" y="589" on="0"/>
        <pt x="108" y="589" on="1"/>
        <pt x="95" y="589" on="0"/>
        <pt x="78" y="606" on="0"/>
      </contour>
      <contour>
        <pt x="275" y="620" on="1"/>
        <pt x="275" y="632" on="0"/>
        <pt x="292" y="650" on="0"/>
        <pt x="305" y="650" on="1"/>
        <pt x="317" y="650" on="0"/>
        <pt x="336" y="632" on="0"/>
        <pt x="336" y="620" on="1"/>
        <pt x="336" y="606" on="0"/>
        <pt x="317" y="589" on="0"/>
        <pt x="305" y="589" on="1"/>
        <pt x="292" y="589" on="0"/>
        <pt x="275" y="606" on="0"/>
      </contour>
      <contour>
        <pt x="405" y="620" on="1"/>
        <pt x="405" y="632" on="0"/>
        <pt x="424" y="650" on="0"/>
        <pt x="436" y="650" on="1"/>
        <pt x="449" y="650" on="0"/>
        <pt x="466" y="632" on="0"/>
        <pt x="466" y="620" on="1"/>
        <pt x="466" y="606" on="0"/>
        <pt x="449" y="589" on="0"/>
        <pt x="436" y="589" on="1"/>
        <pt x="424" y="589" on="0"/>
        <pt x="405" y="606" on="0"/>
      </contour>
      <contour>
        <pt x="208" y="620" on="1"/>
        <pt x="208" y="632" on="0"/>
        <pt x="227" y="650" on="0"/>
        <pt x="239" y="650" on="1"/>
        <pt x="252" y="650" on="0"/>
        <pt x="269" y="632" on="0"/>
        <pt x="269" y="620" on="1"/>
        <pt x="269" y="606" on="0"/>
        <pt x="252" y="589" on="0"/>
        <pt x="239" y="589" on="1"/>
        <pt x="227" y="589" on="0"/>
        <pt x="208" y="606" on="0"/>
      </contour>
      <contour>
        <pt x="340" y="357" on="1"/>
        <pt x="340" y="370" on="0"/>
        <pt x="357" y="388" on="0"/>
        <pt x="371" y="388" on="1"/>
        <pt x="382" y="388" on="0"/>
        <pt x="401" y="370" on="0"/>
        <pt x="401" y="357" on="1"/>
        <pt x="401" y="344" on="0"/>
        <pt x="382" y="327" on="0"/>
        <pt x="371" y="327" on="1"/>
        <pt x="357" y="327" on="0"/>
        <pt x="340" y="344" on="0"/>
      </contour>
      <contour>
        <pt x="208" y="30" on="1"/>
        <pt x="208" y="42" on="0"/>
        <pt x="227" y="61" on="0"/>
        <pt x="239" y="61" on="1"/>
        <pt x="252" y="61" on="0"/>
        <pt x="269" y="42" on="0"/>
        <pt x="269" y="30" on="1"/>
        <pt x="269" y="17" on="0"/>
        <pt x="252" y="0" on="0"/>
        <pt x="239" y="0" on="1"/>
        <pt x="227" y="0" on="0"/>
        <pt x="208" y="17" on="0"/>
      </contour>
      <contour>
        <pt x="78" y="30" on="1"/>
        <pt x="78" y="42" on="0"/>
        <pt x="95" y="61" on="0"/>
        <pt x="108" y="61" on="1"/>
        <pt x="120" y="61" on="0"/>
        <pt x="139" y="42" on="0"/>
        <pt x="139" y="30" on="1"/>
        <pt x="139" y="17" on="0"/>
        <pt x="120" y="0" on="0"/>
        <pt x="108" y="0" on="1"/>
        <pt x="95" y="0" on="0"/>
        <pt x="78" y="17" on="0"/>
      </contour>
      <contour>
        <pt x="208" y="95" on="1"/>
        <pt x="208" y="109" on="0"/>
        <pt x="227" y="125" on="0"/>
        <pt x="239" y="125" on="1"/>
        <pt x="252" y="125" on="0"/>
        <pt x="269" y="109" on="0"/>
        <pt x="269" y="95" on="1"/>
        <pt x="269" y="82" on="0"/>
        <pt x="252" y="65" on="0"/>
        <pt x="239" y="65" on="1"/>
        <pt x="227" y="65" on="0"/>
        <pt x="208" y="82" on="0"/>
      </contour>
      <contour>
        <pt x="78" y="95" on="1"/>
        <pt x="78" y="109" on="0"/>
        <pt x="95" y="125" on="0"/>
        <pt x="108" y="125" on="1"/>
        <pt x="120" y="125" on="0"/>
        <pt x="139" y="109" on="0"/>
        <pt x="139" y="95" on="1"/>
        <pt x="139" y="82" on="0"/>
        <pt x="120" y="65" on="0"/>
        <pt x="108" y="65" on="1"/>
        <pt x="95" y="65" on="0"/>
        <pt x="78" y="82" on="0"/>
      </contour>
      <contour>
        <pt x="144" y="620" on="1"/>
        <pt x="144" y="632" on="0"/>
        <pt x="162" y="650" on="0"/>
        <pt x="174" y="650" on="1"/>
        <pt x="187" y="650" on="0"/>
        <pt x="204" y="632" on="0"/>
        <pt x="204" y="620" on="1"/>
        <pt x="204" y="606" on="0"/>
        <pt x="187" y="589" on="0"/>
        <pt x="174" y="589" on="1"/>
        <pt x="162" y="589" on="0"/>
        <pt x="144" y="606" on="0"/>
      </contour>
      <contour>
        <pt x="78" y="489" on="1"/>
        <pt x="78" y="501" on="0"/>
        <pt x="95" y="518" on="0"/>
        <pt x="108" y="518" on="1"/>
        <pt x="120" y="518" on="0"/>
        <pt x="139" y="501" on="0"/>
        <pt x="139" y="489" on="1"/>
        <pt x="139" y="476" on="0"/>
        <pt x="120" y="458" on="0"/>
        <pt x="108" y="458" on="1"/>
        <pt x="95" y="458" on="0"/>
        <pt x="78" y="476" on="0"/>
      </contour>
      <contour>
        <pt x="275" y="489" on="1"/>
        <pt x="275" y="501" on="0"/>
        <pt x="292" y="518" on="0"/>
        <pt x="305" y="518" on="1"/>
        <pt x="317" y="518" on="0"/>
        <pt x="336" y="501" on="0"/>
        <pt x="336" y="489" on="1"/>
        <pt x="336" y="476" on="0"/>
        <pt x="317" y="458" on="0"/>
        <pt x="305" y="458" on="1"/>
        <pt x="292" y="458" on="0"/>
        <pt x="275" y="476" on="0"/>
      </contour>
      <contour>
        <pt x="208" y="489" on="1"/>
        <pt x="208" y="501" on="0"/>
        <pt x="227" y="518" on="0"/>
        <pt x="239" y="518" on="1"/>
        <pt x="252" y="518" on="0"/>
        <pt x="269" y="501" on="0"/>
        <pt x="269" y="489" on="1"/>
        <pt x="269" y="476" on="0"/>
        <pt x="252" y="458" on="0"/>
        <pt x="239" y="458" on="1"/>
        <pt x="227" y="458" on="0"/>
        <pt x="208" y="476" on="0"/>
      </contour>
      <contour>
        <pt x="405" y="489" on="1"/>
        <pt x="405" y="501" on="0"/>
        <pt x="424" y="518" on="0"/>
        <pt x="436" y="518" on="1"/>
        <pt x="449" y="518" on="0"/>
        <pt x="466" y="501" on="0"/>
        <pt x="466" y="489" on="1"/>
        <pt x="466" y="476" on="0"/>
        <pt x="449" y="458" on="0"/>
        <pt x="436" y="458" on="1"/>
        <pt x="424" y="458" on="0"/>
        <pt x="405" y="476" on="0"/>
      </contour>
      <contour>
        <pt x="340" y="489" on="1"/>
        <pt x="340" y="501" on="0"/>
        <pt x="357" y="518" on="0"/>
        <pt x="371" y="518" on="1"/>
        <pt x="382" y="518" on="0"/>
        <pt x="401" y="501" on="0"/>
        <pt x="401" y="489" on="1"/>
        <pt x="401" y="476" on="0"/>
        <pt x="382" y="458" on="0"/>
        <pt x="371" y="458" on="1"/>
        <pt x="357" y="458" on="0"/>
        <pt x="340" y="476" on="0"/>
      </contour>
      <contour>
        <pt x="144" y="30" on="1"/>
        <pt x="144" y="42" on="0"/>
        <pt x="162" y="61" on="0"/>
        <pt x="174" y="61" on="1"/>
        <pt x="187" y="61" on="0"/>
        <pt x="204" y="42" on="0"/>
        <pt x="204" y="30" on="1"/>
        <pt x="204" y="17" on="0"/>
        <pt x="187" y="0" on="0"/>
        <pt x="174" y="0" on="1"/>
        <pt x="162" y="0" on="0"/>
        <pt x="144" y="17" on="0"/>
      </contour>
      <contour>
        <pt x="78" y="292" on="1"/>
        <pt x="78" y="304" on="0"/>
        <pt x="95" y="322" on="0"/>
        <pt x="108" y="322" on="1"/>
        <pt x="120" y="322" on="0"/>
        <pt x="139" y="304" on="0"/>
        <pt x="139" y="292" on="1"/>
        <pt x="139" y="279" on="0"/>
        <pt x="120" y="262" on="0"/>
        <pt x="108" y="262" on="1"/>
        <pt x="95" y="262" on="0"/>
        <pt x="78" y="279" on="0"/>
      </contour>
      <contour>
        <pt x="78" y="554" on="1"/>
        <pt x="78" y="566" on="0"/>
        <pt x="95" y="584" on="0"/>
        <pt x="108" y="584" on="1"/>
        <pt x="120" y="584" on="0"/>
        <pt x="139" y="566" on="0"/>
        <pt x="139" y="554" on="1"/>
        <pt x="139" y="541" on="0"/>
        <pt x="120" y="524" on="0"/>
        <pt x="108" y="524" on="1"/>
        <pt x="95" y="524" on="0"/>
        <pt x="78" y="541" on="0"/>
      </contour>
      <contour>
        <pt x="405" y="292" on="1"/>
        <pt x="405" y="304" on="0"/>
        <pt x="424" y="322" on="0"/>
        <pt x="436" y="322" on="1"/>
        <pt x="449" y="322" on="0"/>
        <pt x="466" y="304" on="0"/>
        <pt x="466" y="292" on="1"/>
        <pt x="466" y="279" on="0"/>
        <pt x="449" y="262" on="0"/>
        <pt x="436" y="262" on="1"/>
        <pt x="424" y="262" on="0"/>
        <pt x="405" y="279" on="0"/>
      </contour>
      <contour>
        <pt x="78" y="423" on="1"/>
        <pt x="78" y="436" on="0"/>
        <pt x="95" y="453" on="0"/>
        <pt x="108" y="453" on="1"/>
        <pt x="120" y="453" on="0"/>
        <pt x="139" y="436" on="0"/>
        <pt x="139" y="423" on="1"/>
        <pt x="139" y="410" on="0"/>
        <pt x="120" y="394" on="0"/>
        <pt x="108" y="394" on="1"/>
        <pt x="95" y="394" on="0"/>
        <pt x="78" y="410" on="0"/>
      </contour>
      <contour>
        <pt x="208" y="423" on="1"/>
        <pt x="208" y="436" on="0"/>
        <pt x="227" y="453" on="0"/>
        <pt x="239" y="453" on="1"/>
        <pt x="252" y="453" on="0"/>
        <pt x="269" y="436" on="0"/>
        <pt x="269" y="423" on="1"/>
        <pt x="269" y="410" on="0"/>
        <pt x="252" y="394" on="0"/>
        <pt x="239" y="394" on="1"/>
        <pt x="227" y="394" on="0"/>
        <pt x="208" y="410" on="0"/>
      </contour>
      <contour>
        <pt x="208" y="227" on="1"/>
        <pt x="208" y="239" on="0"/>
        <pt x="227" y="256" on="0"/>
        <pt x="239" y="256" on="1"/>
        <pt x="252" y="256" on="0"/>
        <pt x="269" y="239" on="0"/>
        <pt x="269" y="227" on="1"/>
        <pt x="269" y="214" on="0"/>
        <pt x="252" y="197" on="0"/>
        <pt x="239" y="197" on="1"/>
        <pt x="227" y="197" on="0"/>
        <pt x="208" y="214" on="0"/>
      </contour>
      <contour>
        <pt x="405" y="227" on="1"/>
        <pt x="405" y="239" on="0"/>
        <pt x="424" y="256" on="0"/>
        <pt x="436" y="256" on="1"/>
        <pt x="449" y="256" on="0"/>
        <pt x="466" y="239" on="0"/>
        <pt x="466" y="227" on="1"/>
        <pt x="466" y="214" on="0"/>
        <pt x="449" y="197" on="0"/>
        <pt x="436" y="197" on="1"/>
        <pt x="424" y="197" on="0"/>
        <pt x="405" y="214" on="0"/>
      </contour>
      <contour>
        <pt x="78" y="227" on="1"/>
        <pt x="78" y="239" on="0"/>
        <pt x="95" y="256" on="0"/>
        <pt x="108" y="256" on="1"/>
        <pt x="120" y="256" on="0"/>
        <pt x="139" y="239" on="0"/>
        <pt x="139" y="227" on="1"/>
        <pt x="139" y="214" on="0"/>
        <pt x="120" y="197" on="0"/>
        <pt x="108" y="197" on="1"/>
        <pt x="95" y="197" on="0"/>
        <pt x="78" y="214" on="0"/>
      </contour>
      <contour>
        <pt x="275" y="227" on="1"/>
        <pt x="275" y="239" on="0"/>
        <pt x="292" y="256" on="0"/>
        <pt x="305" y="256" on="1"/>
        <pt x="317" y="256" on="0"/>
        <pt x="336" y="239" on="0"/>
        <pt x="336" y="227" on="1"/>
        <pt x="336" y="214" on="0"/>
        <pt x="317" y="197" on="0"/>
        <pt x="305" y="197" on="1"/>
        <pt x="292" y="197" on="0"/>
        <pt x="275" y="214" on="0"/>
      </contour>
      <contour>
        <pt x="340" y="227" on="1"/>
        <pt x="340" y="239" on="0"/>
        <pt x="357" y="256" on="0"/>
        <pt x="371" y="256" on="1"/>
        <pt x="382" y="256" on="0"/>
        <pt x="401" y="239" on="0"/>
        <pt x="401" y="227" on="1"/>
        <pt x="401" y="214" on="0"/>
        <pt x="382" y="197" on="0"/>
        <pt x="371" y="197" on="1"/>
        <pt x="357" y="197" on="0"/>
        <pt x="340" y="214" on="0"/>
      </contour>
    </TTGlyph>
    <TTGlyph name="approxequal" xMin="51" yMin="131" xMax="436" yMax="359">
      <contour>
        <pt x="436" y="350" on="1"/>
        <pt x="412" y="315" on="0"/>
        <pt x="360" y="277" on="0"/>
        <pt x="332" y="277" on="1"/>
        <pt x="310" y="277" on="0"/>
        <pt x="269" y="291" on="0"/>
        <pt x="230" y="308" on="0"/>
        <pt x="193" y="322" on="0"/>
        <pt x="175" y="322" on="1"/>
        <pt x="145" y="322" on="0"/>
        <pt x="106" y="300" on="0"/>
        <pt x="86" y="276" on="1"/>
        <pt x="68" y="285" on="1"/>
        <pt x="93" y="320" on="0"/>
        <pt x="145" y="358" on="0"/>
        <pt x="173" y="358" on="1"/>
        <pt x="195" y="358" on="0"/>
        <pt x="235" y="344" on="0"/>
        <pt x="274" y="327" on="0"/>
        <pt x="311" y="313" on="0"/>
        <pt x="330" y="313" on="1"/>
        <pt x="360" y="313" on="0"/>
        <pt x="399" y="335" on="0"/>
        <pt x="419" y="359" on="1"/>
      </contour>
      <contour>
        <pt x="419" y="205" on="1"/>
        <pt x="395" y="170" on="0"/>
        <pt x="343" y="132" on="0"/>
        <pt x="315" y="132" on="1"/>
        <pt x="293" y="132" on="0"/>
        <pt x="252" y="146" on="0"/>
        <pt x="213" y="163" on="0"/>
        <pt x="176" y="177" on="0"/>
        <pt x="158" y="177" on="1"/>
        <pt x="128" y="177" on="0"/>
        <pt x="89" y="155" on="0"/>
        <pt x="69" y="131" on="1"/>
        <pt x="51" y="140" on="1"/>
        <pt x="76" y="175" on="0"/>
        <pt x="128" y="213" on="0"/>
        <pt x="156" y="213" on="1"/>
        <pt x="178" y="213" on="0"/>
        <pt x="218" y="199" on="0"/>
        <pt x="257" y="182" on="0"/>
        <pt x="294" y="168" on="0"/>
        <pt x="313" y="168" on="1"/>
        <pt x="343" y="168" on="0"/>
        <pt x="382" y="190" on="0"/>
        <pt x="402" y="214" on="1"/>
      </contour>
    </TTGlyph>
    <TTGlyph name="aring" xMin="39" yMin="-8" xMax="496" yMax="736">
      <component glyphName="a" x="0" y="0" flags="0x204"/>
      <component glyphName="ring" x="79" y="0" flags="0x4"/>
    </TTGlyph>
    <TTGlyph name="aringacute" xMin="39" yMin="-8" xMax="496" yMax="888">
      <component glyphName="a" x="0" y="0" flags="0x204"/>
      <component glyphName="ring" x="88" y="-24" flags="0x4"/>
      <component glyphName="acute" x="121" y="195" flags="0x4"/>
    </TTGlyph>
    <TTGlyph name="arrowdown" xMin="179" yMin="-66" xMax="587" yMax="554">
      <contour>
        <pt x="179" y="122" on="1"/>
        <pt x="198" y="141" on="1"/>
        <pt x="364" y="-17" on="1"/>
        <pt x="364" y="554" on="1"/>
        <pt x="400" y="554" on="1"/>
        <pt x="400" y="-17" on="1"/>
        <pt x="568" y="141" on="1"/>
        <pt x="587" y="122" on="1"/>
        <pt x="400" y="-66" on="1"/>
        <pt x="375" y="-66" on="1"/>
        <pt x="370" y="-66" on="0"/>
        <pt x="365" y="-65" on="0"/>
        <pt x="362" y="-62" on="1"/>
      </contour>
    </TTGlyph>
    <TTGlyph name="arrowdown.cap" xMin="179" yMin="23" xMax="587" yMax="643">
      <contour>
        <pt x="179" y="211" on="1"/>
        <pt x="198" y="230" on="1"/>
        <pt x="364" y="72" on="1"/>
        <pt x="364" y="643" on="1"/>
        <pt x="400" y="643" on="1"/>
        <pt x="400" y="72" on="1"/>
        <pt x="568" y="230" on="1"/>
        <pt x="587" y="211" on="1"/>
        <pt x="400" y="23" on="1"/>
        <pt x="375" y="23" on="1"/>
        <pt x="370" y="23" on="0"/>
        <pt x="365" y="24" on="0"/>
        <pt x="362" y="27" on="1"/>
      </contour>
    </TTGlyph>
    <TTGlyph name="arrowleft" xMin="73" yMin="42" xMax="693" yMax="450">
      <contour>
        <pt x="261" y="450" on="1"/>
        <pt x="280" y="431" on="1"/>
        <pt x="122" y="263" on="1"/>
        <pt x="693" y="263" on="1"/>
        <pt x="693" y="231" on="1"/>
        <pt x="122" y="231" on="1"/>
        <pt x="280" y="61" on="1"/>
        <pt x="261" y="42" on="1"/>
        <pt x="73" y="229" on="1"/>
        <pt x="73" y="254" on="1"/>
        <pt x="73" y="263" on="0"/>
        <pt x="77" y="267" on="1"/>
      </contour>
    </TTGlyph>
    <TTGlyph name="arrowleft.cap" xMin="73" yMin="127" xMax="693" yMax="535">
      <contour>
        <pt x="261" y="535" on="1"/>
        <pt x="280" y="516" on="1"/>
        <pt x="122" y="348" on="1"/>
        <pt x="693" y="348" on="1"/>
        <pt x="693" y="316" on="1"/>
        <pt x="122" y="316" on="1"/>
        <pt x="280" y="146" on="1"/>
        <pt x="261" y="127" on="1"/>
        <pt x="73" y="314" on="1"/>
        <pt x="73" y="339" on="1"/>
        <pt x="73" y="348" on="0"/>
        <pt x="77" y="352" on="1"/>
      </contour>
    </TTGlyph>
    <TTGlyph name="arrowright" xMin="73" yMin="44" xMax="693" yMax="452">
      <contour>
        <pt x="505" y="44" on="1"/>
        <pt x="486" y="63" on="1"/>
        <pt x="644" y="231" on="1"/>
        <pt x="73" y="231" on="1"/>
        <pt x="73" y="263" on="1"/>
        <pt x="644" y="263" on="1"/>
        <pt x="486" y="433" on="1"/>
        <pt x="505" y="452" on="1"/>
        <pt x="693" y="265" on="1"/>
        <pt x="693" y="240" on="1"/>
        <pt x="693" y="235" on="0"/>
        <pt x="692" y="230" on="0"/>
        <pt x="689" y="227" on="1"/>
      </contour>
    </TTGlyph>
    <TTGlyph name="arrowright.cap" xMin="73" yMin="129" xMax="693" yMax="537">
      <contour>
        <pt x="505" y="129" on="1"/>
        <pt x="486" y="148" on="1"/>
        <pt x="644" y="316" on="1"/>
        <pt x="73" y="316" on="1"/>
        <pt x="73" y="348" on="1"/>
        <pt x="644" y="348" on="1"/>
        <pt x="486" y="518" on="1"/>
        <pt x="505" y="537" on="1"/>
        <pt x="693" y="350" on="1"/>
        <pt x="693" y="325" on="1"/>
        <pt x="693" y="320" on="0"/>
        <pt x="692" y="315" on="0"/>
        <pt x="689" y="312" on="1"/>
      </contour>
    </TTGlyph>
    <TTGlyph name="arrowup" xMin="179" yMin="-66" xMax="587" yMax="554">
      <contour>
        <pt x="587" y="366" on="1"/>
        <pt x="568" y="347" on="1"/>
        <pt x="402" y="505" on="1"/>
        <pt x="402" y="-66" on="1"/>
        <pt x="366" y="-66" on="1"/>
        <pt x="366" y="505" on="1"/>
        <pt x="198" y="347" on="1"/>
        <pt x="179" y="366" on="1"/>
        <pt x="366" y="554" on="1"/>
        <pt x="391" y="554" on="1"/>
        <pt x="396" y="554" on="0"/>
        <pt x="401" y="553" on="0"/>
        <pt x="404" y="550" on="1"/>
      </contour>
    </TTGlyph>
    <TTGlyph name="arrowup.cap" xMin="179" yMin="21" xMax="587" yMax="641">
      <contour>
        <pt x="587" y="453" on="1"/>
        <pt x="568" y="434" on="1"/>
        <pt x="402" y="592" on="1"/>
        <pt x="402" y="21" on="1"/>
        <pt x="366" y="21" on="1"/>
        <pt x="366" y="592" on="1"/>
        <pt x="198" y="434" on="1"/>
        <pt x="179" y="453" on="1"/>
        <pt x="366" y="641" on="1"/>
        <pt x="391" y="641" on="1"/>
        <pt x="400" y="641" on="0"/>
        <pt x="404" y="637" on="1"/>
      </contour>
    </TTGlyph>
    <TTGlyph name="asciicircum" xMin="90" yMin="443" xMax="451" yMax="673">
      <contour>
        <pt x="291" y="637" on="1"/>
        <pt x="114" y="443" on="1"/>
        <pt x="90" y="462" on="1"/>
        <pt x="281" y="673" on="1"/>
        <pt x="312" y="673" on="1"/>
        <pt x="451" y="462" on="1"/>
        <pt x="421" y="443" on="1"/>
      </contour>
    </TTGlyph>
    <TTGlyph name="asciitilde" xMin="73" yMin="276" xMax="441" yMax="359">
      <contour>
        <pt x="441" y="350" on="1"/>
        <pt x="417" y="315" on="0"/>
        <pt x="365" y="277" on="0"/>
        <pt x="337" y="277" on="1"/>
        <pt x="315" y="277" on="0"/>
        <pt x="274" y="291" on="0"/>
        <pt x="235" y="308" on="0"/>
        <pt x="198" y="322" on="0"/>
        <pt x="180" y="322" on="1"/>
        <pt x="150" y="322" on="0"/>
        <pt x="111" y="300" on="0"/>
        <pt x="91" y="276" on="1"/>
        <pt x="73" y="285" on="1"/>
        <pt x="98" y="320" on="0"/>
        <pt x="150" y="358" on="0"/>
        <pt x="178" y="358" on="1"/>
        <pt x="200" y="358" on="0"/>
        <pt x="240" y="344" on="0"/>
        <pt x="279" y="327" on="0"/>
        <pt x="316" y="313" on="0"/>
        <pt x="335" y="313" on="1"/>
        <pt x="365" y="313" on="0"/>
        <pt x="404" y="335" on="0"/>
        <pt x="424" y="359" on="1"/>
      </contour>
    </TTGlyph>
    <TTGlyph name="asterisk" xMin="81" yMin="344" xMax="383" yMax="663">
      <contour>
        <pt x="309" y="350" on="1"/>
        <pt x="299" y="344" on="0"/>
        <pt x="293" y="354" on="1"/>
        <pt x="227" y="474" on="1"/>
        <pt x="125" y="344" on="1"/>
        <pt x="102" y="359" on="1"/>
        <pt x="96" y="363" on="0"/>
        <pt x="97" y="369" on="0"/>
        <pt x="102" y="374" on="1"/>
        <pt x="209" y="483" on="1"/>
        <pt x="81" y="532" on="1"/>
        <pt x="94" y="562" on="1"/>
        <pt x="98" y="572" on="0"/>
        <pt x="108" y="566" on="1"/>
        <pt x="220" y="500" on="1"/>
        <pt x="228" y="663" on="1"/>
        <pt x="258" y="663" on="1"/>
        <pt x="263" y="663" on="0"/>
        <pt x="268" y="659" on="0"/>
        <pt x="266" y="651" on="1"/>
        <pt x="238" y="498" on="1"/>
        <pt x="373" y="563" on="1"/>
        <pt x="381" y="539" on="1"/>
        <pt x="383" y="531" on="0"/>
        <pt x="380" y="525" on="0"/>
        <pt x="373" y="523" on="1"/>
        <pt x="246" y="483" on="1"/>
        <pt x="333" y="365" on="1"/>
      </contour>
    </TTGlyph>
    <TTGlyph name="at" xMin="31" yMin="-97" xMax="689" yMax="584">
      <contour>
        <pt x="500" y="403" on="1"/>
        <pt x="474" y="188" on="1"/>
        <pt x="472" y="171" on="0"/>
        <pt x="470" y="151" on="0"/>
        <pt x="470" y="145" on="1"/>
        <pt x="470" y="126" on="0"/>
        <pt x="492" y="104" on="0"/>
        <pt x="515" y="104" on="1"/>
        <pt x="547" y="104" on="0"/>
        <pt x="598" y="137" on="0"/>
        <pt x="633" y="194" on="0"/>
        <pt x="652" y="270" on="0"/>
        <pt x="652" y="313" on="1"/>
        <pt x="652" y="366" on="0"/>
        <pt x="619" y="453" on="0"/>
        <pt x="554" y="515" on="0"/>
        <pt x="459" y="549" on="0"/>
        <pt x="398" y="549" on="1"/>
        <pt x="333" y="549" on="0"/>
        <pt x="215" y="496" on="0"/>
        <pt x="125" y="402" on="0"/>
        <pt x="72" y="274" on="0"/>
        <pt x="72" y="198" on="1"/>
        <pt x="72" y="137" on="0"/>
        <pt x="111" y="40" on="0"/>
        <pt x="180" y="-27" on="0"/>
        <pt x="277" y="-63" on="0"/>
        <pt x="334" y="-63" on="1"/>
        <pt x="378" y="-63" on="0"/>
        <pt x="472" y="-42" on="0"/>
        <pt x="523" y="-24" on="1"/>
        <pt x="606" y="6" on="1"/>
        <pt x="616" y="-12" on="1"/>
        <pt x="550" y="-48" on="0"/>
        <pt x="401" y="-97" on="0"/>
        <pt x="331" y="-97" on="1"/>
        <pt x="267" y="-97" on="0"/>
        <pt x="158" y="-54" on="0"/>
        <pt x="77" y="24" on="0"/>
        <pt x="31" y="132" on="0"/>
        <pt x="31" y="197" on="1"/>
        <pt x="31" y="276" on="0"/>
        <pt x="89" y="416" on="0"/>
        <pt x="189" y="522" on="0"/>
        <pt x="325" y="584" on="0"/>
        <pt x="402" y="584" on="1"/>
        <pt x="469" y="584" on="0"/>
        <pt x="575" y="542" on="0"/>
        <pt x="649" y="470" on="0"/>
        <pt x="689" y="373" on="0"/>
        <pt x="689" y="319" on="1"/>
        <pt x="689" y="269" on="0"/>
        <pt x="664" y="180" on="0"/>
        <pt x="618" y="113" on="0"/>
        <pt x="552" y="74" on="0"/>
        <pt x="512" y="74" on="1"/>
        <pt x="480" y="74" on="0"/>
        <pt x="442" y="102" on="0"/>
        <pt x="437" y="119" on="1"/>
        <pt x="406" y="96" on="0"/>
        <pt x="351" y="72" on="0"/>
        <pt x="323" y="72" on="1"/>
        <pt x="298" y="72" on="0"/>
        <pt x="256" y="95" on="0"/>
        <pt x="226" y="134" on="0"/>
        <pt x="210" y="185" on="0"/>
        <pt x="210" y="214" on="1"/>
        <pt x="210" y="256" on="0"/>
        <pt x="236" y="327" on="0"/>
        <pt x="279" y="380" on="0"/>
        <pt x="336" y="409" on="0"/>
        <pt x="367" y="409" on="1"/>
        <pt x="391" y="409" on="0"/>
        <pt x="437" y="389" on="0"/>
        <pt x="459" y="366" on="1"/>
        <pt x="473" y="406" on="1"/>
      </contour>
      <contour>
        <pt x="455" y="330" on="1"/>
        <pt x="456" y="335" on="0"/>
        <pt x="453" y="342" on="0"/>
        <pt x="447" y="347" on="1"/>
        <pt x="430" y="360" on="0"/>
        <pt x="393" y="377" on="0"/>
        <pt x="370" y="377" on="1"/>
        <pt x="344" y="377" on="0"/>
        <pt x="300" y="352" on="0"/>
        <pt x="266" y="308" on="0"/>
        <pt x="247" y="248" on="0"/>
        <pt x="247" y="212" on="1"/>
        <pt x="247" y="163" on="0"/>
        <pt x="294" y="104" on="0"/>
        <pt x="332" y="104" on="1"/>
        <pt x="353" y="104" on="0"/>
        <pt x="403" y="123" on="0"/>
        <pt x="423" y="138" on="1"/>
        <pt x="433" y="145" on="0"/>
        <pt x="434" y="156" on="1"/>
      </contour>
    </TTGlyph>
    <TTGlyph name="at.cap" xMin="46" yMin="-8" xMax="704" yMax="673">
      <component glyphName="at" x="15" y="89" flags="0x204"/>
    </TTGlyph>
    <TTGlyph name="atilde" xMin="39" yMin="-8" xMax="496" yMax="656">
      <component glyphName="a" x="0" y="0" flags="0x204"/>
      <component glyphName="tilde" x="85" y="0" flags="0x4"/>
    </TTGlyph>
    <TTGlyph name="b" xMin="42" yMin="-8" xMax="481" yMax="709">
      <contour>
        <pt x="135" y="437" on="1"/>
        <pt x="154" y="448" on="1"/>
        <pt x="192" y="470" on="0"/>
        <pt x="269" y="496" on="0"/>
        <pt x="306" y="496" on="1"/>
        <pt x="348" y="496" on="0"/>
        <pt x="414" y="463" on="0"/>
        <pt x="458" y="406" on="0"/>
        <pt x="481" y="331" on="0"/>
        <pt x="481" y="288" on="1"/>
        <pt x="481" y="229" on="0"/>
        <pt x="446" y="122" on="0"/>
        <pt x="384" y="40" on="0"/>
        <pt x="298" y="-8" on="0"/>
        <pt x="246" y="-8" on="1"/>
        <pt x="210" y="-8" on="0"/>
        <pt x="141" y="16" on="0"/>
        <pt x="105" y="39" on="1"/>
        <pt x="85" y="52" on="1"/>
        <pt x="70" y="0" on="1"/>
        <pt x="42" y="3" on="1"/>
        <pt x="128" y="709" on="1"/>
        <pt x="168" y="709" on="1"/>
      </contour>
      <contour>
        <pt x="142" y="412" on="1"/>
        <pt x="134" y="408" on="0"/>
        <pt x="130" y="399" on="0"/>
        <pt x="129" y="391" on="1"/>
        <pt x="93" y="95" on="1"/>
        <pt x="92" y="87" on="0"/>
        <pt x="95" y="78" on="0"/>
        <pt x="103" y="73" on="1"/>
        <pt x="133" y="52" on="0"/>
        <pt x="208" y="26" on="0"/>
        <pt x="244" y="26" on="1"/>
        <pt x="284" y="26" on="0"/>
        <pt x="356" y="63" on="0"/>
        <pt x="410" y="131" on="0"/>
        <pt x="441" y="226" on="0"/>
        <pt x="441" y="285" on="1"/>
        <pt x="441" y="321" on="0"/>
        <pt x="425" y="386" on="0"/>
        <pt x="391" y="434" on="0"/>
        <pt x="337" y="462" on="0"/>
        <pt x="299" y="462" on="1"/>
        <pt x="261" y="462" on="0"/>
        <pt x="182" y="433" on="0"/>
      </contour>
    </TTGlyph>
    <TTGlyph name="backslash" xMin="33" yMin="0" xMax="310" yMax="663">
      <contour>
        <pt x="275" y="0" on="1"/>
        <pt x="33" y="663" on="1"/>
        <pt x="68" y="663" on="1"/>
        <pt x="310" y="0" on="1"/>
      </contour>
    </TTGlyph>
    <TTGlyph name="bar" xMin="32" yMin="-229" xMax="178" yMax="709">
      <contour>
        <pt x="145" y="709" on="1"/>
        <pt x="178" y="709" on="1"/>
        <pt x="65" y="-229" on="1"/>
        <pt x="32" y="-229" on="1"/>
      </contour>
    </TTGlyph>
    <TTGlyph name="braceleft" xMin="46" yMin="-237" xMax="349" yMax="673">
      <contour>
        <pt x="49" y="229" on="1"/>
        <pt x="84" y="236" on="0"/>
        <pt x="130" y="259" on="0"/>
        <pt x="157" y="293" on="0"/>
        <pt x="168" y="340" on="0"/>
        <pt x="168" y="372" on="1"/>
        <pt x="168" y="411" on="0"/>
        <pt x="161" y="513" on="0"/>
        <pt x="161" y="555" on="1"/>
        <pt x="161" y="610" on="0"/>
        <pt x="215" y="673" on="0"/>
        <pt x="269" y="673" on="1"/>
        <pt x="289" y="673" on="0"/>
        <pt x="333" y="666" on="0"/>
        <pt x="349" y="661" on="1"/>
        <pt x="347" y="646" on="1"/>
        <pt x="278" y="642" on="1"/>
        <pt x="232" y="639" on="0"/>
        <pt x="215" y="622" on="1"/>
        <pt x="205" y="612" on="0"/>
        <pt x="198" y="581" on="0"/>
        <pt x="198" y="558" on="1"/>
        <pt x="198" y="516" on="0"/>
        <pt x="206" y="413" on="0"/>
        <pt x="206" y="371" on="1"/>
        <pt x="206" y="315" on="0"/>
        <pt x="159" y="241" on="0"/>
        <pt x="108" y="219" on="1"/>
        <pt x="141" y="204" on="0"/>
        <pt x="177" y="158" on="0"/>
        <pt x="177" y="119" on="1"/>
        <pt x="177" y="94" on="0"/>
        <pt x="156" y="16" on="0"/>
        <pt x="130" y="-67" on="0"/>
        <pt x="109" y="-142" on="0"/>
        <pt x="109" y="-164" on="1"/>
        <pt x="109" y="-185" on="0"/>
        <pt x="131" y="-202" on="0"/>
        <pt x="156" y="-204" on="1"/>
        <pt x="243" y="-210" on="1"/>
        <pt x="241" y="-225" on="1"/>
        <pt x="221" y="-230" on="0"/>
        <pt x="172" y="-237" on="0"/>
        <pt x="154" y="-237" on="1"/>
        <pt x="118" y="-237" on="0"/>
        <pt x="71" y="-201" on="0"/>
        <pt x="71" y="-166" on="1"/>
        <pt x="71" y="-144" on="0"/>
        <pt x="93" y="-68" on="0"/>
        <pt x="118" y="16" on="0"/>
        <pt x="140" y="95" on="0"/>
        <pt x="140" y="120" on="1"/>
        <pt x="140" y="158" on="0"/>
        <pt x="96" y="196" on="0"/>
        <pt x="46" y="207" on="1"/>
      </contour>
    </TTGlyph>
    <TTGlyph name="braceleft.cap" xMin="54" yMin="-125" xMax="357" yMax="785">
      <component glyphName="braceleft" x="8" y="112" flags="0x4"/>
    </TTGlyph>
    <TTGlyph name="braceright" xMin="-59" yMin="-237" xMax="244" yMax="673">
      <contour>
        <pt x="241" y="207" on="1"/>
        <pt x="206" y="199" on="0"/>
        <pt x="160" y="177" on="0"/>
        <pt x="133" y="143" on="0"/>
        <pt x="122" y="96" on="0"/>
        <pt x="122" y="64" on="1"/>
        <pt x="122" y="25" on="0"/>
        <pt x="129" y="-77" on="0"/>
        <pt x="129" y="-119" on="1"/>
        <pt x="129" y="-174" on="0"/>
        <pt x="75" y="-237" on="0"/>
        <pt x="21" y="-237" on="1"/>
        <pt x="1" y="-237" on="0"/>
        <pt x="-43" y="-230" on="0"/>
        <pt x="-59" y="-225" on="1"/>
        <pt x="-57" y="-210" on="1"/>
        <pt x="12" y="-206" on="1"/>
        <pt x="58" y="-203" on="0"/>
        <pt x="75" y="-186" on="1"/>
        <pt x="85" y="-176" on="0"/>
        <pt x="92" y="-145" on="0"/>
        <pt x="92" y="-122" on="1"/>
        <pt x="92" y="-80" on="0"/>
        <pt x="84" y="23" on="0"/>
        <pt x="84" y="65" on="1"/>
        <pt x="84" y="121" on="0"/>
        <pt x="131" y="195" on="0"/>
        <pt x="182" y="217" on="1"/>
        <pt x="149" y="232" on="0"/>
        <pt x="113" y="278" on="0"/>
        <pt x="113" y="317" on="1"/>
        <pt x="113" y="342" on="0"/>
        <pt x="134" y="420" on="0"/>
        <pt x="160" y="503" on="0"/>
        <pt x="181" y="578" on="0"/>
        <pt x="181" y="600" on="1"/>
        <pt x="181" y="621" on="0"/>
        <pt x="160" y="638" on="0"/>
        <pt x="135" y="640" on="1"/>
        <pt x="47" y="646" on="1"/>
        <pt x="49" y="661" on="1"/>
        <pt x="69" y="666" on="0"/>
        <pt x="118" y="673" on="0"/>
        <pt x="136" y="673" on="1"/>
        <pt x="172" y="673" on="0"/>
        <pt x="219" y="637" on="0"/>
        <pt x="219" y="602" on="1"/>
        <pt x="219" y="580" on="0"/>
        <pt x="197" y="504" on="0"/>
        <pt x="172" y="420" on="0"/>
        <pt x="150" y="341" on="0"/>
        <pt x="150" y="316" on="1"/>
        <pt x="150" y="278" on="0"/>
        <pt x="194" y="239" on="0"/>
        <pt x="244" y="229" on="1"/>
      </contour>
    </TTGlyph>
    <TTGlyph name="braceright.cap" xMin="-44" yMin="-125" xMax="259" yMax="785">
      <component glyphName="braceright" x="15" y="112" flags="0x4"/>
    </TTGlyph>
    <TTGlyph name="bracketleft" xMin="29" yMin="-229" xMax="309" yMax="663">
      <contour>
        <pt x="135" y="663" on="1"/>
        <pt x="309" y="663" on="1"/>
        <pt x="305" y="630" on="1"/>
        <pt x="170" y="630" on="1"/>
        <pt x="72" y="-196" on="1"/>
        <pt x="207" y="-196" on="1"/>
        <pt x="203" y="-229" on="1"/>
        <pt x="29" y="-229" on="1"/>
      </contour>
    </TTGlyph>
    <TTGlyph name="bracketleft.cap" xMin="63" yMin="-114" xMax="343" yMax="778">
      <component glyphName="bracketleft" x="34" y="115" flags="0x4"/>
    </TTGlyph>
    <TTGlyph name="bracketright" xMin="-53" yMin="-229" xMax="227" yMax="663">
      <contour>
        <pt x="121" y="-229" on="1"/>
        <pt x="-53" y="-229" on="1"/>
        <pt x="-49" y="-196" on="1"/>
        <pt x="86" y="-196" on="1"/>
        <pt x="184" y="630" on="1"/>
        <pt x="49" y="630" on="1"/>
        <pt x="53" y="663" on="1"/>
        <pt x="227" y="663" on="1"/>
      </contour>
    </TTGlyph>
    <TTGlyph name="bracketright.cap" xMin="-56" yMin="-114" xMax="224" yMax="778">
      <component glyphName="bracketright" x="-3" y="115" flags="0x4"/>
    </TTGlyph>
    <TTGlyph name="breve" xMin="97" yMin="551" xMax="367" yMax="676">
      <contour>
        <pt x="215" y="551" on="1"/>
        <pt x="173" y="551" on="0"/>
        <pt x="104" y="610" on="0"/>
        <pt x="97" y="673" on="1"/>
        <pt x="116" y="676" on="1"/>
        <pt x="127" y="637" on="0"/>
        <pt x="182" y="588" on="0"/>
        <pt x="221" y="588" on="1"/>
        <pt x="260" y="588" on="0"/>
        <pt x="330" y="637" on="0"/>
        <pt x="349" y="676" on="1"/>
        <pt x="367" y="673" on="1"/>
        <pt x="347" y="612" on="0"/>
        <pt x="263" y="551" on="0"/>
      </contour>
    </TTGlyph>
    <TTGlyph name="breve.cap" xMin="117" yMin="716" xMax="387" yMax="841">
      <contour>
        <pt x="235" y="716" on="1"/>
        <pt x="193" y="716" on="0"/>
        <pt x="124" y="775" on="0"/>
        <pt x="117" y="838" on="1"/>
        <pt x="136" y="841" on="1"/>
        <pt x="147" y="802" on="0"/>
        <pt x="202" y="753" on="0"/>
        <pt x="241" y="753" on="1"/>
        <pt x="280" y="753" on="0"/>
        <pt x="350" y="802" on="0"/>
        <pt x="369" y="841" on="1"/>
        <pt x="387" y="838" on="1"/>
        <pt x="367" y="777" on="0"/>
        <pt x="283" y="716" on="0"/>
      </contour>
    </TTGlyph>
    <TTGlyph name="brokenbar" xMin="32" yMin="-229" xMax="178" yMax="709">
      <contour>
        <pt x="145" y="709" on="1"/>
        <pt x="178" y="709" on="1"/>
        <pt x="128" y="291" on="1"/>
        <pt x="95" y="291" on="1"/>
      </contour>
      <contour>
        <pt x="82" y="189" on="1"/>
        <pt x="115" y="189" on="1"/>
        <pt x="65" y="-229" on="1"/>
        <pt x="32" y="-229" on="1"/>
      </contour>
    </TTGlyph>
    <TTGlyph name="bullet" xMin="81" yMin="198" xMax="255" yMax="361">
      <contour>
        <pt x="238" y="198" on="1"/>
        <pt x="81" y="198" on="1"/>
        <pt x="100" y="361" on="1"/>
        <pt x="235" y="361" on="1"/>
        <pt x="248" y="361" on="0"/>
        <pt x="255" y="352" on="0"/>
        <pt x="254" y="343" on="1"/>
      </contour>
    </TTGlyph>
    <TTGlyph name="bullet.cap" xMin="90" yMin="248" xMax="264" yMax="411">
      <component glyphName="bullet" x="9" y="50" flags="0x4"/>
    </TTGlyph>
    <TTGlyph name="c" xMin="39" yMin="-8" xMax="458" yMax="496">
      <contour>
        <pt x="428" y="78" on="1"/>
        <pt x="440" y="59" on="1"/>
        <pt x="392" y="29" on="0"/>
        <pt x="287" y="-8" on="0"/>
        <pt x="237" y="-8" on="1"/>
        <pt x="190" y="-8" on="0"/>
        <pt x="116" y="26" on="0"/>
        <pt x="65" y="84" on="0"/>
        <pt x="39" y="164" on="0"/>
        <pt x="39" y="210" on="1"/>
        <pt x="39" y="264" on="0"/>
        <pt x="75" y="367" on="0"/>
        <pt x="138" y="447" on="0"/>
        <pt x="226" y="496" on="0"/>
        <pt x="279" y="496" on="1"/>
        <pt x="342" y="496" on="0"/>
        <pt x="433" y="425" on="0"/>
        <pt x="458" y="371" on="1"/>
        <pt x="435" y="359" on="1"/>
        <pt x="413" y="385" on="1"/>
        <pt x="380" y="424" on="0"/>
        <pt x="318" y="462" on="0"/>
        <pt x="275" y="462" on="1"/>
        <pt x="237" y="462" on="0"/>
        <pt x="166" y="426" on="0"/>
        <pt x="112" y="360" on="0"/>
        <pt x="80" y="266" on="0"/>
        <pt x="80" y="208" on="1"/>
        <pt x="80" y="168" on="0"/>
        <pt x="101" y="101" on="0"/>
        <pt x="141" y="53" on="0"/>
        <pt x="201" y="26" on="0"/>
        <pt x="239" y="26" on="1"/>
        <pt x="268" y="26" on="0"/>
        <pt x="331" y="41" on="0"/>
        <pt x="371" y="56" on="1"/>
      </contour>
    </TTGlyph>
    <TTGlyph name="cacute" xMin="39" yMin="-8" xMax="458" yMax="693">
      <component glyphName="c" x="0" y="0" flags="0x204"/>
      <component glyphName="acute" x="90" y="0" flags="0x4"/>
    </TTGlyph>
    <TTGlyph name="caron" xMin="98" yMin="539" xMax="386" yMax="689">
      <contour>
        <pt x="98" y="677" on="1"/>
        <pt x="112" y="689" on="1"/>
        <pt x="229" y="578" on="1"/>
        <pt x="232" y="578" on="1"/>
        <pt x="376" y="689" on="1"/>
        <pt x="386" y="677" on="1"/>
        <pt x="248" y="546" on="1"/>
        <pt x="244" y="543" on="0"/>
        <pt x="237" y="539" on="0"/>
        <pt x="230" y="539" on="1"/>
        <pt x="222" y="539" on="1"/>
        <pt x="212" y="539" on="0"/>
        <pt x="206" y="546" on="1"/>
      </contour>
    </TTGlyph>
    <TTGlyph name="caron.cap" xMin="111" yMin="720" xMax="399" yMax="870">
      <contour>
        <pt x="111" y="858" on="1"/>
        <pt x="125" y="870" on="1"/>
        <pt x="242" y="759" on="1"/>
        <pt x="245" y="759" on="1"/>
        <pt x="389" y="870" on="1"/>
        <pt x="399" y="858" on="1"/>
        <pt x="261" y="727" on="1"/>
        <pt x="257" y="724" on="0"/>
        <pt x="250" y="720" on="0"/>
        <pt x="243" y="720" on="1"/>
        <pt x="235" y="720" on="1"/>
        <pt x="225" y="720" on="0"/>
        <pt x="219" y="727" on="1"/>
      </contour>
    </TTGlyph>
    <TTGlyph name="ccaron" xMin="39" yMin="-8" xMax="458" yMax="689">
      <component glyphName="c" x="0" y="0" flags="0x204"/>
      <component glyphName="caron" x="72" y="0" flags="0x4"/>
    </TTGlyph>
    <TTGlyph name="ccedilla" xMin="39" yMin="-202" xMax="458" yMax="496">
      <contour>
        <pt x="428" y="78" on="1"/>
        <pt x="440" y="59" on="1"/>
        <pt x="392" y="29" on="0"/>
        <pt x="287" y="-8" on="0"/>
        <pt x="237" y="-8" on="1"/>
        <pt x="235" y="-8" on="1"/>
        <pt x="229" y="-19" on="0"/>
        <pt x="229" y="-28" on="1"/>
        <pt x="229" y="-39" on="0"/>
        <pt x="259" y="-56" on="0"/>
        <pt x="296" y="-76" on="0"/>
        <pt x="326" y="-103" on="0"/>
        <pt x="326" y="-125" on="1"/>
        <pt x="326" y="-160" on="0"/>
        <pt x="245" y="-197" on="0"/>
        <pt x="167" y="-202" on="1"/>
        <pt x="162" y="-181" on="1"/>
        <pt x="235" y="-163" on="1"/>
        <pt x="262" y="-156" on="0"/>
        <pt x="291" y="-142" on="0"/>
        <pt x="291" y="-129" on="1"/>
        <pt x="291" y="-116" on="0"/>
        <pt x="261" y="-95" on="0"/>
        <pt x="224" y="-76" on="0"/>
        <pt x="194" y="-54" on="0"/>
        <pt x="194" y="-39" on="1"/>
        <pt x="194" y="-23" on="0"/>
        <pt x="208" y="-6" on="1"/>
        <pt x="167" y="-1" on="0"/>
        <pt x="105" y="36" on="0"/>
        <pt x="61" y="93" on="0"/>
        <pt x="39" y="168" on="0"/>
        <pt x="39" y="210" on="1"/>
        <pt x="39" y="264" on="0"/>
        <pt x="75" y="367" on="0"/>
        <pt x="138" y="447" on="0"/>
        <pt x="226" y="496" on="0"/>
        <pt x="279" y="496" on="1"/>
        <pt x="342" y="496" on="0"/>
        <pt x="433" y="425" on="0"/>
        <pt x="458" y="371" on="1"/>
        <pt x="435" y="359" on="1"/>
        <pt x="413" y="385" on="1"/>
        <pt x="380" y="424" on="0"/>
        <pt x="318" y="462" on="0"/>
        <pt x="275" y="462" on="1"/>
        <pt x="237" y="462" on="0"/>
        <pt x="166" y="426" on="0"/>
        <pt x="112" y="360" on="0"/>
        <pt x="80" y="266" on="0"/>
        <pt x="80" y="208" on="1"/>
        <pt x="80" y="168" on="0"/>
        <pt x="101" y="101" on="0"/>
        <pt x="141" y="53" on="0"/>
        <pt x="201" y="26" on="0"/>
        <pt x="239" y="26" on="1"/>
        <pt x="268" y="26" on="0"/>
        <pt x="331" y="41" on="0"/>
        <pt x="371" y="56" on="1"/>
      </contour>
    </TTGlyph>
    <TTGlyph name="ccircumflex" xMin="39" yMin="-8" xMax="458" yMax="694">
      <component glyphName="c" x="0" y="0" flags="0x204"/>
      <component glyphName="circumflex" x="70" y="0" flags="0x4"/>
    </TTGlyph>
    <TTGlyph name="cdotaccent" xMin="39" yMin="-8" xMax="458" yMax="644">
      <component glyphName="c" x="0" y="0" flags="0x204"/>
      <component glyphName="dotaccent" x="72" y="0" flags="0x4"/>
    </TTGlyph>
    <TTGlyph name="cedilla" xMin="80" yMin="-202" xMax="244" yMax="33">
      <contour>
        <pt x="173" y="24" on="1"/>
        <pt x="165" y="13" on="0"/>
        <pt x="147" y="-17" on="0"/>
        <pt x="147" y="-28" on="1"/>
        <pt x="147" y="-39" on="0"/>
        <pt x="177" y="-56" on="0"/>
        <pt x="214" y="-76" on="0"/>
        <pt x="244" y="-103" on="0"/>
        <pt x="244" y="-125" on="1"/>
        <pt x="244" y="-160" on="0"/>
        <pt x="163" y="-197" on="0"/>
        <pt x="85" y="-202" on="1"/>
        <pt x="80" y="-181" on="1"/>
        <pt x="153" y="-163" on="1"/>
        <pt x="180" y="-156" on="0"/>
        <pt x="209" y="-142" on="0"/>
        <pt x="209" y="-129" on="1"/>
        <pt x="209" y="-116" on="0"/>
        <pt x="179" y="-95" on="0"/>
        <pt x="142" y="-76" on="0"/>
        <pt x="112" y="-54" on="0"/>
        <pt x="112" y="-39" on="1"/>
        <pt x="112" y="-23" on="0"/>
        <pt x="140" y="11" on="0"/>
        <pt x="163" y="33" on="1"/>
      </contour>
    </TTGlyph>
    <TTGlyph name="cent" xMin="74" yMin="-104" xMax="493" yMax="588">
      <contour>
        <pt x="248" y="-7" on="1"/>
        <pt x="206" y="-3" on="0"/>
        <pt x="142" y="34" on="0"/>
        <pt x="97" y="91" on="0"/>
        <pt x="74" y="167" on="0"/>
        <pt x="74" y="210" on="1"/>
        <pt x="74" y="263" on="0"/>
        <pt x="109" y="364" on="0"/>
        <pt x="171" y="444" on="0"/>
        <pt x="257" y="493" on="0"/>
        <pt x="308" y="495" on="1"/>
        <pt x="324" y="588" on="1"/>
        <pt x="350" y="588" on="1"/>
        <pt x="339" y="494" on="1"/>
        <pt x="393" y="487" on="0"/>
        <pt x="470" y="419" on="0"/>
        <pt x="493" y="371" on="1"/>
        <pt x="470" y="359" on="1"/>
        <pt x="448" y="385" on="1"/>
        <pt x="419" y="418" on="0"/>
        <pt x="367" y="455" on="0"/>
        <pt x="335" y="460" on="1"/>
        <pt x="283" y="26" on="1"/>
        <pt x="309" y="27" on="0"/>
        <pt x="369" y="42" on="0"/>
        <pt x="406" y="56" on="1"/>
        <pt x="463" y="78" on="1"/>
        <pt x="475" y="59" on="1"/>
        <pt x="428" y="30" on="0"/>
        <pt x="327" y="-6" on="0"/>
        <pt x="279" y="-8" on="1"/>
        <pt x="263" y="-104" on="1"/>
        <pt x="237" y="-104" on="1"/>
      </contour>
      <contour>
        <pt x="115" y="208" on="1"/>
        <pt x="115" y="133" on="0"/>
        <pt x="186" y="35" on="0"/>
        <pt x="252" y="27" on="1"/>
        <pt x="304" y="462" on="1"/>
        <pt x="266" y="460" on="0"/>
        <pt x="198" y="423" on="0"/>
        <pt x="146" y="357" on="0"/>
        <pt x="115" y="265" on="0"/>
      </contour>
    </TTGlyph>
    <TTGlyph name="cent.lprop" xMin="50" yMin="-104" xMax="469" yMax="588">
      <component glyphName="cent" x="-24" y="0" flags="0x4"/>
    </TTGlyph>
    <TTGlyph name="cent.oprop" xMin="44" yMin="-104" xMax="417" yMax="536">
      <component glyphName="cent.otab" x="-54" y="0" flags="0x4"/>
    </TTGlyph>
    <TTGlyph name="cent.otab" xMin="98" yMin="-104" xMax="471" yMax="536">
      <contour>
        <pt x="252" y="-7" on="1"/>
        <pt x="215" y="-3" on="0"/>
        <pt x="157" y="29" on="0"/>
        <pt x="118" y="81" on="0"/>
        <pt x="98" y="148" on="0"/>
        <pt x="98" y="186" on="1"/>
        <pt x="98" y="233" on="0"/>
        <pt x="129" y="324" on="0"/>
        <pt x="184" y="395" on="0"/>
        <pt x="260" y="439" on="0"/>
        <pt x="306" y="441" on="1"/>
        <pt x="323" y="536" on="1"/>
        <pt x="349" y="536" on="1"/>
        <pt x="337" y="439" on="1"/>
        <pt x="383" y="431" on="0"/>
        <pt x="451" y="371" on="0"/>
        <pt x="471" y="329" on="1"/>
        <pt x="448" y="317" on="1"/>
        <pt x="429" y="340" on="1"/>
        <pt x="405" y="368" on="0"/>
        <pt x="359" y="399" on="0"/>
        <pt x="332" y="404" on="1"/>
        <pt x="287" y="26" on="1"/>
        <pt x="330" y="27" on="0"/>
        <pt x="391" y="52" on="1"/>
        <pt x="440" y="72" on="1"/>
        <pt x="455" y="52" on="1"/>
        <pt x="414" y="26" on="0"/>
        <pt x="325" y="-6" on="0"/>
        <pt x="283" y="-8" on="1"/>
        <pt x="266" y="-104" on="1"/>
        <pt x="240" y="-104" on="1"/>
      </contour>
      <contour>
        <pt x="136" y="185" on="1"/>
        <pt x="136" y="120" on="0"/>
        <pt x="199" y="34" on="0"/>
        <pt x="256" y="27" on="1"/>
        <pt x="301" y="406" on="1"/>
        <pt x="269" y="404" on="0"/>
        <pt x="209" y="371" on="0"/>
        <pt x="163" y="313" on="0"/>
        <pt x="136" y="233" on="0"/>
      </contour>
    </TTGlyph>
    <TTGlyph name="circumflex" xMin="78" yMin="544" xMax="366" yMax="694">
      <contour>
        <pt x="366" y="556" on="1"/>
        <pt x="352" y="544" on="1"/>
        <pt x="235" y="655" on="1"/>
        <pt x="232" y="655" on="1"/>
        <pt x="88" y="544" on="1"/>
        <pt x="78" y="556" on="1"/>
        <pt x="216" y="687" on="1"/>
        <pt x="220" y="690" on="0"/>
        <pt x="227" y="694" on="0"/>
        <pt x="234" y="694" on="1"/>
        <pt x="242" y="694" on="1"/>
        <pt x="252" y="694" on="0"/>
        <pt x="258" y="687" on="1"/>
      </contour>
    </TTGlyph>
    <TTGlyph name="circumflex.cap" xMin="88" yMin="709" xMax="376" yMax="859">
      <contour>
        <pt x="376" y="721" on="1"/>
        <pt x="362" y="709" on="1"/>
        <pt x="245" y="820" on="1"/>
        <pt x="242" y="820" on="1"/>
        <pt x="98" y="709" on="1"/>
        <pt x="88" y="721" on="1"/>
        <pt x="226" y="852" on="1"/>
        <pt x="230" y="855" on="0"/>
        <pt x="237" y="859" on="0"/>
        <pt x="244" y="859" on="1"/>
        <pt x="252" y="859" on="1"/>
        <pt x="262" y="859" on="0"/>
        <pt x="268" y="852" on="1"/>
      </contour>
    </TTGlyph>
    <TTGlyph name="colon" xMin="31" yMin="0" xMax="136" yMax="397">
      <contour>
        <pt x="90" y="0" on="1"/>
        <pt x="31" y="0" on="1"/>
        <pt x="37" y="61" on="1"/>
        <pt x="86" y="61" on="1"/>
        <pt x="96" y="61" on="0"/>
        <pt x="95" y="52" on="1"/>
      </contour>
      <contour>
        <pt x="130" y="336" on="1"/>
        <pt x="71" y="336" on="1"/>
        <pt x="77" y="397" on="1"/>
        <pt x="126" y="397" on="1"/>
        <pt x="136" y="397" on="0"/>
        <pt x="135" y="388" on="1"/>
      </contour>
    </TTGlyph>
    <TTGlyph name="comma" xMin="-22" yMin="-134" xMax="91" yMax="61">
      <contour>
        <pt x="82" y="61" on="1"/>
        <pt x="88" y="61" on="0"/>
        <pt x="91" y="56" on="0"/>
        <pt x="91" y="52" on="1"/>
        <pt x="88" y="21" on="1"/>
        <pt x="86" y="5" on="0"/>
        <pt x="75" y="-25" on="0"/>
        <pt x="52" y="-60" on="0"/>
        <pt x="17" y="-104" on="0"/>
        <pt x="-7" y="-134" on="1"/>
        <pt x="-22" y="-126" on="1"/>
        <pt x="44" y="-15" on="1"/>
        <pt x="47" y="-9" on="0"/>
        <pt x="44" y="-6" on="1"/>
        <pt x="33" y="7" on="1"/>
        <pt x="29" y="12" on="0"/>
        <pt x="28" y="17" on="0"/>
        <pt x="29" y="25" on="1"/>
        <pt x="33" y="61" on="1"/>
      </contour>
    </TTGlyph>
    <TTGlyph name="commaaccent" xMin="80" yMin="-243" xMax="184" yMax="-58">
      <contour>
        <pt x="80" y="-240" on="1"/>
        <pt x="140" y="-58" on="1"/>
        <pt x="167" y="-58" on="1"/>
        <pt x="184" y="-58" on="0"/>
        <pt x="182" y="-72" on="1"/>
        <pt x="181" y="-83" on="0"/>
        <pt x="166" y="-111" on="1"/>
        <pt x="96" y="-243" on="1"/>
      </contour>
    </TTGlyph>
    <TTGlyph name="copyright" xMin="38" yMin="-10" xMax="694" yMax="673">
      <contour>
        <pt x="473" y="231" on="1"/>
        <pt x="446" y="211" on="0"/>
        <pt x="375" y="185" on="0"/>
        <pt x="345" y="185" on="1"/>
        <pt x="316" y="185" on="0"/>
        <pt x="271" y="206" on="0"/>
        <pt x="240" y="243" on="0"/>
        <pt x="224" y="292" on="0"/>
        <pt x="224" y="319" on="1"/>
        <pt x="224" y="350" on="0"/>
        <pt x="246" y="409" on="0"/>
        <pt x="285" y="455" on="0"/>
        <pt x="337" y="483" on="0"/>
        <pt x="368" y="483" on="1"/>
        <pt x="407" y="483" on="0"/>
        <pt x="465" y="436" on="0"/>
        <pt x="482" y="401" on="1"/>
        <pt x="466" y="391" on="1"/>
        <pt x="442" y="415" on="1"/>
        <pt x="421" y="436" on="0"/>
        <pt x="389" y="455" on="0"/>
        <pt x="368" y="455" on="1"/>
        <pt x="341" y="455" on="0"/>
        <pt x="299" y="430" on="0"/>
        <pt x="270" y="391" on="0"/>
        <pt x="256" y="343" on="0"/>
        <pt x="256" y="320" on="1"/>
        <pt x="256" y="273" on="0"/>
        <pt x="306" y="214" on="0"/>
        <pt x="346" y="214" on="1"/>
        <pt x="366" y="214" on="0"/>
        <pt x="407" y="225" on="0"/>
        <pt x="428" y="233" on="1"/>
        <pt x="463" y="247" on="1"/>
      </contour>
      <contour>
        <pt x="329" y="-10" on="1"/>
        <pt x="265" y="-10" on="0"/>
        <pt x="158" y="39" on="0"/>
        <pt x="81" y="123" on="0"/>
        <pt x="38" y="235" on="0"/>
        <pt x="38" y="298" on="1"/>
        <pt x="38" y="369" on="0"/>
        <pt x="91" y="504" on="0"/>
        <pt x="187" y="609" on="0"/>
        <pt x="321" y="673" on="0"/>
        <pt x="403" y="673" on="1"/>
        <pt x="467" y="673" on="0"/>
        <pt x="574" y="624" on="0"/>
        <pt x="651" y="540" on="0"/>
        <pt x="694" y="428" on="0"/>
        <pt x="694" y="365" on="1"/>
        <pt x="694" y="294" on="0"/>
        <pt x="641" y="159" on="0"/>
        <pt x="545" y="54" on="0"/>
        <pt x="411" y="-10" on="0"/>
      </contour>
      <contour>
        <pt x="400" y="641" on="1"/>
        <pt x="325" y="641" on="0"/>
        <pt x="204" y="582" on="0"/>
        <pt x="119" y="485" on="0"/>
        <pt x="73" y="362" on="0"/>
        <pt x="73" y="298" on="1"/>
        <pt x="73" y="239" on="0"/>
        <pt x="111" y="139" on="0"/>
        <pt x="179" y="64" on="0"/>
        <pt x="275" y="22" on="0"/>
        <pt x="332" y="22" on="1"/>
        <pt x="407" y="22" on="0"/>
        <pt x="528" y="81" on="0"/>
        <pt x="613" y="178" on="0"/>
        <pt x="659" y="301" on="0"/>
        <pt x="659" y="365" on="1"/>
        <pt x="659" y="423" on="0"/>
        <pt x="621" y="524" on="0"/>
        <pt x="553" y="599" on="0"/>
        <pt x="457" y="641" on="0"/>
      </contour>
    </TTGlyph>
    <TTGlyph name="currency" xMin="44" yMin="116" xMax="542" yMax="545">
      <contour>
        <pt x="311" y="537" on="1"/>
        <pt x="349" y="537" on="0"/>
        <pt x="416" y="504" on="0"/>
        <pt x="439" y="474" on="1"/>
        <pt x="520" y="545" on="1"/>
        <pt x="542" y="522" on="1"/>
        <pt x="454" y="447" on="1"/>
        <pt x="463" y="428" on="0"/>
        <pt x="474" y="385" on="0"/>
        <pt x="474" y="360" on="1"/>
        <pt x="474" y="316" on="0"/>
        <pt x="449" y="238" on="0"/>
        <pt x="426" y="207" on="1"/>
        <pt x="491" y="136" on="1"/>
        <pt x="467" y="116" on="1"/>
        <pt x="406" y="182" on="1"/>
        <pt x="380" y="155" on="0"/>
        <pt x="312" y="124" on="0"/>
        <pt x="274" y="124" on="1"/>
        <pt x="236" y="124" on="0"/>
        <pt x="170" y="156" on="0"/>
        <pt x="147" y="187" on="1"/>
        <pt x="66" y="116" on="1"/>
        <pt x="44" y="139" on="1"/>
        <pt x="131" y="213" on="1"/>
        <pt x="122" y="232" on="0"/>
        <pt x="112" y="275" on="0"/>
        <pt x="112" y="301" on="1"/>
        <pt x="112" y="345" on="0"/>
        <pt x="137" y="423" on="0"/>
        <pt x="159" y="454" on="1"/>
        <pt x="95" y="525" on="1"/>
        <pt x="119" y="545" on="1"/>
        <pt x="180" y="478" on="1"/>
        <pt x="206" y="506" on="0"/>
        <pt x="273" y="537" on="0"/>
      </contour>
      <contour>
        <pt x="278" y="158" on="1"/>
        <pt x="314" y="158" on="0"/>
        <pt x="372" y="189" on="0"/>
        <pt x="414" y="243" on="0"/>
        <pt x="437" y="314" on="0"/>
        <pt x="437" y="353" on="1"/>
        <pt x="437" y="426" on="0"/>
        <pt x="366" y="503" on="0"/>
        <pt x="308" y="503" on="1"/>
        <pt x="272" y="503" on="0"/>
        <pt x="214" y="472" on="0"/>
        <pt x="172" y="418" on="0"/>
        <pt x="149" y="347" on="0"/>
        <pt x="149" y="308" on="1"/>
        <pt x="149" y="235" on="0"/>
        <pt x="220" y="158" on="0"/>
      </contour>
    </TTGlyph>
    <TTGlyph name="d" xMin="39" yMin="-8" xMax="500" yMax="709">
      <contour>
        <pt x="280" y="496" on="1"/>
        <pt x="347" y="496" on="0"/>
        <pt x="412" y="448" on="1"/>
        <pt x="427" y="437" on="1"/>
        <pt x="460" y="709" on="1"/>
        <pt x="500" y="709" on="1"/>
        <pt x="418" y="35" on="1"/>
        <pt x="498" y="26" on="1"/>
        <pt x="496" y="13" on="1"/>
        <pt x="482" y="7" on="0"/>
        <pt x="444" y="-2" on="0"/>
        <pt x="432" y="-2" on="1"/>
        <pt x="408" y="-2" on="0"/>
        <pt x="381" y="23" on="0"/>
        <pt x="381" y="43" on="1"/>
        <pt x="381" y="59" on="1"/>
        <pt x="362" y="46" on="1"/>
        <pt x="323" y="20" on="0"/>
        <pt x="251" y="-8" on="0"/>
        <pt x="212" y="-8" on="1"/>
        <pt x="169" y="-8" on="0"/>
        <pt x="104" y="25" on="0"/>
        <pt x="61" y="82" on="0"/>
        <pt x="39" y="158" on="0"/>
        <pt x="39" y="200" on="1"/>
        <pt x="39" y="259" on="0"/>
        <pt x="75" y="366" on="0"/>
        <pt x="140" y="448" on="0"/>
        <pt x="228" y="496" on="0"/>
      </contour>
      <contour>
        <pt x="373" y="86" on="1"/>
        <pt x="381" y="92" on="0"/>
        <pt x="385" y="99" on="0"/>
        <pt x="386" y="104" on="1"/>
        <pt x="422" y="393" on="1"/>
        <pt x="423" y="402" on="0"/>
        <pt x="419" y="409" on="0"/>
        <pt x="412" y="414" on="1"/>
        <pt x="382" y="437" on="0"/>
        <pt x="319" y="462" on="0"/>
        <pt x="283" y="462" on="1"/>
        <pt x="241" y="462" on="0"/>
        <pt x="167" y="425" on="0"/>
        <pt x="111" y="357" on="0"/>
        <pt x="79" y="261" on="0"/>
        <pt x="79" y="203" on="1"/>
        <pt x="79" y="167" on="0"/>
        <pt x="94" y="102" on="0"/>
        <pt x="127" y="54" on="0"/>
        <pt x="181" y="26" on="0"/>
        <pt x="219" y="26" on="1"/>
        <pt x="260" y="26" on="0"/>
        <pt x="340" y="62" on="0"/>
      </contour>
    </TTGlyph>
    <TTGlyph name="dagger" xMin="45" yMin="-229" xMax="492" yMax="663">
      <contour>
        <pt x="185" y="-229" on="1"/>
        <pt x="198" y="-82" on="1"/>
        <pt x="202" y="-36" on="0"/>
        <pt x="208" y="30" on="0"/>
        <pt x="211" y="57" on="1"/>
        <pt x="219" y="124" on="1"/>
        <pt x="221" y="145" on="0"/>
        <pt x="231" y="211" on="0"/>
        <pt x="239" y="259" on="1"/>
        <pt x="256" y="368" on="1"/>
        <pt x="160" y="364" on="1"/>
        <pt x="122" y="362" on="0"/>
        <pt x="64" y="361" on="0"/>
        <pt x="47" y="361" on="1"/>
        <pt x="45" y="361" on="1"/>
        <pt x="49" y="395" on="1"/>
        <pt x="51" y="395" on="1"/>
        <pt x="68" y="395" on="0"/>
        <pt x="126" y="394" on="0"/>
        <pt x="163" y="392" on="1"/>
        <pt x="258" y="388" on="1"/>
        <pt x="266" y="480" on="1"/>
        <pt x="268" y="507" on="0"/>
        <pt x="275" y="580" on="0"/>
        <pt x="279" y="612" on="1"/>
        <pt x="285" y="663" on="1"/>
        <pt x="322" y="663" on="1"/>
        <pt x="316" y="612" on="1"/>
        <pt x="312" y="582" on="0"/>
        <pt x="302" y="512" on="0"/>
        <pt x="297" y="480" on="1"/>
        <pt x="281" y="388" on="1"/>
        <pt x="378" y="392" on="1"/>
        <pt x="415" y="394" on="0"/>
        <pt x="473" y="395" on="0"/>
        <pt x="490" y="395" on="1"/>
        <pt x="492" y="395" on="1"/>
        <pt x="488" y="361" on="1"/>
        <pt x="486" y="361" on="1"/>
        <pt x="469" y="361" on="0"/>
        <pt x="411" y="362" on="0"/>
        <pt x="375" y="364" on="1"/>
        <pt x="279" y="368" on="1"/>
        <pt x="270" y="259" on="1"/>
        <pt x="266" y="216" on="0"/>
        <pt x="259" y="149" on="0"/>
        <pt x="256" y="124" on="1"/>
        <pt x="248" y="57" on="1"/>
        <pt x="245" y="32" on="0"/>
        <pt x="234" y="-37" on="0"/>
        <pt x="227" y="-82" on="1"/>
        <pt x="204" y="-229" on="1"/>
      </contour>
    </TTGlyph>
    <TTGlyph name="daggerdbl" xMin="4" yMin="-229" xMax="490" yMax="663">
      <contour>
        <pt x="336" y="70" on="1"/>
        <pt x="374" y="72" on="0"/>
        <pt x="432" y="73" on="0"/>
        <pt x="449" y="73" on="1"/>
        <pt x="451" y="73" on="1"/>
        <pt x="447" y="39" on="1"/>
        <pt x="445" y="39" on="1"/>
        <pt x="428" y="39" on="0"/>
        <pt x="370" y="40" on="0"/>
        <pt x="333" y="42" on="1"/>
        <pt x="238" y="46" on="1"/>
        <pt x="230" y="-46" on="1"/>
        <pt x="228" y="-73" on="0"/>
        <pt x="221" y="-146" on="0"/>
        <pt x="217" y="-178" on="1"/>
        <pt x="211" y="-229" on="1"/>
        <pt x="174" y="-229" on="1"/>
        <pt x="180" y="-178" on="1"/>
        <pt x="184" y="-148" on="0"/>
        <pt x="194" y="-78" on="0"/>
        <pt x="199" y="-46" on="1"/>
        <pt x="215" y="46" on="1"/>
        <pt x="118" y="42" on="1"/>
        <pt x="81" y="40" on="0"/>
        <pt x="23" y="39" on="0"/>
        <pt x="6" y="39" on="1"/>
        <pt x="4" y="39" on="1"/>
        <pt x="8" y="73" on="1"/>
        <pt x="10" y="73" on="1"/>
        <pt x="27" y="73" on="0"/>
        <pt x="85" y="72" on="0"/>
        <pt x="121" y="70" on="1"/>
        <pt x="217" y="66" on="1"/>
        <pt x="218" y="92" on="0"/>
        <pt x="223" y="176" on="0"/>
        <pt x="228" y="217" on="1"/>
        <pt x="233" y="258" on="0"/>
        <pt x="248" y="342" on="0"/>
        <pt x="254" y="368" on="1"/>
        <pt x="158" y="364" on="1"/>
        <pt x="120" y="362" on="0"/>
        <pt x="62" y="361" on="0"/>
        <pt x="45" y="361" on="1"/>
        <pt x="43" y="361" on="1"/>
        <pt x="47" y="395" on="1"/>
        <pt x="49" y="395" on="1"/>
        <pt x="66" y="395" on="0"/>
        <pt x="124" y="394" on="0"/>
        <pt x="161" y="392" on="1"/>
        <pt x="256" y="388" on="1"/>
        <pt x="264" y="480" on="1"/>
        <pt x="266" y="507" on="0"/>
        <pt x="273" y="580" on="0"/>
        <pt x="277" y="612" on="1"/>
        <pt x="283" y="663" on="1"/>
        <pt x="320" y="663" on="1"/>
        <pt x="314" y="612" on="1"/>
        <pt x="310" y="582" on="0"/>
        <pt x="300" y="512" on="0"/>
        <pt x="295" y="480" on="1"/>
        <pt x="279" y="388" on="1"/>
        <pt x="376" y="392" on="1"/>
        <pt x="413" y="394" on="0"/>
        <pt x="471" y="395" on="0"/>
        <pt x="488" y="395" on="1"/>
        <pt x="490" y="395" on="1"/>
        <pt x="486" y="361" on="1"/>
        <pt x="484" y="361" on="1"/>
        <pt x="467" y="361" on="0"/>
        <pt x="409" y="362" on="0"/>
        <pt x="373" y="364" on="1"/>
        <pt x="277" y="368" on="1"/>
        <pt x="276" y="342" on="0"/>
        <pt x="272" y="258" on="0"/>
        <pt x="267" y="217" on="1"/>
        <pt x="265" y="200" on="0"/>
        <pt x="258" y="160" on="0"/>
        <pt x="251" y="120" on="0"/>
        <pt x="243" y="82" on="0"/>
        <pt x="240" y="66" on="1"/>
      </contour>
    </TTGlyph>
    <TTGlyph name="dcaron" xMin="39" yMin="-8" xMax="645" yMax="709">
      <component glyphName="d" x="0" y="0" flags="0x4"/>
      <component glyphName="commaaccent" x="461" y="767" flags="0x4"/>
    </TTGlyph>
    <TTGlyph name="dcroat" xMin="39" yMin="-8" xMax="571" yMax="709">
      <contour>
        <pt x="280" y="496" on="1"/>
        <pt x="347" y="496" on="0"/>
        <pt x="412" y="448" on="1"/>
        <pt x="427" y="437" on="1"/>
        <pt x="446" y="594" on="1"/>
        <pt x="229" y="594" on="1"/>
        <pt x="233" y="624" on="1"/>
        <pt x="449" y="624" on="1"/>
        <pt x="460" y="709" on="1"/>
        <pt x="500" y="709" on="1"/>
        <pt x="489" y="622" on="1"/>
        <pt x="571" y="611" on="1"/>
        <pt x="568" y="594" on="1"/>
        <pt x="486" y="594" on="1"/>
        <pt x="418" y="35" on="1"/>
        <pt x="498" y="26" on="1"/>
        <pt x="496" y="13" on="1"/>
        <pt x="482" y="7" on="0"/>
        <pt x="444" y="-2" on="0"/>
        <pt x="432" y="-2" on="1"/>
        <pt x="408" y="-2" on="0"/>
        <pt x="381" y="23" on="0"/>
        <pt x="381" y="43" on="1"/>
        <pt x="381" y="59" on="1"/>
        <pt x="362" y="46" on="1"/>
        <pt x="323" y="20" on="0"/>
        <pt x="251" y="-8" on="0"/>
        <pt x="212" y="-8" on="1"/>
        <pt x="169" y="-8" on="0"/>
        <pt x="104" y="25" on="0"/>
        <pt x="61" y="82" on="0"/>
        <pt x="39" y="158" on="0"/>
        <pt x="39" y="200" on="1"/>
        <pt x="39" y="259" on="0"/>
        <pt x="75" y="366" on="0"/>
        <pt x="140" y="448" on="0"/>
        <pt x="228" y="496" on="0"/>
      </contour>
      <contour>
        <pt x="373" y="86" on="1"/>
        <pt x="381" y="92" on="0"/>
        <pt x="385" y="99" on="0"/>
        <pt x="386" y="104" on="1"/>
        <pt x="422" y="393" on="1"/>
        <pt x="423" y="402" on="0"/>
        <pt x="419" y="409" on="0"/>
        <pt x="412" y="414" on="1"/>
        <pt x="382" y="437" on="0"/>
        <pt x="319" y="462" on="0"/>
        <pt x="283" y="462" on="1"/>
        <pt x="241" y="462" on="0"/>
        <pt x="167" y="425" on="0"/>
        <pt x="111" y="357" on="0"/>
        <pt x="79" y="261" on="0"/>
        <pt x="79" y="203" on="1"/>
        <pt x="79" y="167" on="0"/>
        <pt x="94" y="102" on="0"/>
        <pt x="127" y="54" on="0"/>
        <pt x="181" y="26" on="0"/>
        <pt x="219" y="26" on="1"/>
        <pt x="260" y="26" on="0"/>
        <pt x="340" y="62" on="0"/>
      </contour>
    </TTGlyph>
    <TTGlyph name="degree" xMin="80" yMin="347" xMax="383" yMax="673">
      <contour>
        <pt x="242" y="639" on="1"/>
        <pt x="214" y="639" on="0"/>
        <pt x="168" y="617" on="0"/>
        <pt x="135" y="578" on="0"/>
        <pt x="117" y="527" on="0"/>
        <pt x="117" y="497" on="1"/>
        <pt x="117" y="446" on="0"/>
        <pt x="171" y="381" on="0"/>
        <pt x="221" y="381" on="1"/>
        <pt x="249" y="381" on="0"/>
        <pt x="295" y="403" on="0"/>
        <pt x="328" y="442" on="0"/>
        <pt x="346" y="493" on="0"/>
        <pt x="346" y="523" on="1"/>
        <pt x="346" y="574" on="0"/>
        <pt x="292" y="639" on="0"/>
      </contour>
      <contour>
        <pt x="222" y="347" on="1"/>
        <pt x="191" y="347" on="0"/>
        <pt x="139" y="370" on="0"/>
        <pt x="101" y="411" on="0"/>
        <pt x="80" y="465" on="0"/>
        <pt x="80" y="497" on="1"/>
        <pt x="80" y="531" on="0"/>
        <pt x="104" y="595" on="0"/>
        <pt x="147" y="644" on="0"/>
        <pt x="206" y="673" on="0"/>
        <pt x="241" y="673" on="1"/>
        <pt x="272" y="673" on="0"/>
        <pt x="324" y="650" on="0"/>
        <pt x="362" y="609" on="0"/>
        <pt x="383" y="554" on="0"/>
        <pt x="383" y="523" on="1"/>
        <pt x="383" y="489" on="0"/>
        <pt x="359" y="425" on="0"/>
        <pt x="316" y="376" on="0"/>
        <pt x="257" y="347" on="0"/>
      </contour>
    </TTGlyph>
    <TTGlyph name="dieresis" xMin="106" yMin="574" xMax="338" yMax="641">
      <contour>
        <pt x="169" y="574" on="1"/>
        <pt x="106" y="574" on="1"/>
        <pt x="115" y="641" on="1"/>
        <pt x="166" y="641" on="1"/>
        <pt x="174" y="641" on="0"/>
        <pt x="177" y="637" on="0"/>
        <pt x="176" y="631" on="1"/>
      </contour>
      <contour>
        <pt x="330" y="574" on="1"/>
        <pt x="267" y="574" on="1"/>
        <pt x="276" y="641" on="1"/>
        <pt x="327" y="641" on="1"/>
        <pt x="335" y="641" on="0"/>
        <pt x="338" y="637" on="0"/>
        <pt x="337" y="631" on="1"/>
      </contour>
    </TTGlyph>
    <TTGlyph name="dieresis.cap" xMin="126" yMin="749" xMax="358" yMax="816">
      <contour>
        <pt x="189" y="749" on="1"/>
        <pt x="126" y="749" on="1"/>
        <pt x="135" y="816" on="1"/>
        <pt x="186" y="816" on="1"/>
        <pt x="194" y="816" on="0"/>
        <pt x="197" y="812" on="0"/>
        <pt x="196" y="806" on="1"/>
      </contour>
      <contour>
        <pt x="350" y="749" on="1"/>
        <pt x="287" y="749" on="1"/>
        <pt x="296" y="816" on="1"/>
        <pt x="347" y="816" on="1"/>
        <pt x="355" y="816" on="0"/>
        <pt x="358" y="812" on="0"/>
        <pt x="357" y="806" on="1"/>
      </contour>
    </TTGlyph>
    <TTGlyph name="divide" xMin="69" yMin="61" xMax="418" yMax="431">
      <contour>
        <pt x="69" y="230" on="1"/>
        <pt x="72" y="262" on="1"/>
        <pt x="418" y="262" on="1"/>
        <pt x="415" y="230" on="1"/>
      </contour>
      <contour>
        <pt x="250" y="61" on="1"/>
        <pt x="194" y="61" on="1"/>
        <pt x="202" y="124" on="1"/>
        <pt x="244" y="124" on="1"/>
        <pt x="253" y="124" on="0"/>
        <pt x="258" y="122" on="0"/>
        <pt x="256" y="115" on="1"/>
      </contour>
      <contour>
        <pt x="287" y="368" on="1"/>
        <pt x="231" y="368" on="1"/>
        <pt x="239" y="431" on="1"/>
        <pt x="281" y="431" on="1"/>
        <pt x="290" y="431" on="0"/>
        <pt x="295" y="429" on="0"/>
        <pt x="294" y="422" on="1"/>
      </contour>
    </TTGlyph>
    <TTGlyph name="dollar" xMin="33" yMin="-104" xMax="503" yMax="766">
      <contour>
        <pt x="44" y="66" on="1"/>
        <pt x="107" y="48" on="1"/>
        <pt x="142" y="37" on="0"/>
        <pt x="210" y="25" on="0"/>
        <pt x="241" y="25" on="1"/>
        <pt x="280" y="347" on="1"/>
        <pt x="246" y="365" on="1"/>
        <pt x="178" y="400" on="0"/>
        <pt x="110" y="470" on="0"/>
        <pt x="110" y="522" on="1"/>
        <pt x="110" y="581" on="0"/>
        <pt x="156" y="622" on="1"/>
        <pt x="212" y="670" on="0"/>
        <pt x="319" y="673" on="1"/>
        <pt x="336" y="766" on="1"/>
        <pt x="363" y="766" on="1"/>
        <pt x="351" y="672" on="1"/>
        <pt x="388" y="670" on="0"/>
        <pt x="470" y="657" on="0"/>
        <pt x="503" y="646" on="1"/>
        <pt x="497" y="622" on="1"/>
        <pt x="455" y="628" on="1"/>
        <pt x="424" y="632" on="0"/>
        <pt x="372" y="637" on="0"/>
        <pt x="347" y="638" on="1"/>
        <pt x="315" y="371" on="1"/>
        <pt x="327" y="365" on="1"/>
        <pt x="405" y="325" on="0"/>
        <pt x="480" y="245" on="0"/>
        <pt x="480" y="189" on="1"/>
        <pt x="480" y="154" on="0"/>
        <pt x="454" y="81" on="0"/>
        <pt x="424" y="52" on="1"/>
        <pt x="396" y="25" on="0"/>
        <pt x="317" y="-5" on="0"/>
        <pt x="269" y="-9" on="1"/>
        <pt x="269" y="-10" on="1"/>
        <pt x="253" y="-104" on="1"/>
        <pt x="226" y="-104" on="1"/>
        <pt x="237" y="-10" on="1"/>
        <pt x="190" y="-8" on="0"/>
        <pt x="78" y="22" on="0"/>
        <pt x="33" y="45" on="1"/>
      </contour>
      <contour>
        <pt x="310" y="331" on="1"/>
        <pt x="273" y="26" on="1"/>
        <pt x="352" y="32" on="0"/>
        <pt x="398" y="78" on="1"/>
        <pt x="418" y="98" on="0"/>
        <pt x="441" y="153" on="0"/>
        <pt x="441" y="185" on="1"/>
        <pt x="441" y="230" on="0"/>
        <pt x="382" y="295" on="0"/>
        <pt x="313" y="330" on="1"/>
      </contour>
      <contour>
        <pt x="148" y="523" on="1"/>
        <pt x="148" y="503" on="0"/>
        <pt x="161" y="471" on="0"/>
        <pt x="190" y="442" on="0"/>
        <pt x="236" y="412" on="0"/>
        <pt x="269" y="395" on="1"/>
        <pt x="285" y="387" on="1"/>
        <pt x="315" y="639" on="1"/>
        <pt x="270" y="637" on="0"/>
        <pt x="201" y="616" on="0"/>
        <pt x="179" y="596" on="1"/>
        <pt x="165" y="582" on="0"/>
        <pt x="148" y="546" on="0"/>
      </contour>
    </TTGlyph>
    <TTGlyph name="dollar.lprop" xMin="26" yMin="-104" xMax="496" yMax="766">
      <component glyphName="dollar" x="-7" y="0" flags="0x4"/>
    </TTGlyph>
    <TTGlyph name="dollar.oprop" xMin="43" yMin="-104" xMax="399" yMax="599">
      <component glyphName="dollar.otab" x="-54" y="0" flags="0x4"/>
    </TTGlyph>
    <TTGlyph name="dollar.otab" xMin="97" yMin="-104" xMax="453" yMax="599">
      <contour>
        <pt x="154" y="39" on="1"/>
        <pt x="178" y="34" on="0"/>
        <pt x="228" y="26" on="0"/>
        <pt x="249" y="25" on="1"/>
        <pt x="276" y="245" on="1"/>
        <pt x="257" y="254" on="1"/>
        <pt x="201" y="280" on="0"/>
        <pt x="143" y="335" on="0"/>
        <pt x="143" y="377" on="1"/>
        <pt x="143" y="406" on="0"/>
        <pt x="169" y="448" on="0"/>
        <pt x="190" y="463" on="1"/>
        <pt x="213" y="479" on="0"/>
        <pt x="276" y="495" on="0"/>
        <pt x="306" y="496" on="1"/>
        <pt x="323" y="599" on="1"/>
        <pt x="349" y="599" on="1"/>
        <pt x="336" y="495" on="1"/>
        <pt x="366" y="493" on="0"/>
        <pt x="426" y="480" on="0"/>
        <pt x="453" y="469" on="1"/>
        <pt x="448" y="449" on="1"/>
        <pt x="416" y="454" on="1"/>
        <pt x="397" y="457" on="0"/>
        <pt x="353" y="462" on="0"/>
        <pt x="332" y="463" on="1"/>
        <pt x="309" y="269" on="1"/>
        <pt x="320" y="264" on="1"/>
        <pt x="383" y="235" on="0"/>
        <pt x="440" y="179" on="0"/>
        <pt x="440" y="136" on="1"/>
        <pt x="440" y="110" on="0"/>
        <pt x="419" y="60" on="0"/>
        <pt x="397" y="40" on="1"/>
        <pt x="376" y="20" on="0"/>
        <pt x="315" y="-5" on="0"/>
        <pt x="276" y="-7" on="1"/>
        <pt x="276" y="-8" on="1"/>
        <pt x="260" y="-104" on="1"/>
        <pt x="234" y="-104" on="1"/>
        <pt x="245" y="-8" on="1"/>
        <pt x="207" y="-6" on="0"/>
        <pt x="126" y="16" on="0"/>
        <pt x="97" y="31" on="1"/>
        <pt x="106" y="50" on="1"/>
      </contour>
      <contour>
        <pt x="402" y="134" on="1"/>
        <pt x="402" y="169" on="0"/>
        <pt x="355" y="209" on="0"/>
        <pt x="305" y="232" on="1"/>
        <pt x="280" y="26" on="1"/>
        <pt x="337" y="30" on="0"/>
        <pt x="371" y="63" on="1"/>
        <pt x="385" y="76" on="0"/>
        <pt x="402" y="112" on="0"/>
      </contour>
      <contour>
        <pt x="180" y="379" on="1"/>
        <pt x="180" y="349" on="0"/>
        <pt x="226" y="307" on="0"/>
        <pt x="280" y="282" on="1"/>
        <pt x="302" y="463" on="1"/>
        <pt x="279" y="461" on="0"/>
        <pt x="227" y="450" on="0"/>
        <pt x="210" y="437" on="1"/>
        <pt x="196" y="427" on="0"/>
        <pt x="180" y="399" on="0"/>
      </contour>
    </TTGlyph>
    <TTGlyph name="dotaccent" xMin="183" yMin="573" xMax="261" yMax="644">
      <contour>
        <pt x="253" y="573" on="1"/>
        <pt x="183" y="573" on="1"/>
        <pt x="192" y="644" on="1"/>
        <pt x="249" y="644" on="1"/>
        <pt x="257" y="644" on="0"/>
        <pt x="261" y="639" on="0"/>
        <pt x="260" y="632" on="1"/>
      </contour>
    </TTGlyph>
    <TTGlyph name="dotaccent.cap" xMin="193" yMin="740" xMax="271" yMax="811">
      <contour>
        <pt x="263" y="740" on="1"/>
        <pt x="193" y="740" on="1"/>
        <pt x="202" y="811" on="1"/>
        <pt x="259" y="811" on="1"/>
        <pt x="267" y="811" on="0"/>
        <pt x="271" y="806" on="0"/>
        <pt x="270" y="799" on="1"/>
      </contour>
    </TTGlyph>
    <TTGlyph name="dotlessi" xMin="48" yMin="0" xMax="147" yMax="488">
      <contour>
        <pt x="107" y="488" on="1"/>
        <pt x="147" y="488" on="1"/>
        <pt x="88" y="0" on="1"/>
        <pt x="48" y="0" on="1"/>
      </contour>
    </TTGlyph>
    <TTGlyph name="e" xMin="39" yMin="-8" xMax="469" yMax="496">
      <contour>
        <pt x="438" y="83" on="1"/>
        <pt x="450" y="64" on="1"/>
        <pt x="402" y="33" on="0"/>
        <pt x="297" y="-8" on="0"/>
        <pt x="246" y="-8" on="1"/>
        <pt x="196" y="-8" on="0"/>
        <pt x="119" y="28" on="0"/>
        <pt x="67" y="89" on="0"/>
        <pt x="39" y="169" on="0"/>
        <pt x="39" y="213" on="1"/>
        <pt x="39" y="269" on="0"/>
        <pt x="77" y="372" on="0"/>
        <pt x="143" y="450" on="0"/>
        <pt x="233" y="496" on="0"/>
        <pt x="284" y="496" on="1"/>
        <pt x="326" y="496" on="0"/>
        <pt x="394" y="463" on="0"/>
        <pt x="443" y="408" on="0"/>
        <pt x="469" y="334" on="0"/>
        <pt x="469" y="293" on="1"/>
        <pt x="469" y="259" on="0"/>
        <pt x="460" y="241" on="0"/>
        <pt x="449" y="241" on="1"/>
        <pt x="80" y="241" on="1"/>
        <pt x="79" y="236" on="0"/>
        <pt x="79" y="223" on="0"/>
        <pt x="79" y="218" on="1"/>
        <pt x="79" y="175" on="0"/>
        <pt x="102" y="105" on="0"/>
        <pt x="145" y="54" on="0"/>
        <pt x="207" y="26" on="0"/>
        <pt x="247" y="26" on="1"/>
        <pt x="282" y="26" on="0"/>
        <pt x="346" y="43" on="0"/>
        <pt x="382" y="59" on="1"/>
      </contour>
      <contour>
        <pt x="85" y="271" on="1"/>
        <pt x="433" y="271" on="1"/>
        <pt x="433" y="285" on="1"/>
        <pt x="434" y="369" on="0"/>
        <pt x="351" y="462" on="0"/>
        <pt x="281" y="462" on="1"/>
        <pt x="243" y="462" on="0"/>
        <pt x="176" y="431" on="0"/>
        <pt x="124" y="378" on="0"/>
        <pt x="90" y="309" on="0"/>
      </contour>
    </TTGlyph>
    <TTGlyph name="eacute" xMin="39" yMin="-8" xMax="469" yMax="693">
      <component glyphName="e" x="0" y="0" flags="0x204"/>
      <component glyphName="acute" x="79" y="0" flags="0x4"/>
    </TTGlyph>
    <TTGlyph name="ebreve" xMin="39" yMin="-8" xMax="469" yMax="676">
      <component glyphName="e" x="0" y="0" flags="0x204"/>
      <component glyphName="breve" x="71" y="0" flags="0x4"/>
    </TTGlyph>
    <TTGlyph name="ecaron" xMin="39" yMin="-8" xMax="469" yMax="689">
      <component glyphName="e" x="0" y="0" flags="0x204"/>
      <component glyphName="caron" x="62" y="0" flags="0x4"/>
    </TTGlyph>
    <TTGlyph name="ecircumflex" xMin="39" yMin="-8" xMax="469" yMax="694">
      <component glyphName="e" x="0" y="0" flags="0x204"/>
      <component glyphName="circumflex" x="73" y="0" flags="0x4"/>
    </TTGlyph>
    <TTGlyph name="edieresis" xMin="39" yMin="-8" xMax="469" yMax="641">
      <component glyphName="e" x="0" y="0" flags="0x204"/>
      <component glyphName="dieresis" x="75" y="0" flags="0x4"/>
    </TTGlyph>
    <TTGlyph name="edotaccent" xMin="39" yMin="-8" xMax="469" yMax="644">
      <component glyphName="e" x="0" y="0" flags="0x204"/>
      <component glyphName="dotaccent" x="75" y="0" flags="0x4"/>
    </TTGlyph>
    <TTGlyph name="egrave" xMin="39" yMin="-8" xMax="469" yMax="692">
      <component glyphName="e" x="0" y="0" flags="0x204"/>
      <component glyphName="grave" x="79" y="0" flags="0x4"/>
    </TTGlyph>
    <TTGlyph name="eight" xMin="50" yMin="-10" xMax="518" yMax="673">
      <contour>
        <pt x="279" y="-10" on="1"/>
        <pt x="228" y="-10" on="0"/>
        <pt x="144" y="20" on="0"/>
        <pt x="84" y="72" on="0"/>
        <pt x="50" y="143" on="0"/>
        <pt x="50" y="184" on="1"/>
        <pt x="50" y="217" on="0"/>
        <pt x="75" y="277" on="0"/>
        <pt x="118" y="331" on="0"/>
        <pt x="175" y="376" on="0"/>
        <pt x="208" y="393" on="1"/>
        <pt x="175" y="417" on="0"/>
        <pt x="130" y="477" on="0"/>
        <pt x="130" y="516" on="1"/>
        <pt x="130" y="551" on="0"/>
        <pt x="164" y="609" on="0"/>
        <pt x="219" y="650" on="0"/>
        <pt x="292" y="673" on="0"/>
        <pt x="331" y="673" on="1"/>
        <pt x="375" y="673" on="0"/>
        <pt x="445" y="647" on="0"/>
        <pt x="493" y="605" on="0"/>
        <pt x="518" y="549" on="0"/>
        <pt x="518" y="519" on="1"/>
        <pt x="518" y="467" on="0"/>
        <pt x="451" y="371" on="0"/>
        <pt x="394" y="326" on="1"/>
        <pt x="451" y="294" on="0"/>
        <pt x="512" y="223" on="0"/>
        <pt x="512" y="178" on="1"/>
        <pt x="512" y="136" on="0"/>
        <pt x="473" y="67" on="0"/>
        <pt x="409" y="17" on="0"/>
        <pt x="324" y="-10" on="0"/>
      </contour>
      <contour>
        <pt x="249" y="370" on="1"/>
        <pt x="241" y="374" on="0"/>
        <pt x="233" y="377" on="0"/>
        <pt x="225" y="372" on="1"/>
        <pt x="196" y="355" on="0"/>
        <pt x="145" y="315" on="0"/>
        <pt x="108" y="267" on="0"/>
        <pt x="87" y="213" on="0"/>
        <pt x="87" y="183" on="1"/>
        <pt x="87" y="150" on="0"/>
        <pt x="115" y="91" on="0"/>
        <pt x="166" y="48" on="0"/>
        <pt x="237" y="22" on="0"/>
        <pt x="279" y="22" on="1"/>
        <pt x="320" y="22" on="0"/>
        <pt x="391" y="45" on="0"/>
        <pt x="444" y="87" on="0"/>
        <pt x="474" y="144" on="0"/>
        <pt x="474" y="177" on="1"/>
        <pt x="474" y="199" on="0"/>
        <pt x="457" y="237" on="0"/>
        <pt x="420" y="272" on="0"/>
        <pt x="362" y="309" on="0"/>
        <pt x="321" y="331" on="1"/>
      </contour>
      <contour>
        <pt x="377" y="348" on="1"/>
        <pt x="425" y="386" on="0"/>
        <pt x="484" y="472" on="0"/>
        <pt x="484" y="520" on="1"/>
        <pt x="484" y="547" on="0"/>
        <pt x="459" y="592" on="0"/>
        <pt x="417" y="624" on="0"/>
        <pt x="361" y="641" on="0"/>
        <pt x="330" y="641" on="1"/>
        <pt x="299" y="641" on="0"/>
        <pt x="240" y="624" on="0"/>
        <pt x="194" y="593" on="0"/>
        <pt x="166" y="549" on="0"/>
        <pt x="166" y="521" on="1"/>
        <pt x="166" y="497" on="0"/>
        <pt x="185" y="459" on="0"/>
        <pt x="219" y="427" on="0"/>
        <pt x="265" y="398" on="0"/>
        <pt x="293" y="383" on="1"/>
        <pt x="358" y="348" on="1"/>
        <pt x="365" y="344" on="0"/>
        <pt x="372" y="344" on="0"/>
      </contour>
    </TTGlyph>
    <TTGlyph name="eight.lprop" xMin="41" yMin="-10" xMax="509" yMax="673">
      <contour>
        <pt x="270" y="-10" on="1"/>
        <pt x="219" y="-10" on="0"/>
        <pt x="135" y="20" on="0"/>
        <pt x="75" y="72" on="0"/>
        <pt x="41" y="143" on="0"/>
        <pt x="41" y="184" on="1"/>
        <pt x="41" y="217" on="0"/>
        <pt x="66" y="277" on="0"/>
        <pt x="109" y="331" on="0"/>
        <pt x="166" y="376" on="0"/>
        <pt x="199" y="393" on="1"/>
        <pt x="166" y="417" on="0"/>
        <pt x="121" y="477" on="0"/>
        <pt x="121" y="516" on="1"/>
        <pt x="121" y="551" on="0"/>
        <pt x="155" y="609" on="0"/>
        <pt x="210" y="650" on="0"/>
        <pt x="283" y="673" on="0"/>
        <pt x="322" y="673" on="1"/>
        <pt x="366" y="673" on="0"/>
        <pt x="436" y="647" on="0"/>
        <pt x="484" y="605" on="0"/>
        <pt x="509" y="549" on="0"/>
        <pt x="509" y="519" on="1"/>
        <pt x="509" y="467" on="0"/>
        <pt x="442" y="371" on="0"/>
        <pt x="385" y="326" on="1"/>
        <pt x="442" y="294" on="0"/>
        <pt x="503" y="223" on="0"/>
        <pt x="503" y="178" on="1"/>
        <pt x="503" y="136" on="0"/>
        <pt x="464" y="67" on="0"/>
        <pt x="400" y="17" on="0"/>
        <pt x="315" y="-10" on="0"/>
      </contour>
      <contour>
        <pt x="240" y="370" on="1"/>
        <pt x="232" y="374" on="0"/>
        <pt x="224" y="377" on="0"/>
        <pt x="216" y="372" on="1"/>
        <pt x="187" y="355" on="0"/>
        <pt x="136" y="315" on="0"/>
        <pt x="99" y="267" on="0"/>
        <pt x="78" y="213" on="0"/>
        <pt x="78" y="183" on="1"/>
        <pt x="78" y="150" on="0"/>
        <pt x="106" y="91" on="0"/>
        <pt x="157" y="48" on="0"/>
        <pt x="228" y="22" on="0"/>
        <pt x="270" y="22" on="1"/>
        <pt x="311" y="22" on="0"/>
        <pt x="382" y="45" on="0"/>
        <pt x="435" y="87" on="0"/>
        <pt x="465" y="144" on="0"/>
        <pt x="465" y="177" on="1"/>
        <pt x="465" y="199" on="0"/>
        <pt x="448" y="237" on="0"/>
        <pt x="411" y="272" on="0"/>
        <pt x="353" y="309" on="0"/>
        <pt x="312" y="331" on="1"/>
      </contour>
      <contour>
        <pt x="368" y="348" on="1"/>
        <pt x="416" y="386" on="0"/>
        <pt x="475" y="472" on="0"/>
        <pt x="475" y="520" on="1"/>
        <pt x="475" y="547" on="0"/>
        <pt x="450" y="592" on="0"/>
        <pt x="408" y="624" on="0"/>
        <pt x="352" y="641" on="0"/>
        <pt x="321" y="641" on="1"/>
        <pt x="290" y="641" on="0"/>
        <pt x="231" y="624" on="0"/>
        <pt x="185" y="593" on="0"/>
        <pt x="157" y="549" on="0"/>
        <pt x="157" y="521" on="1"/>
        <pt x="157" y="497" on="0"/>
        <pt x="176" y="459" on="0"/>
        <pt x="210" y="427" on="0"/>
        <pt x="256" y="398" on="0"/>
        <pt x="284" y="383" on="1"/>
        <pt x="349" y="348" on="1"/>
        <pt x="356" y="344" on="0"/>
        <pt x="363" y="344" on="0"/>
      </contour>
    </TTGlyph>
    <TTGlyph name="eight.oprop" xMin="40" yMin="-8" xMax="506" yMax="673">
      <component glyphName="eight.otab" x="-7" y="0" flags="0x4"/>
    </TTGlyph>
    <TTGlyph name="eight.otab" xMin="47" yMin="-8" xMax="513" yMax="673">
      <contour>
        <pt x="275" y="-8" on="1"/>
        <pt x="224" y="-8" on="0"/>
        <pt x="140" y="21" on="0"/>
        <pt x="80" y="73" on="0"/>
        <pt x="47" y="143" on="0"/>
        <pt x="47" y="184" on="1"/>
        <pt x="47" y="217" on="0"/>
        <pt x="72" y="277" on="0"/>
        <pt x="115" y="331" on="0"/>
        <pt x="172" y="376" on="0"/>
        <pt x="204" y="393" on="1"/>
        <pt x="175" y="414" on="0"/>
        <pt x="127" y="477" on="0"/>
        <pt x="127" y="516" on="1"/>
        <pt x="127" y="551" on="0"/>
        <pt x="160" y="609" on="0"/>
        <pt x="216" y="650" on="0"/>
        <pt x="288" y="673" on="0"/>
        <pt x="327" y="673" on="1"/>
        <pt x="371" y="673" on="0"/>
        <pt x="440" y="647" on="0"/>
        <pt x="488" y="605" on="0"/>
        <pt x="513" y="549" on="0"/>
        <pt x="513" y="519" on="1"/>
        <pt x="513" y="467" on="0"/>
        <pt x="444" y="366" on="0"/>
        <pt x="390" y="326" on="1"/>
        <pt x="447" y="294" on="0"/>
        <pt x="507" y="222" on="0"/>
        <pt x="507" y="178" on="1"/>
        <pt x="507" y="136" on="0"/>
        <pt x="469" y="67" on="0"/>
        <pt x="404" y="19" on="0"/>
        <pt x="320" y="-8" on="0"/>
      </contour>
      <contour>
        <pt x="245" y="370" on="1"/>
        <pt x="237" y="374" on="0"/>
        <pt x="229" y="377" on="0"/>
        <pt x="221" y="372" on="1"/>
        <pt x="163" y="339" on="0"/>
        <pt x="85" y="243" on="0"/>
        <pt x="85" y="183" on="1"/>
        <pt x="85" y="150" on="0"/>
        <pt x="113" y="92" on="0"/>
        <pt x="163" y="49" on="0"/>
        <pt x="233" y="24" on="0"/>
        <pt x="275" y="24" on="1"/>
        <pt x="316" y="24" on="0"/>
        <pt x="387" y="47" on="0"/>
        <pt x="439" y="87" on="0"/>
        <pt x="469" y="144" on="0"/>
        <pt x="469" y="177" on="1"/>
        <pt x="469" y="199" on="0"/>
        <pt x="452" y="237" on="0"/>
        <pt x="416" y="272" on="0"/>
        <pt x="358" y="309" on="0"/>
        <pt x="317" y="331" on="1"/>
      </contour>
      <contour>
        <pt x="373" y="347" on="1"/>
        <pt x="421" y="385" on="0"/>
        <pt x="478" y="472" on="0"/>
        <pt x="478" y="520" on="1"/>
        <pt x="478" y="547" on="0"/>
        <pt x="454" y="592" on="0"/>
        <pt x="412" y="624" on="0"/>
        <pt x="357" y="641" on="0"/>
        <pt x="326" y="641" on="1"/>
        <pt x="295" y="641" on="0"/>
        <pt x="237" y="624" on="0"/>
        <pt x="191" y="593" on="0"/>
        <pt x="163" y="549" on="0"/>
        <pt x="163" y="521" on="1"/>
        <pt x="163" y="497" on="0"/>
        <pt x="182" y="459" on="0"/>
        <pt x="215" y="426" on="0"/>
        <pt x="261" y="397" on="0"/>
        <pt x="289" y="382" on="1"/>
        <pt x="354" y="347" on="1"/>
        <pt x="361" y="343" on="0"/>
        <pt x="368" y="343" on="0"/>
      </contour>
    </TTGlyph>
    <TTGlyph name="ellipsis" xMin="31" yMin="0" xMax="432" yMax="61">
      <contour>
        <pt x="90" y="0" on="1"/>
        <pt x="31" y="0" on="1"/>
        <pt x="37" y="61" on="1"/>
        <pt x="86" y="61" on="1"/>
        <pt x="96" y="61" on="0"/>
        <pt x="95" y="52" on="1"/>
      </contour>
      <contour>
        <pt x="258" y="0" on="1"/>
        <pt x="199" y="0" on="1"/>
        <pt x="205" y="61" on="1"/>
        <pt x="254" y="61" on="1"/>
        <pt x="264" y="61" on="0"/>
        <pt x="263" y="52" on="1"/>
      </contour>
      <contour>
        <pt x="426" y="0" on="1"/>
        <pt x="367" y="0" on="1"/>
        <pt x="373" y="61" on="1"/>
        <pt x="422" y="61" on="1"/>
        <pt x="432" y="61" on="0"/>
        <pt x="431" y="52" on="1"/>
      </contour>
    </TTGlyph>
    <TTGlyph name="emacron" xMin="39" yMin="-8" xMax="469" yMax="606">
      <component glyphName="e" x="0" y="0" flags="0x204"/>
      <component glyphName="macron" x="72" y="0" flags="0x4"/>
    </TTGlyph>
    <TTGlyph name="emdash" xMin="58" yMin="229" xMax="1020" yMax="261">
      <contour>
        <pt x="58" y="229" on="1"/>
        <pt x="62" y="261" on="1"/>
        <pt x="1020" y="261" on="1"/>
        <pt x="1016" y="229" on="1"/>
      </contour>
    </TTGlyph>
    <TTGlyph name="emdash.cap" xMin="69" yMin="316" xMax="1031" yMax="348">
      <component glyphName="emdash" x="11" y="87" flags="0x4"/>
    </TTGlyph>
    <TTGlyph name="endash" xMin="58" yMin="229" xMax="542" yMax="261">
      <contour>
        <pt x="58" y="229" on="1"/>
        <pt x="62" y="261" on="1"/>
        <pt x="542" y="261" on="1"/>
        <pt x="538" y="229" on="1"/>
      </contour>
    </TTGlyph>
    <TTGlyph name="endash.cap" xMin="69" yMin="316" xMax="553" yMax="348">
      <component glyphName="endash" x="11" y="87" flags="0x4"/>
    </TTGlyph>
    <TTGlyph name="eng" xMin="42" yMin="-168" xMax="468" yMax="496">
      <contour>
        <pt x="133" y="449" on="1"/>
        <pt x="172" y="465" on="1"/>
        <pt x="207" y="479" on="0"/>
        <pt x="280" y="496" on="0"/>
        <pt x="312" y="496" on="1"/>
        <pt x="381" y="496" on="0"/>
        <pt x="468" y="425" on="0"/>
        <pt x="468" y="358" on="1"/>
        <pt x="468" y="341" on="0"/>
        <pt x="465" y="308" on="0"/>
        <pt x="463" y="290" on="1"/>
        <pt x="426" y="-28" on="1"/>
        <pt x="421" y="-66" on="0"/>
        <pt x="403" y="-116" on="0"/>
        <pt x="386" y="-133" on="1"/>
        <pt x="353" y="-168" on="0"/>
        <pt x="288" y="-168" on="1"/>
        <pt x="276" y="-168" on="0"/>
        <pt x="246" y="-165" on="0"/>
        <pt x="233" y="-163" on="1"/>
        <pt x="236" y="-142" on="1"/>
        <pt x="266" y="-141" on="1"/>
        <pt x="303" y="-139" on="0"/>
        <pt x="343" y="-126" on="0"/>
        <pt x="356" y="-112" on="1"/>
        <pt x="380" y="-87" on="0"/>
        <pt x="387" y="-21" on="1"/>
        <pt x="425" y="297" on="1"/>
        <pt x="427" y="315" on="0"/>
        <pt x="430" y="347" on="0"/>
        <pt x="430" y="359" on="1"/>
        <pt x="430" y="408" on="0"/>
        <pt x="367" y="461" on="0"/>
        <pt x="305" y="461" on="1"/>
        <pt x="269" y="461" on="0"/>
        <pt x="182" y="440" on="0"/>
        <pt x="141" y="424" on="1"/>
        <pt x="135" y="422" on="0"/>
        <pt x="133" y="417" on="0"/>
        <pt x="132" y="412" on="1"/>
        <pt x="82" y="0" on="1"/>
        <pt x="42" y="0" on="1"/>
        <pt x="101" y="488" on="1"/>
        <pt x="128" y="488" on="1"/>
      </contour>
    </TTGlyph>
    <TTGlyph name="eogonek" xMin="39" yMin="-173" xMax="469" yMax="496">
      <contour>
        <pt x="424" y="47" on="1"/>
        <pt x="316" y="-24" on="0"/>
        <pt x="316" y="-95" on="1"/>
        <pt x="316" y="-117" on="0"/>
        <pt x="342" y="-143" on="0"/>
        <pt x="368" y="-143" on="1"/>
        <pt x="374" y="-143" on="0"/>
        <pt x="389" y="-142" on="0"/>
        <pt x="395" y="-141" on="1"/>
        <pt x="425" y="-137" on="1"/>
        <pt x="429" y="-156" on="1"/>
        <pt x="418" y="-163" on="0"/>
        <pt x="378" y="-173" on="0"/>
        <pt x="360" y="-173" on="1"/>
        <pt x="319" y="-173" on="0"/>
        <pt x="277" y="-126" on="0"/>
        <pt x="277" y="-97" on="1"/>
        <pt x="277" y="-68" on="0"/>
        <pt x="313" y="-13" on="0"/>
        <pt x="342" y="10" on="1"/>
        <pt x="318" y="2" on="0"/>
        <pt x="267" y="-8" on="0"/>
        <pt x="246" y="-8" on="1"/>
        <pt x="196" y="-8" on="0"/>
        <pt x="119" y="28" on="0"/>
        <pt x="67" y="89" on="0"/>
        <pt x="39" y="169" on="0"/>
        <pt x="39" y="213" on="1"/>
        <pt x="39" y="269" on="0"/>
        <pt x="77" y="372" on="0"/>
        <pt x="143" y="450" on="0"/>
        <pt x="233" y="496" on="0"/>
        <pt x="284" y="496" on="1"/>
        <pt x="326" y="496" on="0"/>
        <pt x="394" y="463" on="0"/>
        <pt x="443" y="408" on="0"/>
        <pt x="469" y="334" on="0"/>
        <pt x="469" y="293" on="1"/>
        <pt x="469" y="259" on="0"/>
        <pt x="460" y="241" on="0"/>
        <pt x="449" y="241" on="1"/>
        <pt x="80" y="241" on="1"/>
        <pt x="79" y="236" on="0"/>
        <pt x="79" y="223" on="0"/>
        <pt x="79" y="218" on="1"/>
        <pt x="79" y="175" on="0"/>
        <pt x="102" y="105" on="0"/>
        <pt x="145" y="54" on="0"/>
        <pt x="207" y="26" on="0"/>
        <pt x="247" y="26" on="1"/>
        <pt x="282" y="26" on="0"/>
        <pt x="346" y="43" on="0"/>
        <pt x="382" y="59" on="1"/>
        <pt x="438" y="83" on="1"/>
        <pt x="450" y="64" on="1"/>
      </contour>
      <contour>
        <pt x="433" y="271" on="1"/>
        <pt x="433" y="285" on="1"/>
        <pt x="434" y="369" on="0"/>
        <pt x="351" y="462" on="0"/>
        <pt x="281" y="462" on="1"/>
        <pt x="243" y="462" on="0"/>
        <pt x="176" y="431" on="0"/>
        <pt x="124" y="378" on="0"/>
        <pt x="90" y="309" on="0"/>
        <pt x="85" y="271" on="1"/>
      </contour>
    </TTGlyph>
    <TTGlyph name="equal" xMin="58" yMin="144" xMax="429" yMax="348">
      <contour>
        <pt x="79" y="315" on="1"/>
        <pt x="83" y="348" on="1"/>
        <pt x="429" y="348" on="1"/>
        <pt x="425" y="315" on="1"/>
      </contour>
      <contour>
        <pt x="58" y="144" on="1"/>
        <pt x="62" y="177" on="1"/>
        <pt x="408" y="177" on="1"/>
        <pt x="404" y="144" on="1"/>
      </contour>
    </TTGlyph>
    <TTGlyph name="estimated" xMin="72" yMin="-10" xMax="835" yMax="673">
      <contour>
        <pt x="218" y="323" on="1"/>
        <pt x="210" y="323" on="0"/>
        <pt x="210" y="317" on="1"/>
        <pt x="210" y="130" on="1"/>
        <pt x="210" y="123" on="0"/>
        <pt x="216" y="115" on="0"/>
        <pt x="222" y="109" on="1"/>
        <pt x="266" y="64" on="0"/>
        <pt x="387" y="11" on="0"/>
        <pt x="456" y="11" on="1"/>
        <pt x="530" y="11" on="0"/>
        <pt x="655" y="71" on="0"/>
        <pt x="700" y="121" on="1"/>
        <pt x="756" y="121" on="1"/>
        <pt x="702" y="61" on="0"/>
        <pt x="546" y="-10" on="0"/>
        <pt x="455" y="-10" on="1"/>
        <pt x="376" y="-10" on="0"/>
        <pt x="236" y="43" on="0"/>
        <pt x="132" y="135" on="0"/>
        <pt x="72" y="260" on="0"/>
        <pt x="72" y="331" on="1"/>
        <pt x="72" y="402" on="0"/>
        <pt x="132" y="527" on="0"/>
        <pt x="236" y="620" on="0"/>
        <pt x="376" y="673" on="0"/>
        <pt x="455" y="673" on="1"/>
        <pt x="533" y="673" on="0"/>
        <pt x="671" y="620" on="0"/>
        <pt x="774" y="527" on="0"/>
        <pt x="835" y="402" on="0"/>
        <pt x="835" y="331" on="1"/>
        <pt x="835" y="323" on="1"/>
      </contour>
      <contour>
        <pt x="696" y="537" on="1"/>
        <pt x="696" y="543" on="0"/>
        <pt x="689" y="553" on="0"/>
        <pt x="683" y="559" on="1"/>
        <pt x="641" y="603" on="0"/>
        <pt x="522" y="653" on="0"/>
        <pt x="456" y="653" on="1"/>
        <pt x="387" y="653" on="0"/>
        <pt x="267" y="601" on="0"/>
        <pt x="222" y="556" on="1"/>
        <pt x="216" y="550" on="0"/>
        <pt x="210" y="540" on="0"/>
        <pt x="210" y="532" on="1"/>
        <pt x="210" y="347" on="1"/>
        <pt x="210" y="342" on="0"/>
        <pt x="218" y="342" on="1"/>
        <pt x="688" y="342" on="1"/>
        <pt x="696" y="342" on="0"/>
        <pt x="696" y="347" on="1"/>
      </contour>
    </TTGlyph>
    <TTGlyph name="eth" xMin="38" yMin="-8" xMax="490" yMax="727">
      <contour>
        <pt x="320" y="628" on="1"/>
        <pt x="297" y="648" on="0"/>
        <pt x="232" y="690" on="0"/>
        <pt x="196" y="709" on="1"/>
        <pt x="213" y="727" on="1"/>
        <pt x="257" y="707" on="0"/>
        <pt x="326" y="661" on="0"/>
        <pt x="351" y="641" on="1"/>
        <pt x="476" y="696" on="1"/>
        <pt x="490" y="669" on="1"/>
        <pt x="376" y="619" on="1"/>
        <pt x="428" y="567" on="0"/>
        <pt x="484" y="430" on="0"/>
        <pt x="484" y="349" on="1"/>
        <pt x="484" y="268" on="0"/>
        <pt x="447" y="136" on="0"/>
        <pt x="381" y="43" on="0"/>
        <pt x="290" y="-8" on="0"/>
        <pt x="236" y="-8" on="1"/>
        <pt x="192" y="-8" on="0"/>
        <pt x="119" y="27" on="0"/>
        <pt x="67" y="87" on="0"/>
        <pt x="38" y="166" on="0"/>
        <pt x="38" y="211" on="1"/>
        <pt x="38" y="269" on="0"/>
        <pt x="76" y="362" on="0"/>
        <pt x="140" y="428" on="0"/>
        <pt x="225" y="463" on="0"/>
        <pt x="272" y="463" on="1"/>
        <pt x="318" y="463" on="0"/>
        <pt x="403" y="430" on="0"/>
        <pt x="443" y="404" on="1"/>
        <pt x="439" y="458" on="0"/>
        <pt x="386" y="568" on="0"/>
        <pt x="345" y="606" on="1"/>
        <pt x="219" y="552" on="1"/>
        <pt x="206" y="579" on="1"/>
      </contour>
      <contour>
        <pt x="274" y="429" on="1"/>
        <pt x="231" y="429" on="0"/>
        <pt x="159" y="400" on="0"/>
        <pt x="107" y="345" on="0"/>
        <pt x="78" y="266" on="0"/>
        <pt x="78" y="215" on="1"/>
        <pt x="78" y="177" on="0"/>
        <pt x="98" y="108" on="0"/>
        <pt x="139" y="56" on="0"/>
        <pt x="199" y="26" on="0"/>
        <pt x="239" y="26" on="1"/>
        <pt x="284" y="26" on="0"/>
        <pt x="360" y="69" on="0"/>
        <pt x="415" y="153" on="0"/>
        <pt x="446" y="277" on="0"/>
        <pt x="446" y="357" on="1"/>
        <pt x="446" y="365" on="0"/>
        <pt x="441" y="373" on="0"/>
        <pt x="436" y="377" on="1"/>
        <pt x="403" y="401" on="0"/>
        <pt x="319" y="429" on="0"/>
      </contour>
    </TTGlyph>
</ttFont>
